<svg xmlns="http://www.w3.org/2000/svg" viewBox="0 0 327 377.59"><defs><style>.cls-1{fill:#1e1e1e;stroke:#b8a473;stroke-miterlimit:10;stroke-width:19px;}.cls-2{fill:#3d2507;}.cls-3{fill:#201606;}.cls-4{fill:#a7a7a7;}.cls-5{fill:#866442;}.cls-6{fill:#856342;}.cls-7{fill:#876443;}.cls-8{fill:#864;}.cls-9{fill:#b8a473;}.cls-10{fill:#896645;}.cls-11{fill:#8b6846;}.cls-12{fill:#6a4b2b;}.cls-13{fill:#5e4121;}.cls-14{fill:#8b6947;}.cls-15{fill:#7e5d3c;}.cls-16{fill:#6e4e2e;}.cls-17{fill:#775736;}.cls-18{fill:#5c3f20;}.cls-19{fill:#140c02;}.cls-20{fill:#8b6847;}.cls-21{fill:#c7ac69;}.cls-22{fill:#c6ab68;}.cls-23{fill:#c7ab68;}.cls-24{fill:#c6aa68;}.cls-25{fill:#c9ad6a;}</style></defs><g id="Layer_2" data-name="Layer 2"><g id="Layer_1-2" data-name="Layer 1"><polygon class="cls-1" points="317.5 277.7 317.5 99.88 163.5 10.97 9.5 99.88 9.5 277.7 163.5 366.62 317.5 277.7"/><path class="cls-2" d="M242.6,119.24c18,0,27.07,7.19,21,26.35-2.25,7,.84,10,7.53,10.81,4,.48,10.71,1.79,10.13,4.93-4.1,22.29,23.38,37.54,13.1,60.72-2.44,5.49-2.33,10,1.86,14.77,13.23,15,12.81,35,18.38,52.75,3.49,11.17-1.19,16.09-13,16.06q-138.33-.27-276.68,0c-12.08,0-15.42-5.2-12.91-16.36,1.62-7.15,4.55-15.11,2.89-21.7-5-19.72-2.19-31.76,21.68-31.35,8.09.14,7.74-4.94,3.44-10.91-15-20.88-14.38-22.46,12.88-32.27C40.5,180,35.54,167.1,55.23,156.43c4.65-2.52,4-8.07,2.72-12.87-2.8-10.59,1.77-18.26,9.83-24.51,11.35-7.87,23.69-10.47,37.17-7.2,39.83,3.42,79.71-4.07,119.55.28C231.85,111.12,237.11,115.48,242.6,119.24Z"/><path class="cls-3" d="M100.91,119.64c-11.16,6.42-22.07-.93-33.13-.59C71,111.7,74.38,104.41,77.44,97c6.89-16.74,14.28-30.14,36.9-19.45,11.19,5.29,20.86-1.42,24.37-13.94,4.38-15.7,8.43-31.5,14-52.31,8.24,19.25,9.16,34.55,12.39,49.22,1.25,5.71.36,12.88,7.72,14.92,6.16,1.71,10.28-3.2,13.32-7.28C209.33,37,222.43,43.44,231.23,82.88c2.76,12.35,7.52,24.26,11.37,36.37l-16.94.53c-12.81-12.62-26.32-20.56-43.8-7.72-1.66,1.22-5.88,2.87-7.53,1.21-19.3-19.47-39.31,9.66-59.14-.91C111.54,110.41,104.82,115.3,100.91,119.64Z"/><path class="cls-4" d="M164.43,297.54c-42.33,0-84.67.31-127-.36-5.86-.09-19,6.65-16.66-8.48,1.53-10.08.75-24.45,18.79-22.14,24.71,3.15,49.58,2.35,74.43,2.28,59.12-.17,118.27,1,177.36-.31,18.47-.42,11.71,13.11,14.35,20.18,4.2,11.23-6.48,8.68-12.27,8.71C250.44,297.64,207.43,297.54,164.43,297.54Z"/><path class="cls-5" d="M188.88,180.55c-24.85,0-49.71.15-74.56-.13-4.84-.06-12.23,1.1-11.55-7.16.5-6.24,6.7-5.15,11.19-5.74,27-3.61,55.24-6.09,81.13-5.56,22,.45,46-6.55,68.44,2.37,5.92,2.35,14.88.17,13.58,10.27-1.11,8.64-8.85,9-15.71,9-24.17.09-48.34,0-72.51,0Z"/><path class="cls-6" d="M199.56,217.54c-23.49,0-47,.35-70.45-.23-6.5-.16-18.11,3.37-17.81-6.81.28-9.51,11.88-6.11,18.46-6.35,34.86-1.26,69.74-2.26,104.62-2.3,14.22,0,27.93-11,42.85-.92,4.57,3.08,13,1.69,12.17,10.1-.86,8.83-8.39,9.34-15.3,9.36-24.85.09-49.69,0-74.53,0Z"/><path class="cls-7" d="M167.7,144.06c-24.19,0-48.38.12-72.58-.09-5-.05-12.34,1.3-13.13-5.88-1-8.82,6.93-8.65,12.76-8.72q74.59-.92,149.19-1.36c6.06,0,13.37.11,13.05,8.7-.33,8.88-7.68,10-14.72,10-24.86.1-49.71,0-74.57,0Z"/><path class="cls-8" d="M204,242.49c24.18,0,48.36-.19,72.54.12,6.89.09,16.91-1.91,16.78,9-.13,10.3-9.61,9.61-16.88,9.48q-74.56-1.31-149.11-3.08c-5-.12-12.5.62-12.46-6.73,0-7.54,7.56-6.26,12.54-6.3,25.53-.23,51.06-.11,76.59-.11Z"/><path class="cls-9" d="M100.91,119.64c4-12.53,10.69-19.74,25.19-14.13,10.23,4,16.17-1.23,20.2-10.56,2.56-5.9,2.26-13.4,8.54-17.36.88.17,1.94.09,2.11.44C167.11,99.72,179,111.9,201,89.1c6.45-6.68,13.83-2.76,16.93,5.92,2.9,8.14,5.17,16.5,7.72,24.76Z"/><path class="cls-10" d="M70,244c5.85,0,10.51-.23,15.13.07s7.07,3.13,7,7.86-2.22,7.72-6.94,8-9.47.67-13.84-.46C63,257.28,47.62,262,47.79,251.3,48,239.61,63.16,247,70,244Z"/><path class="cls-11" d="M77.79,219.58c2.42.38,7.1.59,11.42,2,3.87,1.22,8.07,5,5.68,8.74-6.59,10.34-16.74,3.05-25.28,3.32-5.51.18-13.2.91-14.41-7-.69-4.54,4.46-5.81,8.54-6.19S71.64,220,77.79,219.58Z"/><path class="cls-7" d="M104.17,191c-10,6.67-20.16,6.73-30.51,5.13-3.45-.54-6.81-2.4-6.48-6.22.45-5.07,5-6.38,9-5.62C85.58,186.13,94.84,188.74,104.17,191Z"/><path class="cls-12" d="M141.87,155.07c16.39-4.53,26.74-2.91,37.09.39C168.59,160.61,158.24,161,141.87,155.07Z"/><path class="cls-13" d="M213,192.74c10.22-6.11,20.38-4.26,30.53-.73C233.27,198.21,223.11,196.83,213,192.74Z"/><path class="cls-14" d="M147.31,229.68c9.72-4.66,19.36-4.61,28.89.68C166.48,234.92,156.85,234.45,147.31,229.68Z"/><path class="cls-15" d="M112.54,155.35c-14.83,5.1-24.81,6.1-39.39.3C87.55,150.65,97.55,151,112.54,155.35Z"/><path class="cls-16" d="M175.23,192.91c-9.49,3.85-18.75,5.19-31.09-.61C156.79,186.9,166.1,187.51,175.23,192.91Z"/><path class="cls-17" d="M53.72,207.68c11.21-5.49,19.87-3.11,28.59.7C73.85,212.07,65.36,214.84,53.72,207.68Z"/><path class="cls-18" d="M230,155.15c-7.24,5.9-12.57,5.45-19.66,1.42C216.27,150.85,221.74,151.56,230,155.15Z"/><path class="cls-19" d="M129.92,230.14c.25,3.25-1.74,4.65-4.52,4.88s-5.49-.93-5.42-4.06c0-1.33,2.13-3.26,3.67-3.78C126.26,226.3,128.68,227.34,129.92,230.14Z"/><path class="cls-20" d="M230.13,229.5h32.94C252.34,235.24,241.46,232.74,230.13,229.5Z"/><path class="cls-21" d="M52.81,165.7c4.62-.13,6.68,2.4,7.24,5.63.78,4.55.81,9.9-4.86,11-4.65,1-6.3-3.18-6.77-7.29A9.31,9.31,0,0,1,52.81,165.7Z"/><path class="cls-22" d="M96.66,170c-.1,8.48-2,12.65-6.18,12.72-4.3.08-6-4.15-6-8.49s1.6-8.57,5.93-8.55C94.6,165.72,96.67,169.77,96.66,170Z"/><path class="cls-23" d="M48.25,210.65c0,4.41-1.48,8.88-6.25,8.56-4.52-.31-6-4.77-5.69-9.23.22-3.7,1.95-7.27,5.44-7.5C46.7,202.15,48.15,206.25,48.25,210.65Z"/><path class="cls-24" d="M104.22,214.18c-.25,1.33-1.48,5.78-6.63,4.81-4.83-.91-5.1-5.51-4.9-9.74.19-3.9,2.64-7.31,5.84-6.95C102.79,202.78,105,206.72,104.22,214.18Z"/><path class="cls-24" d="M27.92,252.38c-.5,4-1.35,8.4-6.88,7.3-3.7-.74-4.92-4.29-4.95-7.85,0-4.41,1.85-8.83,6.33-8.66S28.7,247.62,27.92,252.38Z"/><path class="cls-24" d="M108.78,248.36c-.08,7.59-1.91,11.7-6.22,11.71-4.48,0-5.87-4.29-6-8.54s1.56-8.62,5.92-8.49C106.52,243.16,108.89,247.1,108.78,248.36Z"/><path class="cls-25" d="M64.59,133.82c-.27-4.44,1.44-8.48,5.85-8.83,3.24-.26,5.5,3.2,5.78,6.86.34,4.31-.53,8.16-5.81,8.29C66.52,140.23,64.61,137.71,64.59,133.82Z"/></g></g></svg>