<svg xmlns="http://www.w3.org/2000/svg" viewBox="0 0 327 377.59"><defs><style>.cls-1{fill:#1e1e1e;stroke:#b8a473;stroke-miterlimit:10;stroke-width:19px;}.cls-2{fill:#b8a473;}</style></defs><g id="Layer_2" data-name="Layer 2"><g id="Layer_1-2" data-name="Layer 1"><polygon class="cls-1" points="317.5 277.7 317.5 99.88 163.5 10.97 9.5 99.88 9.5 277.7 163.5 366.62 317.5 277.7"/><path class="cls-2" d="M271.33,137.91a23.56,23.56,0,0,0-2.24,2.68,156.39,156.39,0,0,1-34.73,39.71c-.34.28-.74.51-1.38.95,1.36-7,2.66-13.66,4.07-20.88l-15.58,7.41q-43.65,20.83-87.3,41.62a3.76,3.76,0,0,0-2.42,3.25c-.72,4.56-1.61,9.09-2.57,13.61a3.57,3.57,0,0,1-1.53,2.29c-13,6.32-26.14,12.53-39.91,19.1,2.05-5.54,3.89-10.48,5.75-15.51-5.41-1.62-6.9-5.81-7.12-10.81a18.29,18.29,0,0,1,0-2.77c.15-1.44-.36-2.07-1.83-2.48-4.49-1.26-8.91-2.74-14-4.34l15.2-7.24c.12,2.63.22,4.9.32,7.18h.37c0-11.1,0-22.21,0-33.31.1-32,.29-64.05.32-96.07,0-9.44-.42-18.87-.68-28.31a7.18,7.18,0,0,1,4.18-6.52c2.54-1,4.46.13,6.2,1.87,2.42,2.42,3.66,4.75,1.92,8.46-3.84,8.15-4.8,16.89-4.78,25.92.11,47.66,0,95.33-.08,143v3.81h.71v-2.8c0-8.33,0-16.66-.07-25a3,3,0,0,1,2.09-3.3c4.64-2.07,9.14-4.43,13.79-6.48a5.18,5.18,0,0,1,3.58,0q5.31,2,10.42,4.52a5,5,0,0,0,4.9-.1q45-21.56,90-43c3.91-1.87,7.83-3.71,12.4-5.88l-18.87-10.1a206.46,206.46,0,0,1,58.85-2.11Z"/><path class="cls-2" d="M74.17,35.16a22.82,22.82,0,0,0,4.07,2.11c1.84.55,2.71,1.32,2.77,3.41.13,4.15.4,8.37,3.84,11.48a1.49,1.49,0,0,1,.35,1c0,6.26,0,12.52,0,19.19-14.36-4.83-25.19-12.3-29.28-27a7.44,7.44,0,0,0-1.21-1.83V39.05c2.27-.93,4.54-1.84,6.78-2.84.25-.11.3-.68.44-1.05Z"/><path class="cls-2" d="M209.68,366.16c-1.65-2.53-3.37-5-5-7.61-5.17-8.46-5.8-17.56-3.56-27,.72-3.05,1.62-6.05,2.56-9.54,4,3.11,7.61,6,11.33,8.86,2.5,1.9,4.46,3.84,5.42,7.2.75,2.58,3.35,4.73,5.4,6.8,1.33,1.35,1.77,2.41,1.11,4.3-2.47,7.11-6.36,12.89-13.63,15.84-.39.16-.61.76-.9,1.15Z"/><path class="cls-2" d="M206.52,310.31c5.78-10.09,11.55-20.08,17.24-30.12,5.83-10.3,11.38-20.73,14.55-32.23,2.62-9.55,3.3-19-2.16-27.87-4.65-7.55-12-11.75-20.07-14.44-3.26-1.07-4.64-2.78-5.47-5.94-1.94-7.39-4.28-14.68-6.51-22.17l18-8.63c1.64,4.92,3.25,9.6,4.75,14.32a3.38,3.38,0,0,0,2.95,2.67c10.93,2.3,20.41,7.16,26.86,16.65,5.4,8,7.58,17,8,26.47a81.24,81.24,0,0,1-4.5,30.54,34.85,34.85,0,0,1-4.73,8c-8,11.24-16.16,22.31-24,33.66a112.75,112.75,0,0,0-7.83,14.33c-1,2.07-2.35,2.33-4.21,2.12C214.33,317.15,210.59,314.21,206.52,310.31Z"/><path class="cls-2" d="M95.63,77.15c-.28-5.39-.43-10.57,3.22-14.89A3.48,3.48,0,0,1,101.52,61c16.9,4.38,34.23,5.18,51.48,5.07,17.72-.12,31.29,8,43.81,19a45.81,45.81,0,0,1,14.45,22.56c2.79,10.34.84,20.17-3.94,29.51-1.07,2.09-1.08,3.56.26,5.47,2.65,3.78,5,7.74,7.74,11.94l-17.82,8.56a17.85,17.85,0,0,1-1.29-1.47c-4.45-6.48-8.94-12.93-13.24-19.5a5.86,5.86,0,0,1-.47-4c1-4.69,2.7-9.26,3.2-14,1.49-13.85-5.23-23.31-17-29.69-9.79-5.29-20.47-7.92-31.3-9.87-11.27-2-22.6-3.7-33.89-5.61C100.9,78.56,98.34,77.8,95.63,77.15Z"/><path class="cls-2" d="M104.08,241.56c4.32-3.54,7.6-2.79,11.72.48,23.52,18.69,47.31,37,71,55.52,6.34,4.94,12.7,9.87,19,14.83,5.87,4.61,12.77,7,19.74,9.15,3.66,1.14,2.89,4.31,3.45,6.78a4.38,4.38,0,0,1-2.59,5.3c-2.41,1-4.88,1.54-7.23-.55-24.19-21.52-50.5-40.41-75.78-60.59-12.65-10.09-25.46-20-38.2-29.93C104.85,242.27,104.53,242,104.08,241.56Z"/></g></g></svg>