<svg xmlns="http://www.w3.org/2000/svg" viewBox="0 0 327 377.59"><defs><style>.cls-1{fill:#1e1e1e;stroke:#b8a473;stroke-miterlimit:10;stroke-width:19px;}.cls-2{fill:#a5a5a5;}</style></defs><g id="Layer_2" data-name="Layer 2"><g id="Layer_1-2" data-name="Layer 1"><polygon class="cls-1" points="317.5 277.7 317.5 99.88 163.5 10.97 9.5 99.88 9.5 277.7 163.5 366.62 317.5 277.7"/><path class="cls-2" d="M112.34,278H38.5V231.56H54.19v30.88c1.23-.62,2.08-1,2.89-1.45a80.47,80.47,0,0,0,19.5-15.93c11.67-12.55,20.94-26.81,29.44-41.61,18.11-31.5,32.05-64.95,45.57-98.57a4,4,0,0,0-.21-2.9C146,91.55,140.58,81.09,134.9,70.8c-2.17-4-3.37-7.48.12-11.18h4.22l17.59,32.07L163,78.87h1.13l6.33,13.39c1.89-3.58,3.43-6.91,5.34-10,4.62-7.5,6.86-16.42,13.58-22.64h1.06c.1.23.13.57.31.7,4.23,3,4.67,4.77,2.24,9.41-5.64,10.71-11.26,21.43-17,32.11a4.37,4.37,0,0,0-.24,4.16c10.3,25.36,20.8,50.64,33.19,75.08,9.69,19.12,20.17,37.78,33.51,54.67,7.88,10,16.57,19.1,27.81,25.4.86.49,1.78.85,3.06,1.45v-31H288.5V278H214.66c-1.72-1.9-3.42-3.82-5.16-5.7-9.22-10-15.77-21.69-21.25-34-10.64-23.95-17.44-49.07-22.59-74.68-.65-3.25-1.26-6.5-1.89-9.75-1.12,4-1.72,8-2.43,11.9-4.46,24.86-10.66,49.23-21.06,72.34-6.58,14.61-14.61,28.24-27.22,38.62C112.7,277,112.57,277.54,112.34,278Z"/></g></g></svg>