<svg xmlns="http://www.w3.org/2000/svg" viewBox="0 0 327 377.59"><defs><style>.cls-1{fill:#1e1e1e;stroke:#b8a473;stroke-miterlimit:10;stroke-width:19px;}.cls-2{fill:#3a2609;}.cls-3{fill:#3c2609;}.cls-4{fill:#3c280d;}.cls-5{fill:#3d2608;}.cls-6{fill:#3f2809;}.cls-7{fill:#402a0e;}.cls-8{fill:#3c280c;}.cls-9{fill:#3d2d15;}.cls-10{fill:#3c2a10;}.cls-11{fill:#432e15;}.cls-12{fill:#452a0e;}.cls-13{fill:#44280c;}.cls-14{fill:#432a0a;}.cls-15{fill:#43270a;}.cls-16{fill:#3e3322;}.cls-17{fill:#3e280b;}.cls-18{fill:#3c270a;}.cls-19{fill:#3e290e;}.cls-20{fill:#412b0e;}.cls-21{fill:#402c11;}.cls-22{fill:#40290d;}.cls-23{fill:#3c290f;}.cls-24{fill:#44270b;}.cls-25{fill:#3c290e;}.cls-26{fill:#402e1a;}.cls-27{fill:#432f16;}.cls-28{fill:#422609;}.cls-29{fill:#472f12;}.cls-30{fill:#3d280b;}.cls-31{fill:#3e2707;}.cls-32{fill:#3e2408;}.cls-33{fill:#3d2509;}.cls-34{fill:#452e10;}.cls-35{fill:#392508;}.cls-36{fill:#442c0f;}.cls-37{fill:#523718;}.cls-38{fill:#422809;}.cls-39{fill:#52422b;}.cls-40{fill:#412e14;}.cls-41{fill:#3a260b;}.cls-42{fill:#625242;}.cls-43{fill:#604026;}.cls-44{fill:#3d2708;}.cls-45{fill:#3b270b;}.cls-46{fill:#472e10;}.cls-47{fill:#41290c;}.cls-48{fill:#3c2606;}.cls-49{fill:#4d3212;}.cls-50{fill:#452c0c;}.cls-51{fill:#3b2609;}.cls-52{fill:#4b3315;}.cls-53{fill:#855e3d;}.cls-54{fill:#593a1d;}.cls-55{fill:#472e11;}.cls-56{fill:#45280b;}.cls-57{fill:#3a260a;}.cls-58{fill:#422c19;}.cls-59{fill:#462c0e;}.cls-60{fill:#3f280a;}.cls-61{fill:#5b3d21;}.cls-62{fill:#75543a;}.cls-63{fill:#43270b;}.cls-64{fill:#3d2607;}.cls-65{fill:#3f2608;}.cls-66{fill:#4b2d10;}.cls-67{fill:#472a0d;}.cls-68{fill:#553a1c;}.cls-69{fill:#3e2709;}.cls-70{fill:#4d2f11;}.cls-71{fill:#3d290e;}.cls-72{fill:#442a0e;}.cls-73{fill:#614423;}.cls-74{fill:#543818;}.cls-75{fill:#52381b;}.cls-76{fill:#614428;}.cls-77{fill:#432a09;}.cls-78{fill:#845d3d;}.cls-79{fill:#46290c;}.cls-80{fill:#5e4027;}.cls-81{fill:#6c4926;}.cls-82{fill:#4d3317;}.cls-83{fill:#7c5636;}.cls-84{fill:#583a19;}.cls-85{fill:#573719;}.cls-86{fill:#4f3113;}.cls-87{fill:#5d3d23;}.cls-88{fill:#564431;}.cls-89{fill:#593e24;}.cls-90{fill:#462d0c;}.cls-91{fill:#4c2d10;}.cls-92{fill:#7f5b3a;}.cls-93{fill:#3f2706;}.cls-94{fill:#85603e;}.cls-95{fill:#593a1a;}.cls-96{fill:#775333;}.cls-97{fill:#4a3116;}.cls-98{fill:#4b3214;}.cls-99{fill:#73502f;}.cls-100{fill:#442b0b;}.cls-101{fill:#88603f;}.cls-102{fill:#7c583a;}.cls-103{fill:#7b5734;}.cls-104{fill:#5e3f27;}.cls-105{fill:#402c12;}.cls-106{fill:#584537;}.cls-107{fill:#6a5e50;}.cls-108{fill:#625443;}.cls-109{fill:#432609;}.cls-110{fill:#3d280c;}.cls-111{fill:#4a3014;}.cls-112{fill:#795536;}.cls-113{fill:#45290d;}.cls-114{fill:#452d10;}.cls-115{fill:#6c4b2f;}.cls-116{fill:#503515;}.cls-117{fill:#704f2e;}.cls-118{fill:#5f4023;}.cls-119{fill:#422b0e;}.cls-120{fill:#492d10;}.cls-121{fill:#4c2f11;}.cls-122{fill:#866240;}.cls-123{fill:#865f3e;}.cls-124{fill:#624128;}.cls-125{fill:#7f5938;}.cls-126{fill:#4e3114;}.cls-127{fill:#603f26;}.cls-128{fill:#53361d;}.cls-129{fill:#594028;}.cls-130{fill:#5c3f24;}.cls-131{fill:#574536;}.cls-132{fill:#815a39;}.cls-133{fill:#422508;}.cls-134{fill:#785437;}.cls-135{fill:#452b0b;}.cls-136{fill:#5d3c1e;}.cls-137{fill:#795635;}.cls-138{fill:#674627;}.cls-139{fill:#432a10;}.cls-140{fill:#7f5a3a;}.cls-141{fill:#4e3922;}.cls-142{fill:#765a45;}.cls-143{fill:#664728;}.cls-144{fill:#765132;}.cls-145{fill:#7d5939;}.cls-146{fill:#604027;}.cls-147{fill:#704c2d;}.cls-148{fill:#7f5a3b;}.cls-149{fill:#886341;}.cls-150{fill:#896140;}.cls-151{fill:#482b0e;}.cls-152{fill:#5d3e25;}.cls-153{fill:#483013;}.cls-154{fill:#684829;}.cls-155{fill:#6b4b2f;}.cls-156{fill:#523819;}.cls-157{fill:#3d3221;}.cls-158{fill:#735030;}.cls-159{fill:#8b6342;}.cls-160{fill:#825b3c;}.cls-161{fill:#462d12;}.cls-162{fill:#57473a;}.cls-163{fill:#58391e;}.cls-164{fill:#785431;}.cls-165{fill:#7a5a3a;}.cls-166{fill:#6f4e2f;}.cls-167{fill:#825c40;}.cls-168{fill:#6c4c2c;}.cls-169{fill:#7f593a;}.cls-170{fill:#5d3f26;}.cls-171{fill:#775231;}.cls-172{fill:#886245;}.cls-173{fill:#9b7551;}.cls-174{fill:#8a6645;}.cls-175{fill:#5d4026;}.cls-176{fill:#5d3d21;}.cls-177{fill:#805d40;}.cls-178{fill:#6c4d2e;}.cls-179{fill:#785434;}.cls-180{fill:#b58d64;}</style></defs><g id="Layer_2" data-name="Layer 2"><g id="Layer_1-2" data-name="Layer 1"><polygon class="cls-1" points="317.5 277.7 317.5 99.88 163.5 10.97 9.5 99.88 9.5 277.7 163.5 366.62 317.5 277.7"/><path class="cls-2" d="M119.86,75.69c6.55,8,10.23,18.17,19.07,24.33,5.77,6.69,5.77,6.88-2.47,9-3.73,1-7.12,2.26-9.55,5.41-4.27,5.73-4.06,12.44-4.09,19-.12,30.2,0,60.4-.1,90.59,0,3.63,1.21,7.62-1.9,10.78-6.51,3.47-9.07,1-9.42-5.84-.6-11.58,1.63-23.34-2.11-34.71-2.75-3.28-2.26-7.55-3.41-11.33.21-5.11,4.13-8.94,4.73-14,.72-6-.21-10.66-7.63-10.93-7.56.46-8.68-7-13-10.53-5.46-6.42-.65-12.71.21-19,2.65-5.38,8.48-9.23,8-16.2.26-4.39,3.22-8.07,3.32-12.51l.27-2.84c.2-2.31.19-4.69,1.94-6.54,2.34-4,10.47-2,9.55-9.31a13.74,13.74,0,0,1,.54-2.7C115.2,76.25,118.06,77.14,119.86,75.69Z"/><path class="cls-3" d="M283.11,98.66c-.7,2.42-1.39,4.84-2.09,7.27-4.8,7.45-12,11.69-19.92,15.09-1.91-.13-3.83.92-5.75,0-2.79-3-1-5,1.48-6.77a89.59,89.59,0,0,0,7.26-5.73c1-.92,2.05-1.79,3.06-2.7,3.7-2.51,5.25-6.44,6.8-10.35,2.1-4.46,3.93-8.94-1-12.87-14.56-15.35-31-16.14-45.79-2.18-3.86,2.46-6.09,5.6-5.8,10.53.17,2.81,1,6.32-2.73,8-2.08.68-4,.68-5.7-1-3.65-8.41,1.33-15.1,4.41-22.17,8.66-15.91,32.76-29.22,54.27-18a36.38,36.38,0,0,1,13.93,17C289.19,83.51,288.22,91.16,283.11,98.66Z"/><path class="cls-4" d="M8,248.25C1.47,240.39-.06,218.51,5.33,210c2.91-4.58,7.09-7.21,12.43-7.37,7.06-.22,11.4-3.95,15.07-9.6,10.41-16,23.54-30.17,32.3-47.31C74.42,137.22,79,127.07,78.66,114c-.3-14-1.93-28.28,1.44-42.25,8.56,3.77,3.6,11.27,3.75,16.62.49,16.9.17,33.83.36,50.73.25,3-1.17,5.6-2.63,7.82-11.19,17-22.15,34.22-35.35,49.85-3.11.82-6.74-.39-9.21,3.06-4.62,6.47-10.45,10.73-19.06,8.7-2.28.55-4.07,2.18-6.3,2.86C7.21,221.8,4.5,232.2,10.12,243.16,10.86,244.61,12,247.93,8,248.25Z"/><path class="cls-5" d="M78.32,141.93c-2.7-7,2.31-13.12,2-20.06-.69-16.68-.23-33.4-.24-50.1,13.74-3.62,27-2.78,39.76,3.92l-3.73,3.69c-5.35,5.32-12.84,1.71-18.78,4.47a6,6,0,0,0-1.49,2.36c-6.66,4.09-5.26,10.5-4.72,16.64.33,3.77,2.8,6.89,3.33,10.63,1,4.3,2.62,8.72-2.42,11.77-4.28,4.74-1.64,12.81-7.87,16.62C82.25,142.94,80.29,142.28,78.32,141.93Z"/><path class="cls-6" d="M121.77,107.63c3.72-.63,7.43-1.37,11.17-1.85,3.52-.45,6.13-1.61,6-5.76,6,1.75,7.65,7.66,11.34,11.62,7.75,4.21,4.59,11.14,4.35,17.34a6.34,6.34,0,0,1-3.32,2.88c-.29,0-.76.16-.89,0-6.33-7.34-12.29-5.89-18.08.62-2,.17-3.61-1.14-5.47-1.39-4.3-5.51-1.54-11.75-1.87-17.65-.13-.33-.16-.7-.28-1C123.9,110.72,121.83,109.76,121.77,107.63Z"/><path class="cls-7" d="M218.49,75.6c-2.68,6.72-5.79,13.33-5.6,20.83,2.71,2.68,4.38,6,3.2,9.65-1.45,4.53-4.91,4.08-8.77,2.9-2.77-.84-5,.79-6.71,3.19-2.34,3.24-4.52,6.69-8.17,8.73-4.08,2.51-9.21,4-5.46,11.09,1,1.9,0,8.66-6.56,6.14-1.4-15.95,9.23-31.32,25.6-36,4.77-1.36,4.84-4.46,4.84-7.85a34.35,34.35,0,0,1,5.58-18.8C217.16,74.73,217.85,74.72,218.49,75.6Z"/><path class="cls-8" d="M180.42,138.13c4.84-5.4-.77-15.06,7.75-18.95,2.45.38,2.72,2.37,3.14,4.25.47,3.42,3.08,6.09,3.42,9.57,1.67,6.57-2.68,10.41-6.57,14.47-2.45,2.29-4.78,4.73-8,6-3.25-.91-7-.25-9.71-2.86a4.1,4.1,0,0,1,.5-3.29A24.09,24.09,0,0,1,180.42,138.13Z"/><path class="cls-9" d="M218.49,75.6l-2-.09c12.23-21.48,37.49-29,57.16-17-.64.91-1.33.95-2.07.13C249.48,50.61,232.28,57.78,218.49,75.6Z"/><path class="cls-10" d="M271.54,58.62l2.07-.13c15.43,10.71,19.56,28.2,9.5,40.17C289.54,82.35,284.06,69.46,271.54,58.62Z"/><path class="cls-11" d="M262.09,119.18,281,105.92c0,1.23,0,2.45,0,3.67-8.32,7.19-16.8,14.08-28.33,15.36l-1.39-.63a2.94,2.94,0,0,1-.24-2.87C254,117.18,258.86,122.15,262.09,119.18Z"/><path class="cls-12" d="M171,147.32l.18,2.2c-.67,7.3-5,9.4-11.63,5.78-3.26-1.79-5.12-5-8-7.14-6.23-8.85-6.2-9.12,1.19-11.36l1.41,1.41C160.17,150.41,162.19,151.51,171,147.32Z"/><path class="cls-13" d="M154,128.68a31.39,31.39,0,0,0-3.72-17c11.66,7.35,4.67,17.41,3.86,26.57l-.19-.19C148.63,134.88,150.84,131.78,154,128.68Z"/><path class="cls-14" d="M305.33,221.1c.13.75.25,1.51.38,2.27,2.07,1.35,5.22,1.29,5.88,4.48a5.62,5.62,0,0,1-.1,4.58c-5.25,7.08-9.8,14-20.94,13.16-9.5-.68-12.24-7.8-17.33-13-1.26-2.37-2.29-4.7-5.84-4.54-2.59.11-4.76-1.26-4.27-4.57,0-2.45,1.45-4.09,3.14-5.59a10.62,10.62,0,0,0,1.34-2.09,15.78,15.78,0,0,1,1.68-2c3.18-2.36.32-6.25,2.27-8.92,1.51-3.6-2.06-9.54,4.9-10.62,7.33-1.06,13.33,4.68,20.87,3.89,2.52-.26,3.79,4.06,3.77,7.47,0,2.78-1,6.09,2.09,8.18C305.47,215.81,304.18,218.82,305.33,221.1Z"/><path class="cls-15" d="M212.5,299.34,209,295.39c-1.26-2-2.89-3.82-4.23-5.8s-2.93-4-2-6.67a5.42,5.42,0,0,1,2.87-3,10.54,10.54,0,0,1,4-.59c3.9,1,7.4-.78,11-1.74,3.16-2.55,2.36-6.16,2.65-9.47.24-2.9-1-6.47,3.24-7.69,3.26-1.21,5.84-.73,7.15,2.87s1.28,8.13,6.6,8.59c5.69.53,9.63,3.29,11.33,8.9,1.65,3.28,5.36,3.75,7.7,5.88,2.92,3.7,2.43,7.65,1,11.71a16.73,16.73,0,0,1-6.8,4.41c-3.43-.23-6.86-.64-10.28-.89-3-.4-3.74-4.12-6.71-4.59-3,.71-3.91,4.65-7.35,4.66-4.07,0-8.16.67-12.15-.69A32.85,32.85,0,0,1,212.5,299.34Z"/><path class="cls-16" d="M121.76,289.7c-12,22.32-39.22,28.08-58.6,12-5.5-4.57-11-7.69-18.19-9-16.63-3.15-33.23-22.3-31.31-38.8a2.73,2.73,0,0,1,2.16-2.19,12.07,12.07,0,0,1,3.31.87c4.29,3.11,4,7.93,4.86,12.32,1.44,3.71,3.73,7,5,10.68,2,5.67,6.49,7.39,11.71,8.3,4.37,1.92,8.49,3.94,13.64,4,4.64,0,8.39,3.38,11.64,6.85,9.74,10.43,27.59,13.18,38.63,5.5,3.76-2.62,4.55-8.08,8.07-11.32C116,286.41,118.88,288,121.76,289.7Z"/><path class="cls-17" d="M252.61,301.1l5.7-1.92c2.87-8.38,7.29-16,11.83-23.52,1.56-2.58,3.12-7.35,8-3.73a2.8,2.8,0,0,1-.83,2.8c-5.4,12-10.43,24.17-23.73,30.26-14.22,6.51-29.14,4.77-41.1-5.65l4.09-.13C228.44,303,240.55,301.68,252.61,301.1Z"/><path class="cls-18" d="M15.67,253.72l-2,.14L8,248.25A58,58,0,0,1,4.5,222.58c.52-5.81,2-11,7.36-14.34,2.37-1.05,4-.49,4.59,2.17.11,1,.2,2,.29,3.07.27,2.53,1.36,5.05.16,7.59-2,2.69-.76,5.73-.69,8.61-1.34,6.81,1.67,12,5.87,16.74C22.7,251.33,20.36,253.51,15.67,253.72Z"/><path class="cls-19" d="M121.76,289.7l-5.63,3.8c-8-4.75,2.58-8.23.85-12.56a9.09,9.09,0,0,1,1.41-3.14c3.54-6.28,8.64-8.59,16-8.16,11.49.68,23,.2,34.57.21,7,.64,11.58,3.62,11.2,11.47l-1.61,1c-14.68-12.7-31.93-7.34-48.24-6.07C124.35,276.68,123.9,284.64,121.76,289.7Z"/><path class="cls-20" d="M264,164.61l9.32-1.77c6.39,2.16,11.61,5.88,11,13.21-1,11.9,3.81,18.18,15.76,18.91-.19.53-.38,1.06-.58,1.57-3.25,1.1-6.55.69-9.92.73-7.18.08-10.62-2.46-9.25-9.72,2.58-13.68-7.35-16.38-16.83-19.58A2.93,2.93,0,0,1,264,164.61Z"/><path class="cls-21" d="M277.34,274.73l0-2c1.38-4.38,5.11-2.68,7.89-2.81,7.17-.33,14.39,0,21.32-2.36,5.11-.63,7.27-7,12.86-6.7a3.75,3.75,0,0,1,1.6,2.42c-2.57,8-8.54,11.21-16.45,11.35C295.47,274.77,286.4,274.69,277.34,274.73Z"/><path class="cls-22" d="M207.11,289.75q1,2.82,1.9,5.64c-5.63-3.91-12.61-3.35-18.73-5.65-4.45-1.66-8.65-3.63-11.69-7.47l.21-.19c3.66-4.58,6.61.53,9.89.86C195.34,283.61,201.2,286.86,207.11,289.75Z"/><path class="cls-23" d="M321,263.25l-2-.05c-2.21-5.95-1-12.18-1-18.22,0-5.32-6.56-9.4-2.44-15.16l1.66-.81C325.5,239.63,323.08,251.46,321,263.25Z"/><path class="cls-24" d="M305.33,221.1q-.79-2.65-1.58-5.29c-4.14-6.36-2.88-13.7-3.8-20.65l.09-.2C308.58,202.3,304.72,212.15,305.33,221.1Z"/><path class="cls-23" d="M309.49,227.21l-3.78-3.84A22.14,22.14,0,0,1,317.13,229l-.18.2C313.17,233.36,311.32,230.3,309.49,227.21Z"/><path class="cls-25" d="M237.56,134.27c1.67,4.32-.54,7.13-3.7,9.58-2,4.3,2.24,6.3,3.47,9.41l.11.15c3.32,5.54,6.74,11,9.51,16.89h0c2.94,4,7.9,7,6.82,13.12a7.93,7.93,0,0,1-4.46,1.22c-3,.38-4.37-2-6.07-3.8a30.69,30.69,0,0,1-2.73-3.6,35.37,35.37,0,0,0-5.73-8.87c-.48-.7-1-1.35-1.49-2a24.25,24.25,0,0,1-.91-2.32,50.07,50.07,0,0,0-3.67-6.45c-.83-.94-1.27-2.19-2.28-3-2.11-2.05-5.09-3.48-5-7.08,1.18-6.47-2.39-13.65,2.93-19.5,1.52-2.93,4-2.35,6.49-1.82C233.5,128.54,235.29,131.61,237.56,134.27Z"/><path class="cls-26" d="M252.63,181.71Q249.8,176,247,170.3c5.08,4.36,10.21,9.74,12.9-2.05.33-1.45,2.68-2.44,4.09-3.64,0,.64,0,1.29,0,1.93.74,5.29-1.13,10.32-1.62,15.48-.34,3.66-2.79,5.56-6.16,5.38C253,187.22,251.05,185.35,252.63,181.71Z"/><path class="cls-11" d="M237.56,134.27l-5.89-5.63c-6-6.19-.59-7,3.84-8.38,5.76,1,12.08,0,17,4.46l.19.23c-3.33.56-6.64,1.47-10,1.62C237.13,126.81,235.47,129.18,237.56,134.27Z"/><path class="cls-27" d="M247,170.3a44.72,44.72,0,0,1-9.51-16.89A32.38,32.38,0,0,1,247,170.3Z"/><path class="cls-27" d="M237.33,153.26c-3-2.45-5.26-5.18-3.47-9.41Q235.6,148.56,237.33,153.26Z"/><path class="cls-28" d="M114.22,189.31c0,10.86,0,21.72.11,32.58,0,4.49.54,8.79,5.39,10.92a141.7,141.7,0,0,0,21.19,3.4,4.1,4.1,0,0,1,2.54,3.53,10,10,0,0,1-.19,2.94c-4.86,5.31-12.72.39-17.7,5.2-.5.64-1,1.26-1.47,1.94-1.7,3-1,6.5-1.72,9.69a8.3,8.3,0,0,1-2.49,2.87c-6.63,5.73-4,13.6-4.81,20.71-.14,1-.31,2-.48,3-3.14,2.62-5.76,6.69-10.84,3.95-2-1.87-2.65-4.44-3.53-6.89.12-4.87,1.61-9.59,1.49-14.48-.35-4.11,1.07-9-4.74-10.7a2.79,2.79,0,0,1-1.56-2c-7.34-10-8.72-9.95-15.59.33A3.38,3.38,0,0,1,78,258.1c-5.75,2.19-3.89,7.35-4.49,11.55,0,5.11-.09,10.21,0,15.3.35,1.82-.49,3.26-1.49,4.67-6.66,4-7.14-3.55-10.57-5.57a6.2,6.2,0,0,1-1.12-3.1c-.31-5.82.13-11.67-.39-17.48-4.7-4.71-5.37-10.6-4.92-16.8-2.86-5.27-8.24-9.61-6.16-16.71A41,41,0,0,1,52,214.25c2.48-1.31,5-2.49,7.58-3.59,3.55-1.6,5.07,1.27,7,3.15,1.72,2.59.53,4.8-.88,7-.55,1.46-2,2.76-.6,4.43,6.47-1.84,7.16-8,10-12.48,3.08-4.94,7.8-6.73,13.31-7.06,3.58,1.61,7.25,3.13,8.65,7.21,0-.15.11.05.12-.12,4.32-3.14,7.49,0,10.85,1.72,3.12-6,.55-12.39,1.48-18.46.43-2.79-1.81-6.46,2.42-8.15A5,5,0,0,1,114.22,189.31Z"/><path class="cls-29" d="M138.85,238.53c-6.78-.57-14.52,2.09-19.13-5.72q.07-54.21.17-108.43c0-5.64-.31-11.34,1.88-16.75,4.39.17,8.83.05,13.18.62,2.94.38,5,2,1.77,5a6.76,6.76,0,0,0-2.1-1.45c-3.66.17-7.71-1.87-10.68,2.18,1.22,32.32.58,64.67.71,97,0,4.65,1.08,8.55,4.85,11.3a1.84,1.84,0,0,0,2.38-.36c2.07-1.14,3.82-2.45,3.78-5-.36-24.29,2.82-48.68-2.22-72.76-3.49-1.91-9-1.16-9.57-7-.16-5.16-.15-10.31,0-15.47.29-10.73,2-11.91,12.9-8.45-7.45,2.59-9.89,8.07-8.92,15.5,1.54,2,3.49,4.22,5.77,4.33,9.65.46,12.68,5.69,11.52,14.49a147.23,147.23,0,0,1,0,17.45,59.14,59.14,0,0,1-1.12,17.56c-1.16,14.68,1,29.37.2,44.1-.08,1.62-1.45,3.23-.5,4.92C144.05,235.27,142.78,237.83,138.85,238.53Z"/><path class="cls-30" d="M114.22,189.31l-1.46-.09c-5,7.83-1,16.48-2.27,24.66-.86,5.65,2,11.68-1.74,17-2.78-2.3-3.62-5.56-4.41-8.86-1.15-4.77-4.84-5.91-9.06-6.23h0c-3.55-1.85-6.62-4.15-7.84-8.21-5.93-5.23-1.51-8.2,2.44-11.27,4.9-3.4,7.8-8.41,10.68-13.43,1.62-2,3.3-3.89,6.26-3.48a3.18,3.18,0,0,1,1.76,2.39A13.24,13.24,0,0,1,114.22,189.31Z"/><path class="cls-31" d="M93.35,147.6l11.38,7.57c3.65,2.38.44,5.36.68,8-1.1,2.22-3.09,3.72-4.59,5.6-4.52,3-6.89,7.71-9.54,12.18a4.59,4.59,0,0,1-4,1.28c-6.47-3.44-4-12-9.31-16.15-.48-1-.92-1.91-1.38-2.89-2-8.07,5.34-11.51,8.41-17.11C88.29,143.88,90.7,146.43,93.35,147.6Z"/><path class="cls-32" d="M104.78,100.29l-1.92,13.2c-3.93,2.86-7.92,6.23-10.52-1.35-2.68-5.93-2-12-1-18.14a5.8,5.8,0,0,1,6.37-2.24C103,92.21,101.26,98.42,104.78,100.29Z"/><path class="cls-33" d="M114.64,125.23c-2,5.26,2.77,14.19-4.4,14.55-5,.24-3.7-9-3.36-14,.39-5.71-3.39-15.76,3.94-16C116.8,109.68,112.63,120.09,114.64,125.23Z"/><path class="cls-33" d="M93.38,111.6l9.48,1.89c-1.54,5.59-1.66,12.18-9.48,13.27-2.31,1.41-3.63.87-3.79-1.92a39.8,39.8,0,0,0,1.9-13.22l.94-.93Z"/><path class="cls-29" d="M102.81,162.59l1.92-7.42c5.33-5.9,8.54-4.26,9.34,3,.93,8.43.8,16.81-5.49,23.66l-2.21-.25c-1.79-1.61-2.12-4-3.36-5.94-.45-3.71,3.72-5.59,3.6-9.11,0,0-.76-.53-.8-.47a6,6,0,0,1-2.55-1.45A6.72,6.72,0,0,1,102.81,162.59Z"/><path class="cls-34" d="M104.78,100.29A8.59,8.59,0,0,1,99,94.53c-5.74-10.38-3.88-14.17,7.1-14.15,3.34,0,6.8-.8,10,.86,3.92,9.19,2.69,10.65-9.54,11.33a7.29,7.29,0,0,0-1.5-1.13,5.89,5.89,0,0,0-.94,0c-1.89,2.5-1.77,4.79.61,6.89Z"/><path class="cls-35" d="M116.12,81.24c-15.75.27-16.16.59-17.11,13.29H93.39c-4.24-5-4-10.1,0-15.16h22.76C116.13,80,116.13,80.62,116.12,81.24Z"/><path class="cls-36" d="M89.59,124.84l3.79,1.92,0,20.84-3.76,3.8a4,4,0,0,1-2.36,1c-2-.42-4.08-2-3.29-3.5,2.65-5.13-.18-7.82-3.68-10.51A30,30,0,0,1,89.59,124.84Z"/><path class="cls-37" d="M106.73,90.93c0,.55-.09,1.09-.15,1.64l-1.83,5.76c-4.64-5.69-5.66-10.92,1.92-15C110,85.8,106.24,88.38,106.73,90.93Z"/><path class="cls-38" d="M237.47,123a11,11,0,0,0-5.8,5.65l-5.59,1.91c-8.2,5.44-12.28-1.42-17.2-5.74-6-4.4-11.84-7.39-17.37.79-.75,1.1-2.29,0-3.33-.7,0-1.91,0-3.82,0-5.72,5.74-5.58,10.76-12,19.26-13.92,4.32-1,5.07-5,5.46-8.83l5.54,0c2.33,0,4.67,0,6.53,1.8,6.07,4.61,13.23,4.75,20.37,5,2,.38,3.78,1.08,4.2,3.41.27,3.91-4,4.37-5.3,7.08-1.22,2.2,0,4.51-.25,6.77a3.76,3.76,0,0,1-2.37,3.11C240.14,124,238.72,124.11,237.47,123Z"/><path class="cls-10" d="M226.06,77.47c8.55-11.76,20.67-14.18,34.12-12.87,8.93.88,12.08,7.89,15.22,14.82,1.24,1.29,2.26,2.67,1.72,4.62a3.51,3.51,0,0,1-2.72,1.76,9.31,9.31,0,0,1-3.24-.26c-2.15-1-2.45-3.14-3.15-5-.95-4.69-4.17-6.92-8.57-8-8.06-2-18.12,1.24-22.16,7.2A6.25,6.25,0,0,1,235.14,82c-3,1-5-1.56-7.6-2A2.77,2.77,0,0,1,226.06,77.47Z"/><path class="cls-39" d="M273.86,83.27c.5,0,1-.06,1.5-.13,2.51-1.91,4.28-1,4.57,1.79.48,4.66.87,9.46-2.63,13.4-2,3.66-4.21,7.11-7.84,9.4a3.08,3.08,0,0,1-3.88-.69c-.82-1.86-.25-3.58.51-5.28,1.44-2.78.58-5.82,1-8.73C268.84,89.45,270.24,85.58,273.86,83.27Z"/><path class="cls-11" d="M241.28,119.27c-2.79-.68-6.64-.19-7.11-4-.38-3.16,2.89-3.17,5.11-3.81l1.09.17,1,.35c.72.27,1.44.53,2.18.75,6.16,1.74,11.07-1.62,16.22-4a15.5,15.5,0,0,1,2.28-1.2c2.2.11,4.39.24,5.74,2.38-2.63,4.55-7.66,6.13-11.43,9.27C251.38,121.59,246.35,124.16,241.28,119.27Z"/><path class="cls-40" d="M226.06,77.47l2.16.12c5,5.43,3.73,10.79-.91,15.37a13.34,13.34,0,0,0-3.78,7l-1.34.47-3.76-4C218.53,89.11,218.56,81.78,226.06,77.47Z"/><path class="cls-41" d="M241.28,119.27l15.13-.09h5.68l-9.47,3.8a15,15,0,0,1-11.37,0Z"/><path class="cls-11" d="M277.3,98.33c1.15-5.29,3.44-10.73-1.94-15.19,0-1.24,0-2.48,0-3.72C283.24,85,281.93,91.5,277.3,98.33Z"/><path class="cls-42" d="M267.84,109.91l-5.56,2c-2.36-5.72,0-7.19,5.38-6l1.8,1.84Z"/><path class="cls-43" d="M80.26,138.37c3.67-1.21,5.78-8.18,9.53-5.3s1.37,8.67-.13,13.11c-.59,1.76-1.42,3.45-2.14,5.16A21.27,21.27,0,0,1,80,162c.49,13.43-10.48,19.88-17.28,28.92a22.09,22.09,0,0,1-1.24,2.7c-2.69,3.9-2.12,9.18-5.57,12.71-3.21.46-5.85,2.86-8.48,3.51-3.9,1-9.08.75-12.24-2.79s.86-6.18,2.22-9.08c1.09-2.68,3.2-4.53,5.27-6.42l1.63-.2c12.5-15.69,24.22-31.91,34.06-49.43Z"/><path class="cls-44" d="M17.58,204.47c8.68.65,14.59-3.36,19.23-10.48,1.25-1.91,2.51-9.06,7.45-2.63l0-.15c-1.74,2.68-4.41,4.66-5.79,7.62-1.78,3.27-5.76,6.61.8,9.28,3.71,1.5,2.23,4.37,1.31,7-2.11,2.21-5.2,2.62-7.68,4.15-1.32.68-2.66,1.33-4,2-2.13-.07-3.61-1.53-5.34-2.46C20.2,217.1,18.58,214,16.93,211,15.72,208.68,15,206.43,17.58,204.47Z"/><path class="cls-45" d="M17.58,204.47,19.44,210l-.29,1.26c-1.38,2.53-3.23,2.4-5.31.92l-2-4Z"/><path class="cls-46" d="M91.49,111.62c-5.41-6.69-5.42-23.33,0-32.22a109.14,109.14,0,0,1,0,32.18Z"/><path class="cls-47" d="M91.47,111.58q0-16.1,0-32.18l1.91,0q0,7.59,0,15.16,0,8.53,0,17.06Z"/><path class="cls-48" d="M140.94,147.53c-.05-5.77-2.17-10-8.17-11.74-3.3-1-4.63-3.76-4.94-7.06l5.2,0c3.82-.68,7.1-3.89,11.37-2.41,1.27.41,2.62.23,3.89.6a17,17,0,0,1,2,1.74l3.74,0c0,3.12,0,6.23-.05,9.34-2.27,2.61-1.39,5.16.13,7.7C151.28,152.05,147.24,152.61,140.94,147.53Z"/><path class="cls-13" d="M150.25,128.64h-2c-1.38-.14-2,.46-1.79,1.84-4.83,2.18-9.33,1.82-13.4-1.76.46-5.22,2.33-9.18,8.46-9.09C147.38,119.7,149.69,123.35,150.25,128.64Z"/><path class="cls-43" d="M179.11,147.75l5.32-3.8c5-7.39,10.3-3.75,14.88.11,4.89,4.13,4.75,10.12-.17,14.62-1.81,1.66-3.31,3.56-5.36,5a22.9,22.9,0,0,0-10,9.29c-8.07.53-12.19-4.71-15.57-11-3.53-6.94,4.82-6.64,6.39-10.47A21.68,21.68,0,0,1,179.11,147.75Z"/><path class="cls-28" d="M179.11,147.75l-1.93,3.79c-3.91,1.92-4.61,6.18-6.82,9.34.21,4.9,6.57,6.35,6.41,11.46a4,4,0,0,1-3.16,2.55c-3.76-.17-7.45-.54-10.45-3.4-.63-2.34-2.55-3.83-4-5.57-1.11-1-1.93-2.68-3.89-1.54-2.29,1.24-3.58,3.92-6.38,4.33-3.7.74-5.75-1.8-8-4q0-8.58.05-17.16c4.48.1,8.91-.08,13.13-1.81,4.91,4.77,9.66,10.29,17.07,3.8Z"/><path class="cls-49" d="M188.18,124.9c1.84-2.11,3.56-4.33,5.53-6.31,7.59-7.65,11.48-7.5,19.21.59a5.21,5.21,0,0,1,1.31,2.29c-.89,3.82-3.58,3.22-6.58,3.14-5.86-.15-6.12,3.32-3.76,7.44,2.05,3.56,5.37,6.12,8.11,9.13,3.18,3.51,3.19,6.59-.8,9.43a16,16,0,0,1-2.49,1.55c-2.38.12-3.76-1.47-5.17-3-4.31-5.25-9.51-9.91-11.63-16.7A13,13,0,0,1,188.18,124.9Z"/><path class="cls-50" d="M191.91,132.47a61.58,61.58,0,0,1,13.31,13.27c.94,9.94-6.74,13.35-13.33,17.55a3.08,3.08,0,0,1-1.87-2.43c.77-1,1.59-2,2.3-3,2.17-3.18,6.82-5.73,3.74-10.5-2.73-4.22-6.9-5.16-11.63-3.42Z"/><path class="cls-25" d="M241.25,123l11.37,0c0,.58-.08,1.16-.14,1.75-5.09.12-10.17.22-15-1.74Z"/><path class="cls-15" d="M252.63,181.71c5,3,5.82-1.12,6.83-4.22,1.23-3.78,2-7.7,4.52-11,15.76.57,17.82,2.09,18.88,17.94.82,12.26,9.55,10.11,17.09,10.68a40.4,40.4,0,0,1,3.8,20.65c-1.23-.91-3.37-1.67-3.55-2.76-2.21-13.22-13.43-13.43-22.92-16.18-9.49-.18-4.47-7.35-5.75-11.39-.18.18-.08.24,0,.33,0,6.55,1.32,13.26-3.24,18.92-.8,1.72-2.35,2.08-4,2.35-3,0-4.42-2.49-6.48-4-2.06-3.36-3.85-7-6.35-10.17-.59-.79-1.11-1.6-1.64-2.42-.75-2.83-4.34-5.32-1.18-8.69Z"/><path class="cls-51" d="M265.92,221.49c2.6,3.57,7.89,4.39,9.33,9.14.06,3.93-3,3-5.19,3.26-3.81.54-7.84.4-10.67,3.6.26,2.63,2.36,4.81,1.74,7.62.26,3.48-.42,6.24-4.71,6.32-2.82.48-5.6,1.13-8.41,1.66-8.35,1-12-2.79-11.18-11,.68-7.56-5.58-5.62-9.51-6.88-2.18-1.24-5.59-.53-6.64-3.92.89-2.2-1.09-4.93.94-7,9.44-9.16,20.72-5.12,31.47-4.43,4.11.57,8.28-3,12.42.15C265.66,220.46,265.79,221,265.92,221.49Z"/><path class="cls-52" d="M248.8,236.79c-2.81-5.94,2.35-5.34,5.11-5.55,7.09-.55,14.23-.45,21.35-.61,2.71,1.07,4.48,3.1,6.28,5.35,6.72,8.39,15,8.45,21.67.14,1.81-2.24,3.5-4.35,6.32-5.26.62,0,1.42-.34,1.84-.07,9.42,6,6.17,15.77,6.6,24.1.33,6.42-1.88,12.72-9.88,14.12-11.12,1.07-22.21,1.65-33.3-.13a4.44,4.44,0,0,1-1.7-3.22,3.54,3.54,0,0,1,1.83-2.84c8.55-3.82,18.5-.82,26.85-5.49,3.59-2.37,5.29-5.76,5.58-10.33-4.18-.86-6,3.37-9.78,4-9.58,1.52-17.43-2-23.22-8.15-6.71-7.11-13.62-7.33-21.79-5C251.26,237.6,249.89,237.72,248.8,236.79Z"/><path class="cls-53" d="M288.38,218.89c0-3.13-.13-6.27,0-9.4.13-2.54.62-5.38,3.85-5.51s4,2.65,4.1,5.22q.22,10.34,0,20.68c0,2.65-.93,5.19-4.3,5-2.73-.17-3.54-2.38-3.62-4.69-.14-3.75,0-7.52,0-11.28Z"/><path class="cls-17" d="M307.7,267.37c9.87-7.45,10.79-25.88,1.83-36.51,0-1.22,0-2.44,0-3.65l7.46,2c2.8,11.2,6,22.38,2,34-2.32,3.56-5.22,6.41-9.45,7.59-.78-.86-2.27-.44-2.87-1.6A1.86,1.86,0,0,1,307.7,267.37Z"/><path class="cls-20" d="M275.33,172.21c3,8,1.56,16.42,1.95,24.66l-1.92,11.36c-5.18,4.23-6.59.58-7.75-3.67a11.48,11.48,0,0,1,.76-3.25c5.9-5.85,2.05-13.4,3.35-20.07.58-2.93-1.21-6.2.82-9.1A2,2,0,0,1,275.33,172.21Z"/><path class="cls-24" d="M269.49,202.77a11.69,11.69,0,0,0,5.87,5.46,14.25,14.25,0,0,1-3.89,7.62c-4.93,2.51-5.9-2.25-8.23-4.51-1-2.32-3.15-4.66.3-6.76l2.35-2C267.17,201.31,268.39,201.07,269.49,202.77Z"/><path class="cls-54" d="M265.82,210.22l5.65,5.63c0,.62.11,1.25.18,1.87,1.3,1.93,2,3.83-.17,5.65l-5.57-1.88,0,0c-2.45-2.29-6.67-3.14-6.26-7.74C260.82,210.92,263,210,265.82,210.22Z"/><path class="cls-55" d="M271.48,223.37c.06-1.88.11-3.76.17-5.65C273.39,219.66,273.86,221.56,271.48,223.37Z"/><path class="cls-14" d="M241.25,238.55c2,4.15,2.09,9.5,7.52,11.35,6.19,6.77,1.92,14.92,2.68,22.38.39,3.83,2.49,9-2.79,11.8-2.14-5-5.91-7.67-11.41-7.75a10,10,0,0,1-1.74-5.22,9.1,9.1,0,0,0-2.08-2.5l-1.6-1.47-5.72-3.92c-5-2.47-2.1-7-2.81-10.61,1.78-4,.07-9.89,6-11.75a23.87,23.87,0,0,1,2.93,1.93s0,0-.06,0c-1.69-1.19-3.69-2.23-2.13-4.84C234,234.63,237.73,234.94,241.25,238.55Z"/><path class="cls-56" d="M207.33,281.66c-.7.79-1.4,1.58-2.09,2.38-6.4,6-12.3.45-18.38-.74-1.2-.87-2.1-2.14-3.36-3s-1.91-2.38-2.6-3.76c-3.68-6.31-9.87-5.66-15.82-5.73-11.29.12-22.54-.07-33.8,0-2.6,0-7,1.5-7.49-3.7,2.51-3.92,5.84-5.6,10.79-5.9,20.64-1.22,41.3-.42,61.93-1.15,3.34.1,6.53-2.48,10-.59,3.06,6.19,1.17,13,2.39,19.41A4.06,4.06,0,0,1,207.33,281.66Z"/><path class="cls-51" d="M307.55,268.85l1.95,1.94c-10.58,3.23-21.46,1.43-32.2,1.91-8,7.64-9.67,19.79-19,26.48q-1-5.69-1.91-11.36a4.39,4.39,0,0,1-2.58-4.15c1.86-6.19-.52-13.37,4.37-18.85,5.3-1.48,4.27,3.63,6.06,5.7,0-.13.6.25.62.09s.61-.27.6-.4c2.16-2.37.2-6.79,4.19-8.1,4.24-.36,3.27,5.48,7,5.79C286.92,268.5,297.29,266.82,307.55,268.85Z"/><path class="cls-57" d="M188.22,280.1c4.8,5.09,11.2,3.27,17,3.94.62,1.9,1.25,3.8,1.87,5.71-10.13,0-19.11-4.25-28.31-7.67a15.77,15.77,0,0,0-9.59-9.4c-1.35-1.26-1.34-2.53,0-3.78,4.67.09,9.37-.14,14,.35s4.16,2.79,1.12,5.28c-2.68,3-1.25,4.17,2,4.62A1.6,1.6,0,0,1,188.22,280.1Z"/><path class="cls-58" d="M224.19,289.74c-6.38.65-7.38-8.08-13.57-7.76a8.1,8.1,0,0,1-2-4.36c1.1-4.26.21-9,3.15-12.81,4.16-1.74,3.28-4.89,3.2-8.52-.07-2.86-2.64-7.2,2.24-9.13a8.62,8.62,0,0,1,3.64.64c4.87,6.89,1.53,14.66,2.29,22,.57,5.58-.61,11.31,1.15,16.83A2.52,2.52,0,0,1,224.19,289.74Z"/><path class="cls-59" d="M256.43,284l0,3.79c-6.11,6-6.89,1.07-7.74-3.74q0-17.08.11-34.18l5.71-1.82c.62.41.83.83.62,1.25s-.41.63-.62.63c-3.72,6.92-.83,14.4-1.66,19.26.2-3.08-.46-8.44-.12-13.83.21-3.44.16-6.42,4.93-5.53a3.78,3.78,0,0,1,2.28,4.21C258.38,264,257.42,274,256.43,284Z"/><path class="cls-60" d="M252.61,301.1c-12.39,6.85-24.33,5-36-1.89h13.27c1.79-.12,3.25-1.09,4.8-1.84,3.32-1.61,5.53,1.91,8.51,1.86Z"/><path class="cls-50" d="M224.19,289.74l-.08-2.08c-4-8.61-.78-17.76-2-26.6-.51-3.73,1.21-7.77-1.79-11.11l-1.85,0c-1.32-4.71,2.41-5.94,5.17-5.37,3.15.65,5.1,3.58,2.45,7.17v11.44C225.63,272.07,227.3,281.08,224.19,289.74Z"/><path class="cls-14" d="M243.18,299.23a14.76,14.76,0,0,1-9.52,3.74,3.72,3.72,0,0,1-1-2.28c3.75-5.14,6.24-10.15-1.37-14.19a1.9,1.9,0,0,1,.38-2.28C242,282.19,242.92,283.35,243.18,299.23Z"/><path class="cls-61" d="M241.21,268.9l-4,7.44c-4-1.76-5.29-5.15-5.42-9.2.61-.09,1.22-.18,1.83-.25C236.75,265.42,239.44,265.42,241.21,268.9Z"/><path class="cls-62" d="M211,278.36c-.13,1.21-.26,2.42-.4,3.62l-3.29-.32a7.88,7.88,0,0,0-.08-1.38c-2-5.29-1.21-10.66-.4-16,2.81-3.85,5.93-3.8,5.49,1.15C212,269.68,213.07,274.25,211,278.36Z"/><path class="cls-63" d="M233.8,300.62c0,.78-.09,1.57-.14,2.35l-3.79-3.76c0-5.07-.16-10.16,1.8-15,.09.69.17,1.38.26,2.07C238.47,290.29,236.79,295.37,233.8,300.62Z"/><path class="cls-64" d="M63.15,282.19a18,18,0,0,1,7.21,5.69c1.29-.2,2.57-.87,3.87,0,4,1.28,2,7.87,7.12,8.17,1.19.2,2.38.37,3.57.53a24.55,24.55,0,0,0,5.81-.05c1.2-.16,2.39-.34,3.59-.53,5.8-.67,2.75-9,8.46-9.75a10.6,10.6,0,0,1,2,1.65l7.38-5.72c2.56-.35,5.12-3,7.7,0l-3.78,11.4c-17.4,18-35.51,19.21-54.84,3-6.85-5.75-16-5.56-23.09-10.32-.81-1.34-1.09-2.67,0-4C46.53,280.11,54.84,278.48,63.15,282.19Z"/><path class="cls-65" d="M40.33,284l-2.13,2.14C27.91,282.75,22,275.42,19.43,265.12c-2.11-3.52-2.35-7.65-3.77-11.39h0c1.25-2.55,2.51-5.09,3.77-7.64-1.55-6.34-2.83-12.6,5.06-15.94,2.1-.19,4-1.75,6.23-1,4.07,2.89,2.33,6.26,1.07,9.87-2.29,6.55-3.68,13.2,1.44,19.24a8.8,8.8,0,0,0,4.14,1.85c1.17.13,2.34.24,3.51.3,1.65.11,3.25.54,4.91.57,3.88.78,9.11-3.42,11.54,1.69s1.54,11.13.47,16.52c-.7,3.58-5.2,2.79-7,1.28C44.86,275.59,42.45,278.94,40.33,284Z"/><path class="cls-18" d="M15.66,253.73a28.73,28.73,0,0,1,3.77,11.39C16.9,261.74,16,257.83,15.66,253.73Z"/><path class="cls-66" d="M25.11,232.87c-3.61,3.67-3.93,8.74-5.67,13.21C12.24,243.61,9.92,238,9.85,231a22.16,22.16,0,0,1,.09-13.34l3.74-3.8a4.62,4.62,0,0,1,2.28.81,10.48,10.48,0,0,1,1.27,8.08c1.05-3.12-.66-6.2-.16-9.31a8.39,8.39,0,0,1,2.3-2.94l.07-.48,5.65,5.79C28.49,221.51,31.69,227.18,25.11,232.87Z"/><path class="cls-67" d="M9.94,217.68,9.85,231A16.94,16.94,0,0,1,9.94,217.68Z"/><path class="cls-68" d="M19.37,210.52l.05,3.47c-1.15,2.46-2.68,3.93-5.46,2.07-.09-.73-.19-1.45-.28-2.18.07-.55.13-1.11.16-1.66Z"/><path class="cls-69" d="M169.22,268.9c0,1.26,0,2.52,0,3.78-10,0-20.05.25-30.06-.06-7.66-.25-14.23,1.51-19.22,7.65-4.82-6-3.79-12.11-.64-18.34a4,4,0,0,1,4.93.42,4.24,4.24,0,0,1,1.34,4.75C140,270.68,154.67,268.08,169.22,268.9Z"/><path class="cls-70" d="M121.81,263.21c-2.31,5.5-1.81,11.31-1.88,17.06,0,.61,0,1.22,0,1.84a10,10,0,0,1-7.7,0l.2,0a13,13,0,0,0,1.8-2.27c2.57-6.27-.43-13,1.33-19.32a2.81,2.81,0,0,1,2.55-1.29l1.87-1.74c1.56-.59,2.94-.4,3.61,1.28C124.34,260.75,123.68,262.26,121.81,263.21Z"/><path class="cls-71" d="M192,160.88c5.77-3.86,8.83-10.11,13.27-15.14l3.81,2c1.42.89,3.24,1.32,4.08-.18,3.82-6.89,7.39-4.36,11,0l5.7,5.78c-2.59,4.58,3.63,9,.21,13.64-1.47,2.35-3.76,2.3-6.11,2.08-2.8.22-5.69.67-8.33-.58-5.34-2.54-9.61-2.29-14.35,2.19-4,3.81-9.57,4.83-14-.75C186.77,165.87,188.5,162.92,192,160.88Z"/><path class="cls-72" d="M224.16,147.58c-5,2.35-10,6.74-15.13.15l1.87-.13c6.75-5.91,8.21-12.26,1.67-19.33-2.23-2.4-2.75-4.82.2-7.1l.15-2,13.16,11.37C230.76,136.83,228.63,142.33,224.16,147.58Z"/><path class="cls-73" d="M235.5,164.72l1.8,0A21,21,0,0,1,243.13,176l1.91,1.93c2.44,5.52-.87,5.92-5,5.69-4.36-4.29-8.54-8.77-10.7-14.72C230.31,165.92,232.18,164.24,235.5,164.72Z"/><path class="cls-74" d="M241.19,179.87l3.85-1.94,3.62,3.84,3.9,7.63c.75,3,2.13,6.15-2.22,7.68C242.15,192.89,238.3,185.64,241.19,179.87Z"/><path class="cls-75" d="M228.08,164.57c1.65-3.57-7.66-8.88,1.78-11.22.63.62,1.26,1.24,1.9,1.85a2.49,2.49,0,0,1,.54,2.75c-.33,2.77,1.75,6.12-1.9,8.12A2.1,2.1,0,0,1,228.08,164.57Z"/><path class="cls-76" d="M230.09,164.33c.56-2.41,1.11-4.82,1.67-7.23,1.67,1.65,2.33,4,3.71,5.79l0,1.83-3.08,3.69C229.19,168.45,230,166.19,230.09,164.33Z"/><path class="cls-27" d="M243.13,176q-2.91-5.64-5.83-11.26C241.27,167.44,242.85,171.38,243.13,176Z"/><path class="cls-27" d="M235.47,162.89q-1.86-2.89-3.71-5.79v-1.9C233,157.76,234.23,160.33,235.47,162.89Z"/><path class="cls-45" d="M59.22,191.05c0-.57.09-1.15.16-1.72,6.2-7,10.92-15,16.35-22.57,1-1.43,1.89-3.42,4.31-2.12,9.06,1.8,7.25,9.05,7.65,15.2,3.26,6.25-2.31,10.09-4.09,15-2.17,2-4,4.61-7.35,4.74a5.93,5.93,0,0,1-3.78-1.66c-4-2.83-2-5.84-.26-8.84.65-1.09,1.37,1.06.51.14-1.67,3.09-7.33,5.18-2.45,9.9,1.41,1.21,2.69,2.5,3,4.44a8.78,8.78,0,0,1-.92,4.15c-1.45,3.71-3.19,7.14-7.55,8.14l-5.51-1.89c-2.47-1.86-6.22-.35-8.26-3.19-2-2.63.41-4.7.91-7C54.5,199.59,57.72,195.81,59.22,191.05Z"/><path class="cls-77" d="M76.29,250c5.78-1.2,5-10.11,11.4-10.11S93.32,248.75,99.1,250c4.45,5,2.72,10.7,1.79,16.33-1.61,1.83-5,3.6-4.78,5.35,1.09,9.09-6,7.32-10.46,7.78-2.08.22-6.52,0-6-5.18.36-3.54-2.65-5.91-5.2-8.09C73.62,260.57,71.74,254.9,76.29,250Z"/><path class="cls-51" d="M25.11,232.87q0-8.52,0-17l3.67,1.89a48.9,48.9,0,0,0,9.87-1,13.27,13.27,0,0,0,4.79-2.18c2.67-1.9,5-4.94,8.89-2.49a2.88,2.88,0,0,1,1.24,3.84c0,5.72.39,11.5-1.87,17-.62.62-1.24,1.23-1.88,1.84-1.43,1.16-3.26,1.13-4.92,1.64s-3.25,1.35-5.07,1.16c-3.73-.24-5.64-4.08-9.2-4.66Z"/><path class="cls-78" d="M78.31,217.93c-4.15,8.26-9.31,15.2-19.86,15a2.7,2.7,0,0,1-2-3.13c3.43-8,10.68-13.38,14.26-21.25,2.22-1.94,2.69-4.7,3.45-7.33,1.53-1.91,3.68-3,5.64-4.34,5-.18,2.36-9.72,9.26-7.61,2.82,1.44,1.62,4.47,2.61,6.63C89.67,204.69,81.51,209.81,78.31,217.93Z"/><path class="cls-79" d="M40.33,284c-1.66-3-7.49-4.63-4.06-9.09,2.5-3.25,6.89-1.95,10.67-1.35,2.6.41,4.66,4.67,7.42,1.72,1.14-1.23,1-4.28.51-6.29-1.25-5.29-5.2-1-7.75-1.91A16.54,16.54,0,0,1,44,265.19c.07-.4.13-.81.19-1.21.33-2.06.65-4.11,1-6.16a17.36,17.36,0,0,0,.73-2.5c2.55-5.45,7-8.59,12.14-11.07a2.37,2.37,0,0,1,1.41,2.05c-1.34,5.65,2,10.26,3.42,15.29-4.28,6.1-4,12.21,0,18.32.1.76.19,1.52.29,2.28C55.78,285.7,47.9,283,40.33,284Z"/><path class="cls-79" d="M40.32,234.74l4.47-1.51c1.55,1.07,3.09,2,4.56-.11l2.33-.24c1.16,3.13,3.65,4.78,6.54,6.13,3.76,1.76,4,4.31,1.25,7.29l-.28-.22c-5.35-3.06-5.87,1.59-7,4.63-1,2.86-.23,6.28-2.5,8.83l.11-.21c-2.11,1.5-2,5.14-5.25,5.51l-.64.35-3.83-2.08c-2.32-8.62-.61-17.57-2.08-26.26A6.24,6.24,0,0,1,40.32,234.74Z"/><path class="cls-80" d="M108.75,230.92c0-10.31-.09-20.62.09-30.93.07-3.93-.62-8.36,3.91-10.77-.06,10.69,0,21.38-.25,32.07C112.42,224.82,113.71,229.17,108.75,230.92Z"/><path class="cls-81" d="M62.86,279.91c-9.53-1.74-4.53-9.12-5.14-14.08-.32-2.53-.07-7.17,5.17-4.24Z"/><path class="cls-82" d="M76.29,250q.06,7.59.11,15.18c4.14,7,3.12,14.35,1.91,21.89-.7,4.33-2.87,3.94-5.79,3l-2.16-2.11c.08-1.26.16-2.52.25-3.78,4-6.36,1-13.38,1.92-20,.75-4.68-1.29-9.71,1.84-14.07Z"/><path class="cls-82" d="M99,265.13q.06-7.59.11-15.18l2,.13c3,4.53,1.11,9.66,1.78,14.48,0,6-.06,12,.1,18q.95,2.63,1.87,5.26l-2,.23c-3.62,2.67-5.42,1.08-6.15-2.7C95.37,278.41,94.65,271.48,99,265.13Z"/><path class="cls-83" d="M78.31,217.93c.77-8.61,8.83-13.3,11.32-21,1.22-2.93.85-7.75,6.48-5.49,1.52,3.37.16,5.61-2.91,7.15l-5.76,9Z"/><path class="cls-84" d="M72.05,209.94c-5.11,6.29-8.2,14.07-14.42,19.54-3.43-4.9,2.56-6.49,3.48-9.86l3.7-3.8,4.25-9.2c1.25-1.13,2.47-2.34,4.26-.91C74.23,207.52,73.61,208.87,72.05,209.94Z"/><path class="cls-85" d="M140.78,242.39c.06-.58.12-1.16.16-1.74,2.77-3,1.28-8.65,6.44-10.1a4.38,4.38,0,0,1,3,1.72c1.1,6.87,1.67,13.57-5.55,17.78-7.22-.55-14.48-1.17-21.76-1.09-1.77-.09-3.59-.07-4.94-1.52a2.52,2.52,0,0,1-.09-3.19l0-.05C125.47,241.72,133.35,244.9,140.78,242.39Z"/><path class="cls-86" d="M118.09,259.28l-.18,2.46c-1.6,1.86-.25,4.36-1.4,6.32-.73,3.4-.1,6.89-.51,10.34a11.67,11.67,0,0,1-1.6,3.63l-2,.13c0-5.84-.27-11.69.08-17.51C112.67,261.64,112.36,257,118.09,259.28Z"/><path class="cls-87" d="M95.28,215.83c.88,2.21,5.16,4,1.22,6.79-1.78,1.24-4.79,1.17-5.74-1.14-1.6-3.89,2.28-4.31,4.52-5.65Z"/><path class="cls-86" d="M118,244.25l.28,2.28c10.48,5.72,12.7,10.71,8.33,18.67a2.27,2.27,0,0,1-3-.05c-.61-.64-1.21-1.29-1.82-1.94q-.93-2.83-1.85-5.67C118.52,253.23,115.67,249.12,118,244.25Z"/><path class="cls-88" d="M74.32,265.24c-.21,6.49,1.43,13.34-3.71,18.86L70.7,267C71.75,266.07,71.85,263.18,74.32,265.24Z"/><path class="cls-89" d="M74.32,265.24,70.7,267c.23-5.87-1.76-12.23,3.67-17Q74.34,257.62,74.32,265.24Z"/><path class="cls-89" d="M101.08,265.24V250.08c5.39,4.74,3.34,11.06,3.61,16.89C102.29,268.88,102.08,266.23,101.08,265.24Z"/><path class="cls-88" d="M101.08,265.24l3.61,1.73c.14,5.29.54,10.6-1.73,15.62C100.5,277,101,271.1,101.08,265.24Z"/><path class="cls-28" d="M146.4,232.77a10.08,10.08,0,0,1-5.46,7.88l-2.09-2.11,2.1-5.77c1.74-1.48,2.57-5,6-2.69A2,2,0,0,1,146.4,232.77Z"/><path class="cls-29" d="M140.78,242.39c-7.41,2.79-15.14,1.45-22.74,1.81C125.45,241.5,133.17,242.69,140.78,242.39Z"/><path class="cls-90" d="M53.55,215.89,51.66,214c-2-2.63-1.63-4,1.93-3.88l5.7,3.84Z"/><path class="cls-90" d="M61.11,219.62l-3.48,9.86c.27,1.14.54,2.27.82,3.41C54.65,227.53,56.64,223.32,61.11,219.62Z"/><path class="cls-91" d="M98.93,233.89l-.42.71a12.35,12.35,0,0,1-1.2-.78,5,5,0,0,1,.39-.68Z"/><path class="cls-2" d="M146.46,231,141,232.78l-.06-51.05c1.4-1.28,2.4-3,4.33-3.68,5.13,1.8,6.17,6.73,8.26,10.66,0-.19.18-.85.13-1-.19-4.41-1.39-8.52-2.19-12.67,1-2,3-2.45,4.72-3.41a16.4,16.4,0,0,1,4.59-.17c2.26.08,3.37,1.87,4.79,3.2a46.74,46.74,0,0,0,4.71,5.14c3.51,2.38,4,6.45,5.64,9.9,2,3.17,6.56,4,7.36,8.22,1.38,2.66,3.65,4.6,5.55,6.84.87,1.46,1.89,2.83,2.77,4.29,2.35,3.6,5.95,6,9.06,8.81,3.45,4.16,7.32,8.15,8.78,13.64.35,3.35-1,5.44-4.46,5.88-15-4.74-30.53-3.47-45.91-3.52C154.57,233.86,150.22,233.87,146.46,231Z"/><path class="cls-92" d="M136.76,113.23c-7.79-1.07-11.12,2.54-10.89,10.15.14,4.72,0,9.45,0,14.17a24.49,24.49,0,0,0,.74,3.48c5.54,13.63,4.53,27.53,1.28,41.39-.7,3,.22,5.44.57,8.18,1.77,13.83,4.12,27.71-.44,41.5-.93.76-1.88,1.5-2.84,2.24l-1.68.67c-2.13-41.75-2.93-83.49.28-125.23,4.12,2.36,9-.67,13.11,1.8-.06.56-.13,1.12-.19,1.68Z"/><path class="cls-93" d="M157.69,174.14c-.59,1.27-1.17,2.54-1.75,3.8-2.2,3.62-4.64,6.64-9.44,3.78h-5.61v-17l9.42-.05c2.86-2,4.74-.43,6.43,1.8C157.53,169,162,171,157.69,174.14Z"/><path class="cls-92" d="M137.11,139.87c2,4.17,1.57,8.64,1.58,13q0,35.46-.09,70.94c0,3.77.22,7.59-1.42,11.17l-1.72-.69c-1-.75-1.9-1.53-2.88-2.29-4.19-10.6-2.8-21.78-1.6-32.47,1.49-13.27-.84-26.22-.7-39.33.07-6.42.81-12.51,4.07-18.13A4.5,4.5,0,0,1,137.11,139.87Z"/><path class="cls-94" d="M136.91,111.58c-4.44-.1-8.89-.11-13.11-1.8C128.27,109.62,133.05,107.23,136.91,111.58Z"/><path class="cls-92" d="M137.18,235a19.25,19.25,0,0,1-13.66,0l.65-.71q6.18-6,12.35,0Z"/><path class="cls-92" d="M125.89,137.55l11.22,2.32-.34.37c-4.42,3.54-8.48,5-11.12-1.9Z"/><path class="cls-95" d="M93.2,198.61q1.1-2.76,2.17-5.52c-2.93-3.41-1-6,1.29-8.72a6.45,6.45,0,0,1,6.07,1C101.23,191,98.78,195.93,93.2,198.61Z"/><path class="cls-96" d="M102.73,185.4l-3.42,2.36c-3.62-4.77-1.13-10,6.65-14a3.46,3.46,0,0,1,2.63,2.32l-2.22,5.53C105.16,182.85,104,184.13,102.73,185.4Z"/><path class="cls-97" d="M80,164.64C72,171.87,68.56,183,59.38,189.33,65.16,179,71.6,169.16,80,160.75c.68.4.93.83.75,1.3s-.37.72-.58.72Z"/><path class="cls-98" d="M81.66,192.77l6-12.93L89.61,178c2.34-2,2.45-7.52,7.7-4.75,1,1.38,2.66,2.47,2.54,4.54a83.73,83.73,0,0,0-6.59,10.73c-2.46,2.95-8.52-.39-9.22,5.21A1.79,1.79,0,0,1,81.66,192.77Z"/><path class="cls-99" d="M94.87,177.8c.15-1.22.3-2.44.46-3.66-2.45-4.38,2.54-5,3.79-7.59l3.69-4a16.14,16.14,0,0,0,1.84,0c6.44,4.12-1.48,6.9-1,10.46C100.09,173.43,101.06,182.24,94.87,177.8Z"/><path class="cls-100" d="M99.12,166.55q-1.91,3.8-3.79,7.59L89.61,178C91.05,172.71,93.71,168.49,99.12,166.55Z"/><path class="cls-100" d="M80.19,162.77c-.06-.67-.11-1.35-.17-2l7.5-9.41,2.07.06C87.42,156,84.83,160.23,80.19,162.77Z"/><path class="cls-80" d="M110.65,133.36c-2.59-6.46-2-12.84,0-19.27C112.78,120.46,113.34,126.9,110.65,133.36Z"/><path class="cls-101" d="M94.87,177.8c4.33-4.38,8-9.21,9.78-15.22l1.61-2c2-.82,4-1.78,5,1.28.84,5.5-.19,10.36-4.76,14-2.89,3.67-6.11,7.13-7.2,11.89l-3.94,5.33L89.63,197c-.64-1.92-1.29-3.84-1.93-5.75-1.77-2.7,1.28-3.81,1.88-5.73Z"/><path class="cls-102" d="M106.51,175.87c1.83-4.22,3.7-8.42,4-13.11.68-1.31,1.36-1.31,2,0a15.48,15.48,0,0,1-4,13.29Z"/><path class="cls-103" d="M112.55,162.76h-2l-4.24-2.19c1.21-1.62,2.1-4.4,4.35-3.87C113.73,157.43,112.36,160.55,112.55,162.76Z"/><path class="cls-104" d="M106.73,90.93c-3-2.53-2.29-5.08-.06-7.65,2.82.56,7.16-.41,7.2,3.73S109.51,90.23,106.73,90.93Z"/><path class="cls-105" d="M246.81,107.69l-3.67-1.8c-2.61-4.76,2.37-4.71,4.22-6.64,4.59-2.15,8.58-6.2,14.37-4.44A6.46,6.46,0,0,1,263,99.22a18.92,18.92,0,0,1-1.5,7.65,6.25,6.25,0,0,1-2.53,1.8c-2.88,1.31-5.83,2.32-9.08,1.86C248.2,110.3,246.92,109.63,246.81,107.69Z"/><path class="cls-40" d="M248.82,102.09q-2.83,1.91-5.68,3.8c-7.4-.23-15.29,1.35-20.94-5.51l.25-.35C231.08,92.93,239.18,93.56,248.82,102.09Z"/><path class="cls-40" d="M246.81,107.69l4.37.32.91,1.28A2.92,2.92,0,0,1,251,112c-3.79.94-7.61,4.44-11.35-.1l-.37-.53Z"/><path class="cls-106" d="M248.82,102.09c-8.93,1.1-17.94,3.27-26.37-2.06-4.06-9,2.24-15.37,5.76-22.44l5.41-2.12c3,2.49,4,5.06,1.26,8.6-1.93,2.52-3.21,5.66-.53,8.55,2.24,2.41,5.18,1.58,8,1a20.05,20.05,0,0,0,4.5-1.32c2.83-1.31,6.49-2.46,6.2-6.15-.35-4.26-4.57-4.06-7.42-3.79-5.89.57-8.89-3.12-12.05-6.89,5.65-6.21,13.28-8,21.08-9C263,65.39,268.14,70,271.47,77.2c-.79,7.17-1.71,14.27-8.9,18.34A5.76,5.76,0,0,1,260,96Z"/><path class="cls-3" d="M260,96c.11-.48.23-1,.37-1.43,4.93-2.64,7.68-7.44,11.29-11.39l2.25,0c-.33,4.18-2,7.91-3.94,11.52,1.38,3.07-.46,4.68-2.8,6-2.4.6-4.78,1.6-6.95-.53C260.1,98.86,260,97.45,260,96Z"/><path class="cls-105" d="M271.61,83.22c-2.44,5.11-4.48,10.61-11.29,11.39A75.23,75.23,0,0,0,271.47,77.2C271.52,79.21,271.57,81.21,271.61,83.22Z"/><path class="cls-107" d="M267.66,105.89l-5.38,6,0-.13c-6.7,1.29-12.55,6.29-20,4.58-1.68-.39-4,.08-3.06-2.92l.05,0c3.67-1.71,8.27-.66,11.43-3.86l-.12,0c2.52-1.35,5.71-1.08,7.89-3.26l-.22-.57c1.16-1.51,2.27-3.07,4.15-3.74,2.5-.81,5-3.4,7.46.09C269.11,103.35,268.39,104.62,267.66,105.89Z"/><path class="cls-42" d="M269.84,102.09l-7.93,1.82c-.89-3.78,2.25-4.18,4.47-5.36l3.54-3.76C272.57,97.25,272.47,99.68,269.84,102.09Z"/><path class="cls-108" d="M239.2,113.43c8,4.1,15.33-1.45,23-1.66-7.6,4.85-15.6,7.32-24.53,4-.21-.08-.33-1.2-.08-1.54S238.65,113.68,239.2,113.43Z"/><path class="cls-108" d="M250.68,109.55c-3.14,3.27-7.14,4-11.43,3.86.12-.49.25-1,.4-1.48Z"/><path class="cls-109" d="M53.59,210.09c-.64,1.3-1.29,2.59-1.93,3.88l-7.54,5.64c-.48-3.34-5.91-1.73-5.74-5.72-1.64-5.68-4.85-11.36,0-17,.72-.88,1.4-.81,2.06.07-.49,2.78-3.6,5.86,0,8.23,2.9,1.89,5.89.15,8.52-1.53,1.54-1,3-2.14,4.46-3.21,1,.66,1.07,1.37.12,2.14Z"/><path class="cls-110" d="M53.6,202.55l-.12-2.14,5.74-9.36A21.9,21.9,0,0,1,53.6,202.55Z"/><path class="cls-4" d="M40.46,196.92l-2.06-.07,5.82-5.64C43,193.11,41.72,195,40.46,196.92Z"/><path class="cls-111" d="M38.38,213.89c3.17.64,5.88,1.75,5.73,5.72l-5.63.11-1.16-.2c-2.09-.9-4.77-.37-6.3-2.62l-.3-1.13Z"/><path class="cls-111" d="M38.48,219.72c-4.11,3.54-7,1.21-9.72-2l2-1.95.37.19c1.91,2.16,5.49.89,7.18,3.49Z"/><path class="cls-112" d="M146.44,130.47c-.91-.11-1.84-.17-2.74-.35-3.15-.62-7.29.14-7.74-4.66-.19-2.07,1.52-3.28,3.48-3.67,4.26-.83,7.23.57,8.28,5.07.13.6.34,1.18.51,1.77Z"/><path class="cls-113" d="M192,160.88c-.6,3.17-1.2,6.35-1.81,9.52.13.41.25.82.37,1.22.66,2.11,3,3.11,3.51,5.32,1.75,7.69,7.84,12.5,12.32,18.36,2.11,2.76,4.38,5.19,3.66,9a24.81,24.81,0,0,1-3.05,9.3c-3.14,2.45-5.75,0-8.56-.69-1.9-2.12-4.37-3.65-6.45-5.64-1.59-2.28-3-4.69-4.57-7-.45-.74-.91-1.5-1.37-2.24-1.35-3-4.22-4.29-6.58-6.19a32.77,32.77,0,0,1-3.11-3A48,48,0,0,1,172,180.2c-.15-2.74-1.59-5.56,1-7.95l1.89-1.9c2.3-1.59,6.09,3.07,7.61-1.81l7.53-7.68Z"/><path class="cls-114" d="M182.49,168.54c-1.74,4-4.51,3.58-7.61,1.81-2.31-2.95-5.36-5.46-5.71-9.58.68-.81,1.32-.77,1.91.11C174.11,164.58,176.6,169.08,182.49,168.54Z"/><path class="cls-12" d="M171.08,160.88l-1.91-.11c1.69-3.91,3.49-7.75,8-9.23Z"/><path class="cls-115" d="M163.56,177.86l-3.35-2c-2-2.26-2.55-5.53-5-7.48a12.9,12.9,0,0,1-.29-2.7c.85-2.2,1.82-4.26,4.59-4.48a5.5,5.5,0,0,1,2.06,1.8l3.16,3.71c2.41,1.45,3.62,3.8,4.72,6.24C170.09,177.71,167.4,178.47,163.56,177.86Z"/><path class="cls-114" d="M167.4,172.08c-.9-1.79-1.79-3.58-2.7-5.37l8.29,5.54q1,3.75,1.91,7.5a2.77,2.77,0,0,1-3.6.86C168.83,178.3,169.31,174.64,167.4,172.08Z"/><path class="cls-12" d="M161.54,163c-.54-.21-1.09-.4-1.64-.58-4.44,1-5.7-2.65-7.72-5.22q-.92-1-1.86-1.92C157.47,152.89,159.55,157.87,161.54,163Z"/><path class="cls-116" d="M150.32,155.28l2.22.23c1.31,3.63,5.45,6.36,3.46,11l0,1.89c-.65.89-1.3.94-2,0l-3.74-3.81Q150.31,160,150.32,155.28Z"/><path class="cls-117" d="M212.77,121.17c2.28,2.53,4.57,5.06,6.84,7.59,2.86,3.18,7.16,6.2,4.48,11.1s-6.21,9.59-13.19,7.74c-3.56-3.89-7.09-7.82-10.7-11.67-4-4.3-9.26-8-3.47-14.85C202.35,114.45,207.46,116.83,212.77,121.17Z"/><path class="cls-118" d="M250.66,195l1.9-5.64c.52,0,1,0,1.56-.08,2.06,3.83,4.9,7.26,6,11.58l3.43,3.68q1.13,2.82,2.27,5.64l-3.46,3.62c-4.2-.26-6-3.78-8.66-6.18a9.06,9.06,0,0,1-4.29-7.64C249,198.15,249.11,196.42,250.66,195Z"/><path class="cls-20" d="M269.49,202.77l-3.6-.22q0-15.15,0-30.3a2.75,2.75,0,0,1,3.41.35c3.3,10,3.67,20,.34,30Z"/><path class="cls-24" d="M260.12,200.9a33.4,33.4,0,0,1-6-11.58A15.48,15.48,0,0,1,260.12,200.9Z"/><path class="cls-24" d="M268,172.33l-2.05-.08a11.15,11.15,0,0,1,9.43,0l-1.89,0C271.65,175.47,269.8,174.09,268,172.33Z"/><path class="cls-109" d="M205.2,234.79c0-1.31.07-2.63.1-3.94a15.1,15.1,0,0,1,1.49-1.89c1-.72,2.34-.54,3.39-1.12,3.52-3.57.38-5.3-1.85-7.63s-5.56-4.92-1.09-8.31c1.07-1.22,2.39-1.18,3.8-.76,2,.49,3.65,1.7,5.44,2.59,4.35,2.64,13.74,1.9,7.69,11.51l0,5.85c1.68,1.17,2.64,4.58,5.59,1.81,4.7.09,9.32.35,11.45,5.65-3.6.16-6.95.9-9.29,4l.06,0c-1.79,3.21-2.86,6.88-5.91,9.28-2.08-2.55-4.63-3.08-7.62-1.8-.68,6,2.12,13.24-5.63,16.92-1.51-1.52-.92-4-2.44-5.47-4.71-3.72-4.5-9-4.42-14.18C207.14,243,201.56,239.19,205.2,234.79Z"/><path class="cls-59" d="M275.38,268.84l-5.7-3.73c-2.43,4.11.41,8.91-1.71,13.06-.76,2.24-.76,5.3-3.93,5.43-2,.08-1.83-2-1.76-3.52a3.77,3.77,0,0,0,1.71-3.72,7.08,7.08,0,0,0,0-1.61c-.12,2.07.34,4.11-1.68,5.34-2.05-4.13-2.09-8.59-2.13-13-3.43-3.3-2.23-7.2-.84-10.67,2-5,1.06-9.45-1.06-14l-9.47-5.63,4.24-.32c2.54-2.87,5.55-1.17,7.47.17a46.18,46.18,0,0,1,16.85,21.7c1.09,2.81.18,4.83-1.93,6.61,0,.73,0,1.46,0,2.19C276.78,267.71,276.78,268.28,275.38,268.84Z"/><path class="cls-17" d="M258.27,242.42c6.19,4.78,9.55,9.9,3.37,17.33-1.4,1.68-1,4.83-1.47,7.3q-1.87,8.49-3.74,17c-.79-11.29,1.83-22.79-2.14-33.88l.05.09c0-.72.09-1.44.14-2.16Q256.37,245.25,258.27,242.42Z"/><path class="cls-119" d="M256.45,206.18l5.91,7.66,3.57,7.62-9.56,3.78a15.89,15.89,0,0,1-1.8-2.22c-.71-3.26-5.8-4.74-3.77-9.14.25-.88.5-1.75.73-2.63C251.72,208.15,252.91,206,256.45,206.18Z"/><path class="cls-120" d="M256.41,223.46c0,.6,0,1.19,0,1.78h-32.2c-3.09-3.21-7.64-4.93-9.61-9.3.37-.43.74-.86,1.1-1.25,11,1.75,21.9,4.37,33.21,4.21C251.52,218.86,255.2,219.81,256.41,223.46Z"/><path class="cls-121" d="M229.8,232.9c-3.08,3.15-4.5,1.17-5.59-1.81Z"/><path class="cls-122" d="M307.63,264.89a129.54,129.54,0,0,1-30.36,0c-2.19-9.23-5.49-18-12.71-24.46-1.52-1.36-2.64-2.59-2.34-4.18.41-2.21,2.67-2.53,4.56-2.38,5,.39,12-2.85,12,6.75,0,1.88,1.82,3.15,3.68,4,6.48,2.82,19.73,0,24.35-5.57,2.66-3.19,5.2-1.82,5.16.88C311.87,248.38,315.28,257.68,307.63,264.89Z"/><path class="cls-123" d="M307.63,264.89a85.1,85.1,0,0,0,3-8.89c2.46-11.14.86-12.19-9.73-10.63-9,1.32-19,3.77-25-7.1-1.64-2.94-5.3-4.34-8.06-1.82-3.06,2.8.23,5.28,2.13,6.94,6.69,5.83,6.92,13.66,7.32,21.51-.61,0-1.22.05-1.84.05-3.54-12.57-8.79-23.81-22.39-28.48,6.45-6.08,21.68-5.47,26.36,1.05,7.11,9.9,18.33,10.5,25.5.79,3.36-4.55,5.29-3.73,7.35.35C315.49,245.06,312.79,259.67,307.63,264.89Z"/><path class="cls-21" d="M275.38,268.84c0-.56,0-1.13,0-1.7l32.31.23-.15,1.48Z"/><path class="cls-124" d="M268,172.33l5.49-.07c2.76,7.94,1.85,16.13,1.65,24.26-.09,3.4-1.11,6.31-5.44,6.07C266.24,192.66,267.78,182.46,268,172.33Z"/><path class="cls-125" d="M232,242.54c3-1.51,6.27-2.45,8.18,1.13a12.21,12.21,0,0,1,.06,10.88,3.75,3.75,0,0,1-7-.9c-.54-3.69-.78-7.43-1.14-11.15Z"/><path class="cls-126" d="M241.21,268.9l-7.55-2C236.61,266,239.64,264.68,241.21,268.9Z"/><path class="cls-70" d="M123.63,265.15l2.39-.23c3-4.76,7.85-4.31,12.53-4.2,18.49-.66,37-.35,55.49-.23,2.35,0,4.5.31,5.47,2.89.08.55.17,1.09.25,1.64-7.22,3.17-14.86,2-22.35,2.06-17.28.14-34.57,0-51.85,0Z"/><path class="cls-50" d="M209.2,246.34c-.2,5.36,2.35,10.08,3.51,15.13-1.69,1.06-3.91-.39-5.49,1.18a3.92,3.92,0,0,1-1.91-1.31L199.76,265l-.54-.25c-4.25-9.37,2.06-14.67,7.8-20.18A2.37,2.37,0,0,1,209.2,246.34Z"/><path class="cls-127" d="M188.22,280.1a6.25,6.25,0,0,0-1.29-.11c-1.56,0-1.84-.61-.83-1.79a16.58,16.58,0,0,1,1.41-1.25c2.51-1.75,5.15-2.5,7.68-.19a2.52,2.52,0,0,1,.18,2.46C193.3,281.37,190.65,280,188.22,280.1Z"/><path class="cls-128" d="M205.31,261.34l1.67-.19c2.11,1.25.93,2.81.41,4.32q-.07,7.39-.14,14.81C204.57,274.17,205.51,267.7,205.31,261.34Z"/><path class="cls-7" d="M186.1,278.2c.27.59.54,1.19.82,1.79-2.66-1-5.51-1.85-2.58-5.46C184.93,275.75,185.51,277,186.1,278.2Z"/><path class="cls-17" d="M268,278.17c-.09-4.44,0-8.86,1.71-13.06C269.67,269.54,269.59,274,268,278.17Z"/><path class="cls-129" d="M220.34,250c5,4.41,3.69,10.4,3.81,15.95.15,7.25,0,14.51,0,21.77-5-4.43-3.62-10.43-3.76-16C220.17,264.46,220.33,257.2,220.34,250Z"/><path class="cls-130" d="M207.39,265.47c-.14-1.44-.27-2.88-.41-4.32,2-2.3,3.91-1.35,5.73.32l.15,5.43q-.92,5.73-1.84,11.46C209.91,274,213.29,268.44,207.39,265.47Z"/><path class="cls-131" d="M254.29,250.15c-.42,11.06.94,22.23-2.13,33.12-.5-11.09-5.25-22.45,2.19-33Z"/><path class="cls-132" d="M233.8,300.62c-2-4.6-1.12-9.57-1.87-14.34,3.64-2.65,7.43-3.53,8.72,1.9C242,293.87,242.38,300,233.8,300.62Z"/><path class="cls-133" d="M99,265.13c.92,7.72-2.22,16.12,3.89,23,.1,6.38-2,11-9.3,11.14-4.23-.39-2.46-5.2-5-6.72a3.65,3.65,0,0,0-1.43.05c0,.12-.68.47-.67.57-1.92,1.8-.84,5.84-4.63,6.1-6-.18-9.11-3.23-9.29-9.24,6-7.56,3-16.5,3.88-24.86,5.71,1.22,4.93,10.05,11.29,10.05S93.28,266.35,99,265.13Z"/><path class="cls-134" d="M90.84,301H84.56c-2.15-6-3.47-12,1-17.65a4.5,4.5,0,0,1,.19,1c2.06,3,4.32-3.33,6.37.15C91.87,290,94.25,295.73,90.84,301Z"/><path class="cls-135" d="M90.84,301c1.29-5.75,2.51-11.51-1.28-16.88q-1.32,1-1.89-.54c9.42,2.41,4.21,10.33,5.91,15.65Z"/><path class="cls-135" d="M85.55,283.35c-3.1,5.72-2.51,11.66-1,17.65l-2.74-1.77C82.85,293.89,79.7,287.56,85.55,283.35Z"/><path class="cls-66" d="M40.32,234.74c0,.61,0,1.23,0,1.84l-1.62,2c-5.84,4.38-7.22,10.29-5.9,17.15.46,2.37,1.36,4.76.22,7.2a3.18,3.18,0,0,1-2.36.77c-7.5-10.27-6.06-20.55-.07-30.84C34.31,231.07,37.43,232.3,40.32,234.74Z"/><path class="cls-136" d="M38.13,236.81l2.21-.23c2.46,8.87,2.75,17.71-.22,26.53L38.39,265a3.16,3.16,0,0,1-3,.72C34.86,255.93,34.76,246.21,38.13,236.81Z"/><path class="cls-79" d="M36.13,264.82l2.26.16c-3.16,3.11-5.66,2.25-7.71-1.29.18-.27.36-.56.53-.84C33.8,261.12,34.81,263.36,36.13,264.82Z"/><path class="cls-137" d="M14,216.06,19.42,214c3.78,6.67,4.78,13.4.53,20.3-1,1.59-1.72,3.51-4,3.16-2.14-.33-3-2.14-3.42-4A30.74,30.74,0,0,1,14,216.06Z"/><path class="cls-138" d="M114.4,282l-.23-3.48c2.55-3.68-.47-8.26,2-11.95l1.79-4.86C117.49,268.63,119.8,276,114.4,282Z"/><path class="cls-139" d="M250.66,195l2,3.73c-2.71,3.86-4.49,9.19-11,6.87a164.32,164.32,0,0,0-20-30.43c-4.72-4.83-2.1-7.9,2.49-10.5l4-.14,2-.24,2.33,4.09q4.4,5.72,8.77,11.45C243.23,185.62,247,190.32,250.66,195Z"/><path class="cls-98" d="M72.9,206.59q-1.92,0-3.84,0l1.58-2.17c0-3.93,1.75-6.58,5.7-7.55l5.33-4.13.65.6c1.51,3.08-.92,4-2.84,5.17l-3.06,4.31C74.52,203.41,76.44,207.57,72.9,206.59Z"/><path class="cls-110" d="M76.34,196.9l-5.7,7.55-3.87-1.95,7.51-7.64Z"/><path class="cls-140" d="M83.82,249.89c.06-3.29-1-7.85,3.92-7.84s3.83,4.55,3.85,7.83C89,253,86.41,253,83.82,249.89Z"/><path class="cls-141" d="M90.16,270.4c-.25,1.38-1,2.41-2.45,2.32-1.9-.11-2.74-1.42-2.36-3.24a2.22,2.22,0,0,1,2.79-1.85A2.51,2.51,0,0,1,90.16,270.4Z"/><path class="cls-142" d="M83.82,249.89h7.77c-.06,3.14.12,6.9-4.34,6.54C83.61,256.14,83.8,252.71,83.82,249.89Z"/><path class="cls-143" d="M49.35,233.12c-.6.89-1,2.32-1.82,2.55-1.76.53-2.19-1.18-2.74-2.44Z"/><path class="cls-83" d="M79.48,198.54l2.83-5.17q3.64-3.94,7.27-7.9-.93,2.86-1.88,5.73C85.66,194.43,83.46,197.48,79.48,198.54Z"/><path class="cls-144" d="M72.9,206.59l3.52-3.74a11.07,11.07,0,0,1-4.37,7.09C72.33,208.82,72.62,207.7,72.9,206.59Z"/><path class="cls-145" d="M49.73,259.54c0-4.66-.24-9.34,0-14,.15-2.81,2.12-4.46,5-4.61,3.59-.19,5.28,1.42,4.45,5.13Z"/><path class="cls-146" d="M44.92,280.27c-1.91-.39-4.41-.41-4.85-3-.24-1.37,1.37-1.88,2.62-1.9,2.2,0,4.49.21,4.87,3C47.76,279.77,46.43,280.25,44.92,280.27Z"/><path class="cls-147" d="M44.59,264.84a10.4,10.4,0,0,1,5.25-5.51C49.14,262.17,49.09,265.63,44.59,264.84Z"/><path class="cls-148" d="M60.82,272.94l-1,.77c-.08-.26-.29-.56-.23-.78a8.47,8.47,0,0,1,.62-1.38Z"/><path class="cls-149" d="M196.22,264.1c-19.06,3.24-38.22,1.18-57.35,1.22-4.5-4.07-7.64-9.5-13.46-12.39-1.58-.78-4.93-3-3.47-6.55l20.15-.38c3.12-1,6.43-2.95,6.64-6,.54-7.85,5.23-7.05,10.84-6.92,12.81.3,25.67-1.25,38.48.71a5.12,5.12,0,0,1,2.91,1.29c7,5.22,8,10.62,1.28,17.18C199.09,255.33,198.09,260.07,196.22,264.1Z"/><path class="cls-150" d="M121.94,246.38c1.58.9,3.09,2.4,4.77,2.62,9.76,1.31,12.35,7.72,12.16,16.32l-12.85-.4a47,47,0,0,0-7.72-18.39Z"/><path class="cls-151" d="M205.2,234.79c2.52,3.44,9.45,5.35,4,11.55l-.26-.26c-1.92-4.34-6.33-6.29-9.22-9.69l-.11.25c-3.34-2.85-7.33-2.74-11.43-2.88-13.29-.46-26.64,1.36-39.89-.91-.63,0-1.26-.07-1.89-.08l.06-1.76c14.48,0,29,0,43.44-.12C195.37,230.85,200.57,231.67,205.2,234.79Z"/><path class="cls-150" d="M148.29,232.85c13.81-.09,27.61-.22,41.42-.27,3.81,0,7.62.21,9.9,4.06-13.26-3-26.72-1.65-40.11-1.67-4,0-7.34,1.43-9.45,5a11.54,11.54,0,0,1-8,6A17.1,17.1,0,0,0,148.29,232.85Z"/><path class="cls-148" d="M116.12,266.6c0,4.09-.11,8.16-2,11.95C114,274.42,113.48,270.25,116.12,266.6Z"/><path class="cls-152" d="M161.58,193.06l-5.66,5.69c-1.6,2.23-2.89,5.57-6.17,4.72-3.69-1-2.07-4.63-2.3-7.22-.2-2.16,0-4.36,0-6.54,0-3.45-.43-7,3.58-8.8a5,5,0,0,1,6.63,1.64C160,185.62,165.83,187.47,161.58,193.06Z"/><path class="cls-153" d="M161.58,193.06a29.9,29.9,0,0,0-1.85-5.3c-1.63-2.84-4.1-5.7-7.53-3.88-5.18,2.74-4.08,8.09-3.41,12.65.72,4.88,4,3.71,7.13,2.22-1.24,2.49-2.17,5.83-5.79,5-3.44-.78-3.37-4.23-3.49-7-.22-5-.11-10-.14-15.06l9.44-3.78C157.8,183,167.5,185.11,161.58,193.06Z"/><path class="cls-151" d="M148.3,223.52c-1.34-3.51-.92-6.68,1.73-9.47,5.5-5.81,26.55-6,32.66-.29l-.12,1.5c-1.95,3.61-5.07,4.54-8.88,3.89-8.69-2.57-17.13-3.67-24.12,4Z"/><path class="cls-154" d="M190.08,196.78c.1.62.18,1.24.25,1.86a18.54,18.54,0,0,1-.53,2.17c-.33,1.09-.55,2.2-.79,3.31a2.43,2.43,0,0,1-2.59,1.77l-5.87-5.2c-1.35-2.6-4.15-4.08-5.24-6.87a6.64,6.64,0,0,1,.42-3.58c.31-1.75,1.11-3,3.09-3.08l3.57.26C186.69,189.12,187.47,193.7,190.08,196.78Z"/><path class="cls-151" d="M182.69,213.76c5.33,7.27,0,9.86-5.55,10.69-9.57,1.43-19.31,1.87-28.84-.93l.19-.24c6.87-7.64,15.9-3.93,24-4.32,3.26-.15,6.33.85,7.71-3.21a9.17,9.17,0,0,1,2.21-1.81Z"/><path class="cls-155" d="M167.4,172.08l5.27,6.06c-1.07,1.6-.21,4.21-2.67,5.08a4.06,4.06,0,0,1-2.78-1l-3.66-4.35Z"/><path class="cls-156" d="M197.19,220c-3.77-2.65-7.73-5.16-8.63-10.24A3.17,3.17,0,0,1,192.4,208c2.93,1.68,4.95,4.4,7.38,6.7a5,5,0,0,1,.13,4.35A3.54,3.54,0,0,1,197.19,220Z"/><path class="cls-156" d="M207.13,231c-.61,0-1.23-.08-1.84-.14q-4-5.41-8.1-10.82l.58-.5c6.22-1.1,8.53,3.88,11.72,7.51C209.84,229,208.79,230.19,207.13,231Z"/><path class="cls-157" d="M169.67,199.25c.26,1.54-.49,2-1.45,2.06a2,2,0,0,1-1.54-.71,1.21,1.21,0,0,1,.83-2C168.24,198.48,169.05,199,169.67,199.25Z"/><path class="cls-151" d="M176.83,193.05l3.72,7.64a16.41,16.41,0,0,1-7.78-9.34l1.13-1.07C175.78,190.24,176.68,191.25,176.83,193.05Z"/><path class="cls-151" d="M167.22,182.21c.58-.08,1.16-.15,1.74-.2,4.35-.91,4.77,3.05,6.43,5.36a3.55,3.55,0,0,1-2.06,3.58l-.56.39A15.83,15.83,0,0,1,167.22,182.21Z"/><path class="cls-158" d="M191.81,210.65l-3.25-.86-2.14-3.9v-3.5a2.89,2.89,0,0,1,2.94-.89C191.49,204.2,195.38,206.42,191.81,210.65Z"/><path class="cls-153" d="M154.05,168.45l2,0a14.79,14.79,0,0,1,4.17,7.44l-2.51-1.72Z"/><path class="cls-159" d="M136.52,234.3H124.17c-.12-.46-.23-.91-.34-1.36,1.91-19.11.37-38.27.8-57.41.18-7.86,0-15.73,0-23.59,0-4.28.59-9.09,5.69-9.09S136,147.67,136,152c0,23.28,0,46.56.05,69.84,0,3.72-.87,7.55.78,11.17C136.75,233.41,136.64,233.86,136.52,234.3Z"/><path class="cls-160" d="M136.86,233c-3.05-9.55-1.57-19.38-1.73-29.09-.26-16.06-.07-32.12-.31-48.17-.06-3.25,0-7.91-4.92-7.54-4,.29-4,4.49-4,7.53-.19,20.15-.18,40.3-.25,60.45,0,5.66.25,11.36-1.78,16.81q0-40.86-.08-81.71c0-4.39.11-8.77,1.9-12.91l11.12,1.9Z"/><path class="cls-161" d="M266.38,98.55l-4.47,5.36-3.68,1.83q1-2.73,1.94-5.47Z"/><path class="cls-108" d="M258.45,106.31a10.56,10.56,0,0,1-7.89,3.26c.18-.53.39-1,.62-1.56Z"/><path class="cls-162" d="M233.53,75.5c7.5.76,15,1.48,22.5,2.29,2.82.31,5.92.57,7.29,3.52,1.45,3.13-.95,5.3-2.65,7.52-6.23,8.16-15.38,10.86-24.77,12.11-7.67,1-12.56-7-9.13-14.2,1.87-3.95,4.54-7.52,6.85-11.27Z"/><path class="cls-163" d="M38.27,219.45A11.53,11.53,0,0,1,31.09,216C34,216.16,37.24,215.48,38.27,219.45Z"/><path class="cls-45" d="M207.06,202.66l36.06-.15c3-1.73,5.67-4.18,9.5-3.74q1.92,3.71,3.83,7.41c.49,2.08,1.55,4.26,1.24,6.22-.2,1.29-2.05,0-3.13-.41-11.19,8-23.18,5.22-35.12,2.48-2.87-.65-5.62-1.88-8.59-.54h-3.71c-2,.73-2.6.1-1.93-1.87Q206.14,207.35,207.06,202.66Z"/><path class="cls-120" d="M205.21,212.05l1.93,1.87c2.59,3.42,5.91,6.53,7.61,10.35,2.08,4.67,2.42,9.67-5.59,8.18,2.25-3.27-.21-5.12-2.08-7.19-3-3.5-6.4-6.74-8.26-11.1-2-2-2.68-4.06.35-5.78Z"/><path class="cls-164" d="M199.17,208.38q1.11,2.79,2.21,5.58c-.71,2.18-1.84,3.54-4.35,2.21l-5.22-5.52-3.64-8.05A2.29,2.29,0,0,1,190,201c2,.37,2.78,2.09,3.85,3.48Z"/><path class="cls-165" d="M172.41,187.64,169,182l3.71-3.87c.75.53,1.49,1.07,2.23,1.61q2,3.7,3.92,7.41c0,1.39-.11,2.78-.17,4.17C175,192.69,174.76,188.42,172.41,187.64Z"/><path class="cls-151" d="M190.08,196.78l-7.69-9.36C186.68,189.12,188.84,192.57,190.08,196.78Z"/><path class="cls-71" d="M190.06,174.12l-4,5.63c-.58-4,1.68-6.7,4-9.39C190.11,171.61,190.08,172.87,190.06,174.12Z"/><path class="cls-158" d="M193.87,204.46,190,202.54c-.94-1.1-3.58-1.42-1.75-3.79l2.13-.11Z"/><path class="cls-166" d="M156,166.53c-2.56-3.23-4.05-6.8-3.46-11,3.3,1.41,5.35,4.15,7.36,6.91Z"/><path class="cls-120" d="M210.85,213.93c14.28-7.13,29-4,43.71-1.94-.05.69-.09,1.39-.13,2.08-10.31,5-21.07,2.39-31.7,1.79-2.63-.15-5.2-1.9-7.87-.15l-.3.23Z"/><path class="cls-167" d="M209.36,224.9c3.13,2.6,6.66,5.21-.2,7.55l-2-1.46c-.11-1.2-.21-2.4-.32-3.59C206.19,225.06,207.16,224.36,209.36,224.9Z"/><path class="cls-168" d="M262.3,280.09c.58-6.29-2-12.9,2-18.81.06-.1.68,0,.81.15A13.18,13.18,0,0,1,266,263a24.47,24.47,0,0,0,0,15.48c-.75,1.62-2.15,1.74-3.67,1.6Z"/><path class="cls-169" d="M266,278.48A18.78,18.78,0,0,1,266,263Z"/><path class="cls-170" d="M214.86,215.71a4.63,4.63,0,0,1,4.94-3.58c11.57.12,23.26-1.85,34.63,1.94,1,3.05,3,5.91,2,9.39C242.2,222.82,227.29,225.89,214.86,215.71Z"/><path class="cls-171" d="M199.72,236.39c3.91,2.44,10.26,2.54,9.22,9.69-4.49,5.58-8.17,11.58-9.72,18.69l-3-.67c-.15-3.81.62-7.58,3.08-10.37C204.43,247.9,204.14,242.28,199.72,236.39Z"/><path class="cls-172" d="M87.67,283.58l1.89.54c-.28,3.6.84,7.37-1.76,11.64-3-3.82-1.65-7.84-2.06-11.44Z"/><path class="cls-173" d="M36.13,264.82l-4.92-2c-2.79-8-4.32-16-.59-24.21,1.75-3.82,3.95-5.54,7.51-1.83C40.52,246.36,40.73,255.76,36.13,264.82Z"/><path class="cls-174" d="M54.65,245l-1.06,1.34a6.9,6.9,0,0,1-.79-1.25c-.06-.15.37-.69.48-.66A7.24,7.24,0,0,1,54.65,245Z"/><path class="cls-175" d="M182.77,215.68c-.17,6.7-5.45,7-10,7.32-8.08.47-16.21.23-24.31.28,3.82-10.75,5.91-11.71,24.49-11.29C175.71,214.63,179.93,213.33,182.77,215.68Z"/><path class="cls-176" d="M182.77,215.68A14,14,0,0,1,173,212l9.48,1.95C182.56,214.52,182.66,215.1,182.77,215.68Z"/><path class="cls-177" d="M188.2,198.75l1.75,3.79c-.6,0-1.19,0-1.78.06l-1.75-.21C185.3,200.34,183.38,197.9,188.2,198.75Z"/><path class="cls-178" d="M172.41,187.64l6.24,3.69-1.82,1.72-3.5-2.1C173,189.85,172.71,188.74,172.41,187.64Z"/><path class="cls-179" d="M209.36,224.9l-2.55,2.5-9-7.87c-.24-1.12-.49-2.24-.73-3.36l4.34-2.21Z"/><path class="cls-180" d="M34.51,243.07c2.17,4.61,2.64,9.17-.13,15.26C32,252.17,32.31,247.62,34.51,243.07Z"/></g></g></svg>