<svg xmlns="http://www.w3.org/2000/svg" viewBox="0 0 327 377.59"><defs><style>.cls-1{fill:#1e1e1e;stroke:#b8a473;stroke-miterlimit:10;stroke-width:19px;}.cls-2{fill:#a5a5a5;}</style></defs><g id="Layer_2" data-name="Layer 2"><g id="Layer_1-2" data-name="Layer 1"><polygon class="cls-1" points="317.5 277.7 317.5 99.88 163.5 10.97 9.5 99.88 9.5 277.7 163.5 366.62 317.5 277.7"/><path class="cls-2" d="M279.62,272.1v7.37c-2.4,0-4.8.25-7.18.1-6.5-.42-12.94-1.95-19.5-.19a112.51,112.51,0,0,1-14.12,3.08,26.1,26.1,0,0,1-9.36-.52c-4.11-1-8-3-12.06-4.07a22.34,22.34,0,0,0-8.67-.63c-9.45,1.45-18.81,3.47-28.25,5-4.8.76-9.79,1.6-14.55,1.1-10.23-1.09-20.36-3.1-30.55-4.57-6-.87-12-2-18-2-5.84,0-11.71,1.1-17.53,2-13,1.95-26,3.77-38.35-2.72l-.24-.07-14.44-5.83v-5.89a11.17,11.17,0,0,0,1.3-2.55c1.85-8.21,3.74-16.43,5.39-24.69,1.07-5.35,2.43-10.78,2.44-16.17,0-8.49-.94-17-1.59-25.47a15.09,15.09,0,0,1,2.23-9.59c3.24-5.11,6.41-10.26,9.65-15.38a16.64,16.64,0,0,0,2.65-9.29c-.07-6.87.06-13.75-.05-20.62a10.74,10.74,0,0,1,3.93-8.82c6.38-5.51,12.65-11.14,19-16.69a16.29,16.29,0,0,0,5-8c1.82-6.45,3.71-12.89,5.56-19.33a7.8,7.8,0,0,1,6-5.85c10.37-2.67,20.74-5.35,31-8.25a13.29,13.29,0,0,1,11,1.4c5.7,3.37,11.53,6.52,17.31,9.75a15,15,0,0,0,9.42,1.89c9.5-1.12,19-2,28.54-3.1a11,11,0,0,1,8.25,2.4c3.87,3,7.74,6,11.66,9a17.93,17.93,0,0,1,6,7.86c2.25,5.62,4.64,11.18,6.88,16.8a11.59,11.59,0,0,0,6.48,6.65,96.71,96.71,0,0,1,9.83,4.44c2,1.12,4.22,2.79,5,4.74,2.73,7,5.46,14.08,7.07,21.37,1.35,6.17,1,12.7,1.67,19a78,78,0,0,0,2.37,13.46c1.64,5.64,3.93,11.09,6,16.59a21.07,21.07,0,0,1,1.16,10.6c-.83,6.16-1.73,12.32-2.32,18.51a65,65,0,0,0-.34,12.69c.77,7.64,2.12,15.23,3.29,22.83C278.75,271,279.29,271.55,279.62,272.1ZM137.09,179.45c-1-2.38-1.91-4.46-2.87-6.5-3.34-7.12-10-7.78-14.53-1.31a26.93,26.93,0,0,0-3.64,7.17c-2,6.23-3.67,12.55-5.36,18.87-2.44,9.15-5.09,18.27-7,27.53a108,108,0,0,0-2.09,19c-.1,3.27,1.27,6.64,2.26,9.88a3.38,3.38,0,0,0,4.09,2.35,46.07,46.07,0,0,0,7.15-1.5c6-2.09,11.62-2.27,16.79,2.21,3,2.56,6.62,3.11,10.41,2.36q7.69-1.5,15.37-3.16a30,30,0,0,1,14.56.22c2.45.67,4.94,1.19,7.34,2a23.6,23.6,0,0,0,15.84,0c4-1.45,8.19-2.57,12.5-1.55,2.77.66,5.47,1.64,8.17,2.57,3.59,1.23,6.27.39,7.56-3.18a21,21,0,0,0,1.33-8.35c-1.07-14.43-1.54-29-4.82-43.12-2.36-10.19-4.8-20.38-7.79-30.39a31.37,31.37,0,0,0-6-10.76c-3.38-4-9-2.89-11.36,1.79-.88,1.74-1.47,3.63-2.18,5.45-1,2.5-1.93,5-3.12,8.09a24.26,24.26,0,0,1-1.35-3c-1.3-4.8-2.5-9.64-3.83-14.44-1-3.69-1.84-7.5-3.4-11-1.95-4.33-6.72-4.47-9.29-.43a19.69,19.69,0,0,0-2.52,5.82c-1.65,6.66-3,13.39-4.58,20.08-1,4.3-2.11,8.58-3.17,12.87l-.87,0c-1.07-3.67-2.17-7.33-3.2-11-1.15-4.09-2.14-8.22-3.39-12.28a14.23,14.23,0,0,0-2.26-4.31c-3.22-4.23-8.21-3.6-10.07,1.57S138.69,173.57,137.09,179.45Z"/></g></g></svg>