<svg xmlns="http://www.w3.org/2000/svg" viewBox="0 0 327 377.59"><defs><style>.cls-1{fill:#1e1e1e;stroke:#b8a473;stroke-miterlimit:10;stroke-width:19px;}.cls-2{fill:#b8a473;}</style></defs><g id="Layer_2" data-name="Layer 2"><g id="Layer_1-2" data-name="Layer 1"><polygon class="cls-1" points="317.5 277.7 317.5 99.88 163.5 10.97 9.5 99.88 9.5 277.7 163.5 366.62 317.5 277.7"/><path class="cls-2" d="M49.65,193.35c-7.72-.53-7-.86-7-7.67-.06-12.91,0-25.83,0-38.74v-3.26H56.63c0,3.52.12,7.18,0,10.83-.11,2.28.45,3.25,2.95,3.11,3.67-.21,7.37-.05,11.4-.05v-13.9H85.13c0,3.46.15,7,0,10.56-.14,2.58.59,3.6,3.33,3.42,3.57-.24,7.16-.06,11.06-.06v-14H113.6v43.73c0,5.27-.22,5.5-5.58,5.76-.39,0-.77.13-1.51.25,0,4.19-.05,8.36.06,12.53,0,.51.82,1.19,1.41,1.44a5.74,5.74,0,0,0,2.08.07H220.24v-14a11.93,11.93,0,0,0-1.54-.27c-4.95-.27-5.28-.6-5.28-5.47q0-20.11,0-40.24v-3.78h14v13.73h14.42V143.6h14v13.72h14.32V143.66h14c.05,1.09.15,2.24.15,3.39q0,20.13,0,40.25c0,5.37-.12,5.49-5.5,5.87-.39,0-.76.15-1.55.31v3.81q0,48.36,0,96.71c0,5.45-.49,5.95-6,5.95H54.51c-4.12-.05-4.84-.77-4.84-5q0-49.11,0-98.21Zm92.46,92.28H184.7a9.47,9.47,0,0,0,.23-1.4c0-14.91.07-29.83-.06-44.74A19.87,19.87,0,0,0,177.5,224c-6.82-5.74-14.55-7.16-22.69-3.49-8.46,3.8-12.74,10.73-12.82,20-.1,14,0,28,0,42.05C142,283.51,142.05,284.49,142.11,285.63Zm114-56.77c0-5.11.11-9.78,0-14.44a7.18,7.18,0,0,0-7.06-7.1,7.09,7.09,0,0,0-7.11,6.7c-.25,4.27-.21,8.57-.08,12.85a2.72,2.72,0,0,0,1.85,1.9C247.62,229,251.6,228.86,256.08,228.86ZM71,220.68H70.9c0,2,.06,4,0,6-.06,1.51.44,2.22,2,2.2,3.41-.06,6.81-.08,10.22,0,1.55,0,2.17-.57,2.15-2.09,0-4.21.12-8.42-.07-12.61a7.18,7.18,0,0,0-7.06-6.86A7.28,7.28,0,0,0,71,214.08C70.82,216.26,71,218.48,71,220.68Zm0,58c4.43,0,8.51.06,12.59-.07a2.28,2.28,0,0,0,1.57-1.56c.1-4.5.23-9-.07-13.5a7.05,7.05,0,0,0-14,0C70.84,268.42,71,273.32,71,278.71Zm185-.14c0-5.2.18-10.09-.06-15a6.84,6.84,0,0,0-6.53-6.33c-3.41-.21-7.08,2.1-7.31,5.36-.37,5.23-.1,10.51-.1,15.93Z"/><path class="cls-2" d="M213.22,129H199.1v71h-71v-70.9H113.74L163.51,65Z"/><path class="cls-2" d="M163.7,64.8V43.64l47.76,10.23.06.68Z"/></g></g></svg>