<svg xmlns="http://www.w3.org/2000/svg" viewBox="0 0 555.67 555.67"><defs><style>.cls-1{fill:#fff;stroke:#000;stroke-miterlimit:10;stroke-width:9px;}.cls-2{fill:#333;}</style></defs><g id="Layer_2" data-name="Layer 2"><g id="Layer_1-2" data-name="Layer 1"><circle class="cls-1" cx="277.83" cy="277.83" r="273.33"/><path class="cls-2" d="M88.69,282.71C75.85,281.83,77,281.27,77,270c-.09-21.49,0-43,0-64.48v-5.42h23.39c0,5.85.2,11.95-.08,18-.17,3.79.76,5.41,4.92,5.18,6.12-.35,12.26-.09,19-.09V200h23.61c0,5.77.25,11.69-.08,17.58-.24,4.3,1,6,5.54,5.69,5.94-.39,11.92-.09,18.41-.09V200h23.51v5.79q0,33.49,0,67c0,8.78-.37,9.16-9.3,9.6a25.29,25.29,0,0,0-2.51.41c0,7-.08,13.92.11,20.85,0,.85,1.36,2,2.34,2.39s2.29.13,3.46.13H372.61V282.79a20.63,20.63,0,0,0-2.57-.45c-8.24-.45-8.79-1-8.8-9.09q0-33.5,0-67V200H384.6v22.86h24V199.92H432v22.83h23.83V200h23.36c.08,1.81.25,3.73.25,5.65q0,33.5,0,67c0,8.94-.2,9.13-9.16,9.77a23.78,23.78,0,0,0-2.57.52v6.34q0,80.48,0,161c0,9.07-.81,9.89-10,9.89H102.28c-1.83,0-3.66,0-5.5,0-6.85-.08-8.06-1.29-8.06-8.25l0-163.46ZM242.58,436.29h70.88a15.91,15.91,0,0,0,.38-2.33c0-24.82.12-49.65-.1-74.47a33.09,33.09,0,0,0-12.27-25.81c-11.34-9.55-24.21-11.9-37.77-5.81-14.08,6.33-21.2,17.86-21.32,33.3-.18,23.32-.07,46.65-.06,70C242.32,432.77,242.48,434.39,242.58,436.29ZM432.26,341.8c0-8.5.16-16.27-.05-24A12,12,0,0,0,420.45,306a11.82,11.82,0,0,0-11.84,11.16c-.41,7.11-.34,14.27-.12,21.39,0,1.13,2,3.1,3.08,3.15C418.17,342,424.79,341.8,432.26,341.8ZM124.18,328.19h-.12c0,3.33.1,6.67,0,10-.1,2.5.74,3.69,3.39,3.64,5.66-.09,11.33-.12,17,0,2.59.06,3.62-.95,3.59-3.48-.06-7,.21-14-.12-21A12,12,0,0,0,136.13,306c-5.93-.14-11.34,4.8-11.89,11.25C123.93,320.84,124.18,324.53,124.18,328.19Zm.07,96.58c7.38,0,14.17.11,21-.12a3.76,3.76,0,0,0,2.61-2.59c.17-7.49.39-15-.12-22.48a11.44,11.44,0,0,0-11.9-10.53c-5.91.15-11.17,4.54-11.45,10.47C124,407.65,124.25,415.8,124.25,424.77Zm307.91-.24c0-8.64.31-16.78-.1-24.89a11.36,11.36,0,0,0-10.87-10.53c-5.67-.35-11.77,3.48-12.16,8.92-.62,8.71-.17,17.49-.17,26.5Z"/><path class="cls-2" d="M360.91,175.56H337.43V293.77H219.27v-118H195.35L278.19,69.11C305.69,104.49,332.89,139.49,360.91,175.56Z"/><path class="cls-2" d="M278.51,68.77V33.55l79.48,17,.09,1.13Z"/></g></g></svg>