<svg xmlns="http://www.w3.org/2000/svg" viewBox="0 0 327 377.59"><defs><style>.cls-1{fill:#1e1e1e;stroke:#b8a473;stroke-miterlimit:10;stroke-width:19px;}.cls-2{fill:#a5a5a5;}</style></defs><g id="Layer_2" data-name="Layer 2"><g id="Layer_1-2" data-name="Layer 1"><polygon class="cls-1" points="317.5 277.7 317.5 99.88 163.5 10.97 9.5 99.88 9.5 277.7 163.5 366.62 317.5 277.7"/><path class="cls-2" d="M106.15,218.05c3,.77,6,1.32,8.78,2.32,1.57.56,2.45.47,3.64-.73q16.6-16.74,33.32-33.35,21.09-21.07,42.19-42.14c1.28-1.27,1.67-2.25.87-4-2.59-5.81-2.09-11.78-.59-17.8a29.12,29.12,0,0,1,10.76-16.15,28.39,28.39,0,0,1,17.11-5.89,27.36,27.36,0,0,1,14.09,3.36,29.68,29.68,0,0,1,12.83,13.47,26.22,26.22,0,0,1,2.65,14.7,46.82,46.82,0,0,1-1.33,6.85,27.37,27.37,0,0,1-8.76,13.23c-6.12,5.34-13.51,7.3-21.42,7.2a27.55,27.55,0,0,1-8.21-1.83,3.18,3.18,0,0,0-3.88.85C196.83,169.57,185.4,181,174,192.37q-20.64,20.64-41.3,41.28a2.8,2.8,0,0,0-.78,3.64c2.27,5.39,2.26,10.87,1,16.6a29.91,29.91,0,0,1-12,18.16,27.81,27.81,0,0,1-16.31,5.26,27.46,27.46,0,0,1-14.53-3.64,30.48,30.48,0,0,1-12.5-13.45A25.5,25.5,0,0,1,75,248.67a41,41,0,0,1,3.2-13.85c2.57-6.15,7.63-10.4,13.51-13.42a28.15,28.15,0,0,1,6.64-1.87C100.94,219,103.55,218.54,106.15,218.05ZM114,247.61a9.76,9.76,0,0,0-9.45-9.39,10.08,10.08,0,0,0-9.93,9.8,9.69,9.69,0,1,0,19.38-.41Zm108.19-108.3a9.8,9.8,0,0,0,10.1-9.52,9.9,9.9,0,0,0-9.54-9.86,10.09,10.09,0,0,0-9.86,9.86A9.74,9.74,0,0,0,222.18,139.31Z"/></g></g></svg>