<svg xmlns="http://www.w3.org/2000/svg" viewBox="0 0 1881.09 389.59"><defs><style>.cls-1{fill:#352828;}.cls-2,.cls-3{fill:#2b2d31;}.cls-2{fill-rule:evenodd;}</style></defs><g id="Layer_2" data-name="Layer 2"><g id="Layer_1-2" data-name="Layer 1"><path class="cls-1" d="M189.24,288.48c2.86,9.88-.36,18.4-5.53,27.32l-3.31-5.71c-.85,12.54,4.39,18.9,15.82,19.43-2.08,3.9-2.93,4.17-12.77,3.76,7.64,6.18,14.62,12.05,21.87,17.56,1.82,1.39,4.51,1.65,6.82,2.43,3.67-4.21,7.48-8.08,7.15-14.45a3.4,3.4,0,0,1,5.32-3c3.76,2.74,6.81,6.49,10.07,9.89a1.73,1.73,0,0,1-.27,1.66c-.53.42-1.75.85-2,.59-4.31-4.14-5.4,1-7.72,2.31,2.17,1.29,5.76,2.32,5.92,3.74.48,4.17-.41,8.5-1.34,12.71-3.25-6.31-4.29-6.65-11-5.57-2.63.42-5.45-.37-8.43,0,1.92.75,3.82,1.54,5.76,2.22,6,2.09,6.81,3.9,3.58,9.35a34.82,34.82,0,0,1-6,6.9c1.15-6.46-2.36-8.6-7.41-10.65-4.43-1.79-8.14-5.36-12.33-8.25-5,5.72-11.95,8.28-19.47,9.8-1.11.23-2.19,2.31-2.6,3.72-.29,1,.58,2.35,1,3.84-6.52-2.29-9.62-8.24-8.78-16.75,2.55,0,5.21-.33,7.77.06,6.71,1,13.3-2,14.79-7.43a8.71,8.71,0,0,0-.3-5.89c-2.2-4.06-5-7.78-8.13-12.4-.38,2.37-.62,3.89-1.09,6.78l-9.54-11.29c-2.1,11-.29,13.68,13,20.85-8.66,8.17-14.5.1-21.06-3.83-4,8.4-.15,16.48.23,25.42l-5.16-4.47c2.55,11.28,10.38,14.57,20,15.53-4.53,5-10.7,6.63-15.77,3.12-4.78-3.3-8.72-7.81-13-11.72-8.73,16.17-16.65,14.94-27.67,9.72,8.8-2.13,17.22-4.43,19.64-15.4l-4.19,2.59c.39-4.58.83-8.33,1-12.1s0-7.54,0-11.56c-8,1.05-14.07,10.28-22.78,3.37,7.64-4.94,16.75-8.91,13.81-21.2l-9.79,10.37c-.69-2-1.18-3.39-1.91-5.51-2.62,4.67-5.33,8.74-7.24,13.16a7.75,7.75,0,0,0,5.83,10.77,46.32,46.32,0,0,0,11,.12c3.63-.28,6.41,1.82,6.09,5.19-.41,4.48-4,9.32-8.93,11.7,1.34-4.15,1.12-6.38-4.17-7.32s-10.21-4.15-15.1-6.74c-2.44-1.29-4.1-1.48-6.49.26-4.19,3.07-9,5.34-13.09,8.49-1.9,1.45-2.82,4.18-4.66,7.08-1.69-3.64-5.66-8.18-4.78-11.4s6.69-4.87,9.24-6.51c-2.44-.19-6.08-.42-9.71-.76-4.42-.42-7.21,1.34-7.57,6.75-5.2-9.4-3.5-15.29,4.08-16l-4.14-5.85-5.79,3.18c1.23-5.08,2.87-9.65,7.89-12,4.58-2.13,6.43-.91,7.44,4.05.62,3,1.65,6.55,3.72,8.61,4.12,4.09,9.32,3.61,14.57-.82,5.09-4.3,9.83-9,15.32-14.11L95.58,332l-.92-1.79c14.08-.86,16.36-10.43,16.83-21.2l-2.73,7.13-1.36.44c-2.38-7.66-4.75-15.32-7-22.46A36.16,36.16,0,0,1,82.6,313.71L81,313.05l4.42-24.21c-5.69,4.66-11,9.28-16.61,13.45-2.12,1.58-5,2.29-7.58,3-1.16.32-2.59-.3-3.89-.49.31-1.26.34-2.69,1-3.76,4.29-7.29,8.71-14.49,13.07-21.74a13.75,13.75,0,0,0,.74-1.91c-19.62,11.69-24.64,13.16-33.87,10.71l18.21-21.74c-9.7,4.49-22,8.83-36.95,3.74L56,246.43c-16.27,4.41-32.22,3.22-48.12-.59l-.28-1.55,40-13c-16.74-1.2-33.07-2.51-47.09-15.72L42,213C26,207.91,10.79,202.4,0,187.52l44.77,7.11c-6.52-3.59-12.1-6.18-17.14-9.57a88.89,88.89,0,0,1-14.9-12c-4.28-4.48-7.45-10-11.1-15.09L3,156.44l40.6,17.45c-14.1-12.09-26.89-24.75-31.26-45.14L51,156.23c-6.31-8.43-10.26-17.47-7.93-29.53,9.35,15.59,26,21.19,37.6,32.67L93.4,145.55c0,2.75.34,4.41-.06,5.86-4,14.52-7.29,29.14-7,44.68L99.53,189l1,1.3C89.58,205.73,84,221.94,93.07,240.24L99.15,235c-.85,9.89,2.33,18.7,8.32,20.42,7.43,2.14,15-1.87,18.31-9.54l-6.4-2.34c3.07-3.71,6.05-7,8.62-10.56,1.17-1.63,1.53-3.83,2.61-6.68l-4.34,3.22c.43-4.37.81-8.13,1.24-12.49-1.43.46-2.39,1-3.34,1a4,4,0,0,1-2.78-1,3.08,3.08,0,0,1-.23-2.84c1.7-2.77,3.69-5.36,5.57-8-4-3.39-8.3-3.5-13.19-1.62-4.32,1.66-8.93,2.56-13.71,3.88.11-4.54.1-4.2,3-4.14,2.51.05,5.42-.11,7.49-1.32,5.28-3.11,10.71-2.44,16.32-2,2-8-1.3-11.28-14.14-13.9.29-2.25.39-4.55.88-6.76,1.13-5.07,5.31-3.1,8.49-3.61,7.36-1.19,14.83-2.12,22-4.17,2.58-.74,4.33-4.38,7.76-8.11.67,4.7,1.17,8.22,1.71,11.93l8.15-1.79c-.64,1.64-.74,3-1.46,3.6-6.15,5.31-3.52,10.87-.77,16.58,1.6,3.31,2.89,6.76,4.91,11.56l-6-2.19,7.54,23.9-5.09-2.44c2.09,4,3.38,7.47,5.58,10.27s5.25,4.81,8.72,7.85L166.94,246c3.58,6.72,8.9,11.72,17.19,9.1,3.13-1,6.27-4.85,7.49-8.12,1.29-3.45.29-7.76.29-12.38l7.23,4.88c9.94-18.1,1.08-33.68-6.64-50.81L206,196.42c-1-9.49-1.53-17.78-2.89-25.91-1.32-7.91-3.53-15.68-5.34-23.5l1.59-.8c2.31,2.63,4.81,5.13,6.9,7.93,3.91,5.23,4.81,5.21,9.89,1.1,4.68-3.79,10-6.84,14.67-10.59,6.06-4.82,11.81-10,17.86-15.2,2.34,3.94,2,8.71-.31,13.38-2.1,4.24-4.58,8.29-7.58,13.65l36.87-26.31c1.41,8.77-2.7,14.91-7.3,20.51-7.09,8.63-14.71,16.83-19.38,22.13l40.4-17.41c-7.78,21.67-27.19,28.58-44.7,39.33l44.62-7.07c-4.53,8-11.37,12.71-18.57,16.35s-15,5.68-22.48,9.11l40.54,2.28c-5.74,8.41-13.68,10.68-21.77,12.08s-16.42,2-26.22,3.08l42.69,14.23c-15.72,7.14-31.13,4.92-46.77,3.49l32.73,21.08c-6,5.28-17.59,4.12-38.16-3.16l22.83,21.58c-14.27,3.57-25-3-36-9.61,4.39,7.29,8.84,14.53,13.09,21.9.88,1.53,1,3.5,1.43,5.27-1.8,0-4.05.72-5.32-.11-5.72-3.72-11.26-7.74-16.64-11.94-2-1.6-3.5-4-5.22-6l-1,.7c1.67,8.23,3.33,16.46,5.17,25.51-7.23-.9-11.09-5.63-14.44-10S191.79,293.54,189.24,288.48Z"/><path class="cls-1" d="M191.59,89.76l-3.17-9.31c-2.12,3-4.1,5.72-6.06,8.47,7.58-.68,9.17,1.38,7.84,8.79-3,16.74-21,30.31-35.19,33-17.27,3.31-32.66-.51-45.33-12.51A45.77,45.77,0,0,1,95.47,89.92C93.6,73.2,98.09,58.07,111,46.8c14.61-12.75,31.68-16.43,50-9.3,4.3,1.68,7.59,6.14,11.14,9.55,4.06,3.9,7.62,8.37,11.88,12,6.86,5.89,7.92,13.93,9,22a62.52,62.52,0,0,1,.06,8.33Z"/><path class="cls-1" d="M124.54,13.87c8,3.29,10.1,8.67,7.41,17.35l-15.57-5.85c-.17,3.68-.33,7.29-.5,11.06-3.63.37-7.46-3.29-6.48-7.95a194.16,194.16,0,0,1,5.1-18.77c.38-1.19,2.39-1.86,3.65-2.76.7,1.19,1.76,2.31,2,3.59.36,1.76-.24,3.73.22,5.44.38,1.41,1.7,2.56,2.61,3.82.44-1.34.91-2.68,1.32-4A15.22,15.22,0,0,0,124.54,13.87Z"/><path class="cls-1" d="M98.62,55.21c-2.74,1.25-5.25,2.41-7.78,3.54-2.13,1-4.29,1.87-7.44,3.23l8.44,7.93c-4.16,3.15-8.16,3.11-11.2-1.55-3.88-5.94-6.9-12.45-10.17-18.77-.26-.5.37-1.46,1-3.51L83.49,54.5c2.18-3.38,2.18-3.38-2.52-5.83C89.1,44.53,96.37,47.64,98.62,55.21Z"/><path class="cls-1" d="M165,22.92l-8.66,8.14c-.24-3.12-1.6-6.58-.45-8,5.25-6.51,12.42-10.34,20.61-12.16a5.08,5.08,0,0,1,2,.13c.29.05.53.35,1.45,1L172.5,22.89l1.69,1.4,5-3.74c3.44,7.91-.84,16.62-7.29,16.9-1.05-2.66-1.87-5.05-2.93-7.32S166.56,25.73,165,22.92Z"/><path class="cls-1" d="M213.22,62.56c-2.35,8.41-8.4,10.77-17.21,8q3.06-7.66,6.1-15.34H190.52c1.57-6.59,3.1-7.64,9.95-6.42C207,50,213.39,51.55,218.8,55.56l.06,1.92a69.93,69.93,0,0,0-8.18,1.43c-1.31.37-2.35,1.7-3.51,2.6a32.21,32.21,0,0,0,3.71,1.87C211.29,63.54,212,63,213.22,62.56Z"/><path class="cls-1" d="M75.24,102.4c3.52-7.58,12.3-10.24,17.33-6.36-1.14,2.49-2.34,4.74-3.2,7.12S88,108.05,87.18,111l10.91.58a4.87,4.87,0,0,1-4.73,5.84,35.79,35.79,0,0,1-21.66-6c-1-.64-1.36-2.1-2.08-3.27,2.88-.52,5.44-.82,7.89-1.51,1.34-.38,2.47-1.44,3.7-2.19-1.23-.58-2.45-1.22-3.71-1.72A11,11,0,0,0,75.24,102.4Z"/><path class="cls-1" d="M213.31,116.36c-3.18-4.13-6.47-5.24-10.2-3.1l2.69,5.12c-11,.93-15.48-1.53-15.32-7.51l15.58-7.58-7.31-9.21c2.23-1.52,6.32-1.22,9.24,3.33,2,3.15,4.09,6.42,5.16,9.94C214,110.12,213.31,113.34,213.31,116.36Z"/><path class="cls-1" d="M116.4,129c1.38,2.67,2.47,4.7,3.47,6.77,1.1,2.27,2.12,4.59,3.51,7.63l8.2-7.57c2.8,1.68,2,4.43,1,7-2.12,5.22-9.35,8.21-17.69,7.55-2.64-2.51,4-6.57-1.81-8.72l-3.65,3.94c-.47-2.71-1.11-4.57-1-6.41C108.56,133.47,112.94,128.92,116.4,129Z"/><path class="cls-1" d="M170.71,150.5l-5.45-4.78-3.08,4.56c-6.57-2.49-8.58-8.94-5.2-15.24l15.26,5.65V129c3.84.43,6.89,2.46,6.89,7.41C179.11,143.6,176.3,150.15,170.71,150.5Z"/><path class="cls-1" d="M104.46,41,94,31l-.8.68,6.34,9.46c-5.1,1.09-8.5-.56-10.64-5.29a4.79,4.79,0,0,1-.51-1.36c-.36-3.39-.66-6.78-1-10.17,3.88,1.24,8.52,1.55,11.44,3.95,3.26,2.68,5,7.24,7.36,11Z"/><path class="cls-1" d="M86.7,81.44H72.24l-.14,1.31,11.78,2.71c-2.91,3.6-6.34,5.47-11.2,3.39C71.49,88.34,70,88.3,69,87.56c-2.32-1.77-4.42-3.83-6.6-5.78,3-1.67,5.94-4.59,9-4.73,5.14-.24,10.36,1.29,15.55,2.08Z"/><path class="cls-1" d="M204,24.73c-1.82,11.89-6.52,17-17.8,18.82l9.69-10.13-.58-.89-9.58,5.67c-.95-4.67,1.11-8.91,5.62-10.28C195.33,26.7,199.43,25.86,204,24.73Z"/><path class="cls-1" d="M144.45,10.91,142,22.14c-6.41-2.93-5.47-12.5,3-22.14,6.47,5.1,7.95,17.46,1.23,25.71V11.05Z"/><path class="cls-1" d="M201,84.87h15.86c0-.64.09-1.27.14-1.9l-11.82-1.69c3.88-7.73,13.23-6.33,20.79,3.45C220.47,90.59,211.76,91.68,201,84.87Z"/><path class="cls-1" d="M103.27,123.35l-12.09,8.37,2,2.22q4.72-3,9.41-6.06c1.49,6.33-.13,8.11-11.76,12.07-1.12-2.72-3.34-5.6-3.18-8.33.25-4.12,7-8,14.4-9.47Z"/><path class="cls-1" d="M188,124.21c7.75-.12,10.46,2.44,13.07,11.35C192.55,136.28,193.29,127.75,188,124.21Z"/><path class="cls-1" d="M183.25,125.76l12,12.4C191,141,187.38,137.75,183.25,125.76Z"/><path class="cls-1" d="M141.92,158.45c-5.28-2.81-5.3-9.13,0-17.21Z"/><path class="cls-1" d="M144.89,158.44c.63-5,1.22-9.75,1.82-14.55C152.75,149.91,152.22,155.8,144.89,158.44Z"/><path class="cls-2" d="M377.65,237.94h-9.77a1.44,1.44,0,0,1-1.44-1.43V177.25a1.44,1.44,0,0,1,1.44-1.46h9.77C413.06,175.79,413.74,237.94,377.65,237.94Zm84.58,96.36A11.79,11.79,0,0,1,451,322.57v-31c0-23.41-11.1-43.58-34.1-51.06a1.45,1.45,0,0,1-.21-2.65,35,35,0,0,0-16.11-66h-74c-1.61,0-3.39-.35-3.39.88,0,1.43-.32,3,.82,3a11.78,11.78,0,0,1,11.21,11.74v135a11.77,11.77,0,0,1-11.21,11.73.87.87,0,0,0-.82.88c0,1.4-.32,3,.88,3h51c1.6,0,3.38.35,3.38-.87,0-1.43.32-3-.82-3a11.77,11.77,0,0,1-11.21-11.73V243.28a1.46,1.46,0,0,1,1.43-1.46h16.47c22.42,0,34.33,21,35.47,42.91.61,11.8.41,24.47.12,37.37a12,12,0,0,1-11.27,12.2.9.9,0,0,0-.85.88c0,1.4-.32,3,.88,3h51c1.63,0,3.38.35,3.38-.87,0-1.43.32-3-.81-3Z"/><path class="cls-2" d="M529.69,334.58c-35.15.2-36.26-88.28-.15-88.13h.35C565,246.8,565.71,334.37,529.69,334.58ZM595.87,244h4a.9.9,0,0,0,.87-.9v-1.87a.9.9,0,0,0-.87-.88H557.07c-9.14,0-18.68.53-27.18.27-15.09-.47-26.86-4.53-27-26.19-.15-26.68,12.52-38.65,26.77-38.65,17.6,0,31.91,20.93,34.45,40.81a.87.87,0,0,0,1.37.61l21.1-14.3a.88.88,0,0,0,.33-1.08c-8.56-19.74-25.61-29.92-57.25-29.92-32,0-57.92,19-57.92,42.53,0,12.49,8.2,24.78,19.88,32.58h0c-36,26.62-23.32,91.17,38,91.2,13.08,0,23.94-2.92,32.58-7.77a.91.91,0,0,1,1.2.32l4.08,7a.83.83,0,0,0,.76.44h31.53a.89.89,0,0,0,.87-.88v-1.87a.87.87,0,0,0-.87-.87h-4c-6.74,0-12.55-5.2-12.55-12V256.55A12.8,12.8,0,0,1,595.87,244Z"/><path class="cls-2" d="M670.37,334.32H652.5V175.77h17.63c45-.17,51.65,158.34.24,158.55Zm-.24-162.43h-60a.88.88,0,0,0-.87.88v2.13a.9.9,0,0,0,.84.9,11.79,11.79,0,0,1,11.21,11.74v135a11.8,11.8,0,0,1-11.21,11.77.89.89,0,0,0-.84.88v2.16a.88.88,0,0,0,.87.87h60.2c50.79,0,66.82-36.66,66.82-83.17,0-47-15.94-83.14-67.06-83.14Z"/><path class="cls-2" d="M343.37,122.76H340.9a.36.36,0,0,1-.36-.36v-15a.36.36,0,0,1,.36-.37h2.47c8.94,0,9.11,15.69,0,15.69Zm21.35,24.33a3,3,0,0,1-2.83-3v-7.82c0-5.91-2.8-11-8.61-12.89a.37.37,0,0,1,0-.67,8.83,8.83,0,0,0-4.07-16.66H330.48c-.4,0-.85-.09-.85.22s-.08.75.2.77a3,3,0,0,1,2.84,3v34.09a3,3,0,0,1-2.84,3,.23.23,0,0,0-.2.23c0,.35-.08.76.22.76h12.87c.4,0,.85.09.85-.22s.09-.75-.2-.77a3,3,0,0,1-2.83-3v-20a.37.37,0,0,1,.36-.37h4.16c5.66,0,8.66,5.3,8.95,10.84.16,3,.1,6.18,0,9.43a3,3,0,0,1-2.84,3.08.24.24,0,0,0-.22.23c0,.35-.08.76.22.76h12.87c.42,0,.86.09.86-.22s.08-.75-.21-.77Z"/><path class="cls-2" d="M399.13,143.21a.21.21,0,0,0-.21.17,4.74,4.74,0,0,1-4.67,3.73H377.83a.21.21,0,0,1-.21-.21V127.81a.21.21,0,0,1,.21-.22h10.68a1.75,1.75,0,0,1,1.76,1.74c0,.3.49.21.85.21a.22.22,0,0,0,.22-.22l0-2.22,0-2.23c0-.3-.48-.22-.85-.22a.23.23,0,0,0-.22.22,1.76,1.76,0,0,1-1.76,1.74H377.83a.21.21,0,0,1-.21-.22V107.3a.21.21,0,0,1,.21-.21h16.42a4.74,4.74,0,0,1,4.67,3.73c.05.23.39.17.76.17a.22.22,0,0,0,.21-.26l-.85-4.45a.21.21,0,0,0-.21-.18h-31.9a.22.22,0,0,0-.22.21c0,.26-.06.59.07.72s.74.15,1,.24a2.94,2.94,0,0,1,2,2.79v34.08a2.93,2.93,0,0,1-.86,2.09,3.32,3.32,0,0,1-2,.9.15.15,0,0,0-.07,0c-.13.14-.07.48-.07.72a.21.21,0,0,0,.22.21h31.9a.2.2,0,0,0,.21-.17l.85-4.46c.06-.34-.45-.25-.76-.25Z"/><path class="cls-2" d="M432.4,127.09v17a3,3,0,0,0,2.83,3,.22.22,0,0,1,.22.22v.54a.22.22,0,0,1-.23.22h-6.4c-.93,0-1.42,0-2-.8l-1.94-2.7a.18.18,0,0,0-.15-.09.2.2,0,0,0-.17,0,14.56,14.56,0,0,1-9.23,3.39c-9.37,0-16.95-9.4-16.95-21,0-13.07,8.91-20.5,17.58-21,4.74-.26,10.86,1.72,13.89,5.63a10.45,10.45,0,0,1,2,3.13.21.21,0,0,1-.08.27l-5.55,3.84a.2.2,0,0,1-.21,0,.19.19,0,0,1-.13-.16c.28-6.2-1.81-11.46-7.91-11.57-8.64-.15-11.71,13.14-11.71,19.85,0,10.51,5.39,19,12,19a9,9,0,0,0,6.19-2.71.22.22,0,0,0,.07-.16V136.6a9,9,0,0,0-8.87-9,.22.22,0,0,1-.21-.22v-.55a.22.22,0,0,1,.22-.22h16.5a.22.22,0,0,1,.22.22Z"/><path class="cls-2" d="M472.45,107.07c.29,0,.21-.4.21-.76s-.43-.23-.82-.23h-6c-.3,0-.22.42-.22.77a.21.21,0,0,0,.21.22,3,3,0,0,1,2.83,3v36a.22.22,0,0,1-.42.1l-18.75-39.92a.23.23,0,0,0-.2-.14h-10.9c-.29,0-.22.42-.22.77,0,.17.15.24.36.24.69,0,1.86,0,1.86,2v35a3,3,0,0,1-2.83,3c-.29,0-.22.4-.22.76s.44.22.83.22h6c.3,0,.22-.41.22-.76a.21.21,0,0,0-.21-.22,3,3,0,0,1-2.83-3v-36a.22.22,0,0,1,.43-.09L460.51,148a.26.26,0,0,0,.21.12h11.64c.3,0,.22-.41.22-.76a.22.22,0,0,0-.21-.22,2.78,2.78,0,0,1-2.75-2.82V110a3,3,0,0,1,2.83-3Z"/><path class="cls-2" d="M509.33,106.09h-13.5a.23.23,0,0,0-.23.22v.55a.22.22,0,0,0,.21.22,3,3,0,0,1,2.83,3v30.3a6.76,6.76,0,1,1-13.52,0v-30.3a3,3,0,0,1,2.84-3,.22.22,0,0,0,.2-.22v-.55a.22.22,0,0,0-.22-.22h-13.5a.22.22,0,0,0-.22.22v.55a.21.21,0,0,0,.21.22,3,3,0,0,1,2.82,3v23.41a14.63,14.63,0,1,0,29.26,0V110.05a3,3,0,0,1,2.83-3,.22.22,0,0,0,.21-.22v-.55a.23.23,0,0,0-.22-.22Z"/><path class="cls-2" d="M554.12,109.38a3,3,0,0,1,2.83-2.3.23.23,0,0,0,.21-.22v-.54a.23.23,0,0,0-.22-.23H546.28a.23.23,0,0,0-.21.15l-11,29.69a.22.22,0,0,1-.2.14.23.23,0,0,1-.21-.13L522.3,106.23a.23.23,0,0,0-.21-.14H511.34a.24.24,0,0,0-.23.22v.55a.23.23,0,0,0,.22.22,3,3,0,0,1,2.83,3v34.09a3,3,0,0,1-2.83,3,.22.22,0,0,0-.22.22v.54a.23.23,0,0,0,.23.22H518a.22.22,0,0,0,.22-.22v-.54a.21.21,0,0,0-.21-.22,3,3,0,0,1-2.83-3V109.78a.22.22,0,0,1,.18-.22.23.23,0,0,1,.25.13l9.06,21.55,6.72,16.32a.22.22,0,0,0,.21.14.23.23,0,0,0,.21-.14l3.59-9.71,10.46-28.17a.22.22,0,0,1,.43.07v34.39a3,3,0,0,1-2.83,3,.21.21,0,0,0-.21.22v.54a.22.22,0,0,0,.23.22h13.5a.22.22,0,0,0,.22-.22v-.54a.22.22,0,0,0-.21-.22,3,3,0,0,1-2.83-3V109.38Z"/><path class="cls-2" d="M588,112.93c.61-3,2.82-5.51,5.65-5.67,5.9-.34,9.25,3.62,8.9,11.55a.17.17,0,0,0,.12.17.2.2,0,0,0,.21,0l6-4.11a.22.22,0,0,0,.09-.27c-2.19-5.38-9-8.49-14.57-8.49-8.08,0-14.62,5.58-14.62,12.47,0,14.8,18,9.1,20.78,18.88,1.26,4.37-1.51,9.25-5.5,9.49-5.9.34-9.25-3.62-8.89-11.55a.19.19,0,0,0-.13-.17.22.22,0,0,0-.21,0l-5.95,4.12a.22.22,0,0,0-.09.27c2.19,5.38,9,8.48,14.57,8.48,8.08,0,14.63-5.58,14.63-12.46C609,120,585.26,126.73,588,112.93Z"/><path class="cls-3" d="M635.39,125.51l-2.59.56a1,1,0,0,1-.56,0,.19.19,0,0,1-.12-.1,1.11,1.11,0,0,1-.12-.55l.18-3.55a.16.16,0,0,0-.16-.16h-.12c-.68,0-2.49.13-2.24,1.28l.56,2.59a1,1,0,0,1,0,.55.21.21,0,0,1-.11.13,1,1,0,0,1-.53.12l-3.56-.17a.16.16,0,0,0-.17.14v.13c0,.69.14,2.49,1.28,2.24l2.59-.56a1.06,1.06,0,0,1,.56,0,.23.23,0,0,1,.12.1,1.14,1.14,0,0,1,.12.55l-.17,3.55a.14.14,0,0,0,.15.16h.12c.68,0,2.49-.13,2.24-1.27l-.56-2.6a1,1,0,0,1,0-.55.2.2,0,0,1,.11-.13,1,1,0,0,1,.53-.12l3.56.17a.16.16,0,0,0,.17-.14v-.13c0-.68-.14-2.49-1.28-2.24Z"/><path class="cls-3" d="M631.23,147.11c-7.22,0-13.07-9-13.07-20s5.85-20,13.07-20,13.06,9,13.06,20-5.84,20-13.06,20Zm0-41a21,21,0,1,0,21,21,21,21,0,0,0-21-21Z"/><path class="cls-2" d="M685.92,143.21c-.36,0-.7-.07-.75.17a4.75,4.75,0,0,1-4.67,3.73H664.08a.22.22,0,0,1-.21-.22V110.05a3,3,0,0,1,2.84-3,.22.22,0,0,0,.2-.21c0-.37.08-.78-.22-.78H653.17a.22.22,0,0,0-.21.21c0,.37-.07.76.21.78a3,3,0,0,1,2.84,3v34.09a3,3,0,0,1-2.84,3c-.28,0-.21.4-.21.77a.21.21,0,0,0,.21.21h31.91a.21.21,0,0,0,.21-.17l.85-4.45a.22.22,0,0,0-.22-.26Z"/><path class="cls-2" d="M701.3,107.08a.22.22,0,0,0,.22-.22v-.54a.23.23,0,0,0-.22-.23H687.79a.23.23,0,0,0-.22.23v.54a.22.22,0,0,0,.21.22,3,3,0,0,1,2.83,3v34.09a3,3,0,0,1-2.83,3,.21.21,0,0,0-.21.22v.54a.22.22,0,0,0,.22.22H701.3a.22.22,0,0,0,.22-.22v-.54a.22.22,0,0,0-.22-.22,3,3,0,0,1-2.82-3V110.05a3,3,0,0,1,2.82-3Z"/><path class="cls-2" d="M710.49,112.93c.61-3,2.82-5.51,5.65-5.67,5.9-.34,9.25,3.62,8.89,11.55a.19.19,0,0,0,.13.17.2.2,0,0,0,.21,0l6-4.11a.22.22,0,0,0,.09-.27c-2.19-5.38-9-8.49-14.57-8.49-8.08,0-14.63,5.58-14.63,12.47,0,14.8,18,9.1,20.79,18.88,1.26,4.37-1.51,9.25-5.5,9.49-5.9.34-9.25-3.62-8.9-11.55a.17.17,0,0,0-.12-.17.22.22,0,0,0-.21,0l-5.95,4.12a.21.21,0,0,0-.09.27c2.19,5.38,9,8.48,14.57,8.48,8.08,0,14.63-5.58,14.63-12.46C731.43,120,707.72,126.73,710.49,112.93Z"/><path class="cls-1" d="M940.89,201.31l10.9-15c1.11-2.83,2.05-5.78,4.88-7.48,4.8.18,9.13,1.2,11.16,6.31.3,4.71-2.84,8.43-3.62,12.84C957.82,207.26,949,214.84,945,225.8a6.6,6.6,0,0,1-2,1.83c-3.39,1.9-6.84,2.45-9.26-1.21-2.3-3.46-5.64-6.62-2.57-11.79A98.55,98.55,0,0,1,940.89,201.31Z"/><path class="cls-1" d="M832.69,132.67c7.06,5.06,9.74,14.81,18.81,17.73,9.93,15,21.94,28.24,35.16,40.39,4.94,7.28,12,13,15.87,21l-.92.89c-5.53,1.44-8.58-2-11.71-5.7-4.3-5.11-6.86-11.68-12.82-15.4-8.53-8.93-17.6-17.43-23.37-28.63-1-1.95-3-2.65-4.77-3.58-6.29-5.24-11.75-11.32-17.32-17.26-2.69-2.85-5-6-1.42-9.91A2.46,2.46,0,0,1,832.69,132.67Z"/><path class="cls-1" d="M927,234.77c1.65,3.95,5,7.14,5.34,11.68-3.28,1.43-5.72-.14-7.56-2.53-6.06-7.81-13.59-14.22-20.22-21.48-2.57-2.82-5.2-5.72-2.52-9.92l.5-.71Z"/><path class="cls-1" d="M941,224.12c-3.45,11.09-6.93.29-10.4,0-2.76-8.57.56-15.89,10.33-22.83-3,4.93-6,9.91-9.15,14.78-2.25,3.49.24,5.16,2.22,7.39C936.27,226.09,938.34,227,941,224.12Z"/><path class="cls-1" d="M956.71,180.15l-4.92,6.17c.39-2,.79-4,1.18-5.93,4.63-2.84,4.12-10.73,11.06-11.28C966.31,175.93,963,179,956.71,180.15Z"/><path class="cls-1" d="M816.18,387.43l-3.32.3c-6.34-2.18-12.66.78-19,.11-2.64-.28-6.71,1.19-7.09-2.79-.35-3.56,3.36-4.14,6.25-4.66,7.51,1.82,9.86-2,11.52-8.86,4.84-19.94,3.9-40,2-60-.57-5.9-.68-11.72.74-17.26,4.92-19.12,1.19-37.91-1.52-56.75a18.12,18.12,0,0,0-4-9.63c-10.12-11.33-8.45-24.79-6.83-38.14,1.09-9-3.49-17.47-1.86-26.44,1.69-9.2-2-18.75,3.21-28,2-3.65.24-10.43-5.62-12.85-2.93-1.21-5.15-2.67-5.66-6-.31-3.33-.32-6.55,3-8.6,18.91-4.8,29.25,6.7,38.49,20.32-1.06,8.84-1.84,17.7-2.41,26.6-.4,6.24-.56,12.79-6.07,17.33l-1.23,3.14c.88,2.26.54,4.63.54,7q0,98.82,0,197.65C817.26,382.38,818.15,385.14,816.18,387.43Z"/><path class="cls-1" d="M818,172.09c.81-9.52,1.45-19.07,2.51-28.57.46-4.06,1.42-8,.46-12.15-1.26-5.5,1.74-3.42,4.16-2.14,2.6,0,4,1.54,4.7,3.86l21.61,24.36c6.72,11.7,6.1,24.83,7,37.6.46,6.8-3,9-11.61,8.28-5.52-4.07-11.65-7.53-14.48-14.34A53.37,53.37,0,0,0,818,172.09Z"/><path class="cls-1" d="M865.4,331.35q-1.78,5.07-3.58,10.12a8.43,8.43,0,0,0-1.45.54c-3.18,4-5.62,8.54-9,12.42l.07-.1c-1.41,5.23-5.84,8.53-8.37,13-3.93,1.49-1.87,8.35-7.45,8.36-3.39-5.6-.42-11.9-1.94-17.71a3.82,3.82,0,0,1,2.24-3.43l3.45-6.76c6-10.42,13.43-19.92,20.34-29.73a2.66,2.66,0,0,1,3-1C869.41,320.59,869.69,322.1,865.4,331.35Z"/><path class="cls-1" d="M816.18,387.43q.06-101.28.13-202.58c0-3.21.28-6.41.44-9.62,1.81,2.93,1.38,6.21,1.38,9.4q.06,97,0,193.92c0,3.75.71,7.66-1.76,11Z"/><path class="cls-1" d="M832.31,189,846,201.66c8.6,1.87,13.15,8.54,17.67,15.15,1.79,2.61,3.28,5.53.85,8.69a2.28,2.28,0,0,1-2.47.49c-9.85-11.78-18.73-24.48-31.6-33.39Z"/><path class="cls-1" d="M861.92,317.33c-8,9.81-13.35,21.57-22.53,30.5a18.86,18.86,0,0,1,3.45-9.36c5.23-4.65,7.83-11.26,12.29-16.47,2-2.34,3.48-5.39,6.94-6.1.36.37.46.7.29,1S862.06,317.33,861.92,317.33Z"/><path class="cls-1" d="M835.94,354.59,833.7,358c-2.77,4.84-.62,10.31-1.93,15.44C828.71,362.38,829.8,357.52,835.94,354.59Z"/><path class="cls-1" d="M842.77,366.82c1.57-5.09,5-8.89,8.69-12.49.36,6-5.27,9.15-6.93,14.21l-1.76,0c-.6-.37-.8-.74-.6-1.12S842.57,366.82,842.77,366.82Z"/><path class="cls-1" d="M842.77,366.82q0,.84,0,1.68c-2.3,2.49-.69,8.86-7.13,7.23C838.29,373,839.07,368.72,842.77,366.82Z"/><path class="cls-1" d="M971.16,180.22c-.79,2.89-3.62,3.7-5.54,5.45a13,13,0,0,1-8.91-5.52l7.32-11q1.54-2.31,3.07-4.63a75.18,75.18,0,0,1,13.54-19.32c2.59-4.26,3.37-10.13,9.77-11,4.13,6.65,3.53,13.2-.37,19.69l.06-.13c-3,4.12-5.52,8.55-8.85,12.41l-.08-.19C978,170.84,975.08,175.88,971.16,180.22Z"/><path class="cls-1" d="M1007.63,296.3l.09-42.15q0-68.52,0-137c0-3.78-1.78-8.51,3.55-10.65l.18.26c1.28,3.6,2.61,7.35,2,11.1-2.22,14.19,1,28.36-.37,42.61-2.36,25.24-.58,50.6-1,75.91.67,14.67-1.66,29.47,2,44-2,13.75.4,27.7-1.86,41.44-.52,3.15-.45,6.62-4.71,7.33-2.61-.18-3.93-1.72-4.39-4.17a37.49,37.49,0,0,0,.64-11.83C1003.34,307.25,1002.38,301,1007.63,296.3Z"/><path class="cls-1" d="M980.64,145.16,967.1,164.48c-2.1-4.66,2.63-6.5,4.16-9.59,1.62-3.27,4.91-5.7,4.84-9.84Z"/><path class="cls-1" d="M990,153.87c1.24-6.54,2.47-13.08.37-19.69C995.28,138.56,995.12,147.17,990,153.87Z"/><path class="cls-1" d="M971.16,180.22a43.7,43.7,0,0,1,10-14.26l.51,2.06C978,172,976.7,177.92,971.16,180.22Z"/><path class="cls-1" d="M981.25,166.15c1.74-5,4.26-9.44,8.85-12.41C988.65,159,986,163.3,981.25,166.15Z"/><path class="cls-1" d="M958.46,274.43c3.38,6.69,10.77,10,14.06,16.77-2.51,8.81-5.68,17.44-4.54,27,.52,4.37.48,8.63,3.11,12.53,2.3,3.41,3.52,7.12-2.09,8.92-2.38-2.27-5.89-3.47-6.71-7.2l-1.91-1.05c-5.44-5.15-7.11-14-15.67-16.11-.26-.54-.51-1.09-.77-1.63-2.55-4.13-7.47-6.68-8.05-12.14-3.14-9.71-2.63-19.41-1-29.37,1.24-7.49,4.39-11.14,12.13-9.92C953.82,263.49,957,268.13,958.46,274.43Z"/><path class="cls-1" d="M888.63,277c7.17,1.95,8.39,7.41,8.11,13.77-4.06,2.95-5.79,8-9.86,10.95-.69,1.68-1.38,3.37-2.06,5.05-3.77,4.55-6.8,9.61-10,14.56-3.24,2.25-3.64,7.06-7.7,8.57l-1.74,1.47c-1.3-4.64,1.75-10.37-3.48-14,.06-.47.11-.95.16-1.43,7.38-10.47,15.92-20.16,21.87-31.64C883.41,280.48,884.36,277.66,888.63,277Z"/><path class="cls-1" d="M937.6,303.39c1,4.11,6.07,5.68,6.35,10.23-5.29-.48-5.67-6.69-9.85-8.46-2.48-6.22-9.51-9.47-10.74-16.51,5.45-2.29,8,1.73,10.29,5.24A25.37,25.37,0,0,1,937.6,303.39Z"/><path class="cls-1" d="M874.3,320.06c2.75-5,5.54-10,10.52-13.3-2.65,5.83-5.22,11.72-10.2,16.06A1.6,1.6,0,0,1,874.3,320.06Z"/><path class="cls-1" d="M874.3,320.06c.11.92.21,1.84.32,2.76l-.33,3.37c-2.43,1.14-3.58,4.78-7.15,3.7C869.63,326.69,870.63,322.4,874.3,320.06Z"/><path class="cls-1" d="M886.88,301.71c2.46-4.4,4.75-9,9.87-10.95-2.21,3.64-4.4,7.28-6.6,10.92Z"/><path class="cls-1" d="M1039.32,382.59c-1.16,5.54-5.55,5.11-9.63,5.2-3.21.07-6.42.11-9.63.16-2.67.85-3.79-1.37-5.37-2.7a8,8,0,0,1-.71-2.4c-1.55-15-3.16-29.94-8.35-44.21-1-2.66-1.28-5.44.65-7.42,9.31-9.52,9-21.44,7.63-33.1-1.12-9.67,4.07-16.74,8.09-24.12,2.61-4.8,11.39-2.76,18,3.22.79,2.36,1.92,4.61,1.91,7.17.17,29.2.07,58.39,0,87.57C1041.9,375.65,1042.73,379.67,1039.32,382.59Z"/><path class="cls-1" d="M1039.54,212c3.52,5.17,3.3,11.06,3.3,16.93q0,77.7,0,155.4l-3.55-1.75-.12-100.32c-3.25-9.34-2.37-19-2.54-28.67-.19-10.52.82-21.08-1.61-31.53-.64-2.73-.65-5.9,1.71-8.28A6.2,6.2,0,0,1,1039.54,212Z"/><path class="cls-1" d="M1016.38,384.81l3.68,3.14a10.89,10.89,0,0,0,.06,1.61l-8.77-1.69c-5.89-6.49-14.84-10.24-17.55-19.6,6.18-1.35,8.07,4.69,12.09,7C1008.62,379.33,1013.78,380.65,1016.38,384.81Z"/><path class="cls-1" d="M786.88,224.35c-.66-3.2,2.11-4.84,3.26-7.22,2.82-13,3-25.89-1-38.68-5-6.58-2.89-14.5-3.76-21.78-1.4-11.63-.42-23.39-.45-35.1,0-1.78.33-3.51,1.9-4.69.49.33,1,.94,1.44.93,3.2-.11,1.43-7.37,6.35-4.71,3.8,2,4.19,6.17,4.23,10,0,4.4,2.29,6.9,6,8.85,2.4,1.27,4.24,3.64,3.28,6.52-1.15,3.41-3.71,1.35-5.88,1-4.94-.85-5.34,3.17-5.3,6.14.17,12.48-1.83,25.13,2.33,37.36.69,2,1.11,4,0,5.93-8,13.13-2.49,25.2,4.48,35.85,6.55,10,6.31,21.29,8.32,31.91,2.24,11.84,2.37,24.43-1.16,36.53-2.35,8-2.13,16.29-.48,24.36,4.27,20.83,1.37,41.25-2.89,61.64-1.55,7.44-7.65,4.45-12.11,5.18-2.63-3.22-1.38-6.62-.45-10,5.85-21.21,6.25-42.77,3.73-64.44-.8-6.87.51-13.49,1.64-20,2.56-15,1.07-29.77-1-44.57-.88-6.13-2.35-12.18-9-15.06C787.81,229.16,787.68,226.5,786.88,224.35Z"/><path class="cls-1" d="M786.82,116.88c-.13,20.56-1.67,41.17,2.31,61.57-3-1.42-4-3.9-4.31-7.06a529.94,529.94,0,0,1-1.74-55.93c.06-4.16,1.11-7.49,5.32-9.08,1.15.6,1.19,1.28.12,2C786.41,110.92,786.23,113.82,786.82,116.88Z"/><path class="cls-1" d="M788.52,108.4c0-.67-.08-1.35-.13-2l8.69-.09c9.79-1.41,16.31,4.18,22.51,10.52,2.4,2.46,4.95,4.79,7.43,7.19l5.67,8.68-2.88.42-4.7-3.86C816.17,116.55,807,104.28,788.52,108.4Z"/><path class="cls-1" d="M851.39,354.43c2.28-4.66,4.09-9.66,9-12.42C858.79,347.17,856.18,351.59,851.39,354.43Z"/><path class="cls-1" d="M962.29,332.41l6.61,6.38c8.72,1.93,13.6,7.77,13,15.6l-2.36.15C974.57,346.56,965,342.18,962.29,332.41Z"/><path class="cls-1" d="M981.93,354.39c-2.89-6.42-9.49-9.73-13-15.6.21-1.08,1-2.68.54-3.18-11.4-12.79-4.17-27.24-3.81-41.06.14-5.65,4.27-2.91,6.89-3.35l7.1,6.69c4,.28,6.33,3.95,10.07,4.73,4.66,7.39,13.63,12.17,13.67,22.4-2.57,4.21-5.07,1.29-7.57-.07-8.63-5.06-10-4.48-10.08,4.89-.06,6-.55,12.13,1,18.13.78,3.09,1.36,6.46-3.62,6.52C982.69,354.45,982.31,354.41,981.93,354.39Z"/><path class="cls-1" d="M983.07,354.49c-2-9.65-1.78-19.43-1.63-29.2.06-4.25-1-9.62,4.08-11.43,4.76-1.68,6.61,3.68,9.59,6.13a14.34,14.34,0,0,1,2.09,2.78c3,6.82,1.58,14.26,2.68,21.37,1.56,10.15,1.51,20.46,6.3,29.93.81,1.59.54,3.49-2.13,3.37l-10.25-9.17,0,.22c-2.53-4.12-7.23-6.55-8.91-11.35Z"/><path class="cls-1" d="M984.91,357.14c3.16,3.64,7.7,6.18,8.91,11.35C989.45,365.82,985.77,362.59,984.91,357.14Z"/><path class="cls-1" d="M1009.76,236.68q-.13-61.26-.25-122.53c0-2.63.06-5.28,2-7.42a1.85,1.85,0,0,0,1-.22c7.28,1.61,14.66.27,22,.77,4.36,2.61.88,5.1-.92,5.48-10.69,2.23-11.08,11.5-10.36,18.47,1.24,12.05,1,23.47-3.19,34.81a84.52,84.52,0,0,0-1.73,31.87c2,13.79-3.92,27.56-1.14,41.53a4.3,4.3,0,0,1-2.32,4.38C1009.61,244,1012,238.67,1009.76,236.68Z"/><path class="cls-1" d="M1035.51,108.49c-7.61-1.29-15.52,1-23-2l23.11-.25,3.75,1.68A2.87,2.87,0,0,1,1035.51,108.49Z"/><path class="cls-1" d="M1035.51,108.49l3.87-.55,10.25.56c-1.6,3.68-7,2.58-8.3,6.61-.39,14.22-.19,28.45-.31,42.67,0,4.48-3.06,5.94-6.73,6.61-4.1.75-6.19,2.89-5.47,7.24l3.38,1.84c3.94,2.49,2.37,7,3.77,10.41l0,5c2.71,5.31,0,9.63-3.16,13.25-3.37,3.8-7.37,1.36-11-.37-3.41-2.27-4.09-5.5-2.7-9.09,3.12-8-.38-16,.25-24,.13-1.72-1.72-2.91-2.89-4.18-.6-4.93,3-8.8,3.33-13.48.18-2.63,1-5.75,0-7.81-4.19-8-2.06-15.44-.27-23.69,1.45-6.71,2.89-10.16,10-9.69C1031.54,109.88,1033.54,108.94,1035.51,108.49Z"/><path class="cls-1" d="M1021.81,199.67c9.4,2.54,12.8-2.83,14.19-10.84l1.56,1.82c2.41,7.65-.57,15.67,1.64,23.33v68.29l-1.71-5.35a30.33,30.33,0,0,1-2-3.71c.08-10.68,2.49-21.28,1.21-29.84,0,3.65.14,9.48-.06,15.31-.08,2.63,1.49,6.44-2.84,7.15-3.79.62-5.51-2.39-7.26-5.21-6.45-10.36-9.11-21.5-7.38-33.67.29-2-.73-4-.69-6.08a22.85,22.85,0,0,0,.38-13C1017.86,204.54,1018.22,201.46,1021.81,199.67Z"/><path class="cls-1" d="M1028.82,171.63c-3.39-4.75.17-7.77,3.56-8.45,6.82-1.36,6.84-5.8,6.92-11,.19-12.4-1.32-24.89,2-37.12,3.21,14.89,1.09,29.92,1.13,44.89,0,3.43-3,4.77-5.92,5.47C1033,166.35,1030.07,167.89,1028.82,171.63Z"/><path class="cls-1" d="M1036,183.88c-6.65-1.51-9.37-4.45-3.76-10.41C1042,173.84,1039.15,178.8,1036,183.88Z"/><path class="cls-1" d="M1039.2,214c-3.26-7.58-1-15.55-1.64-23.33l1.83,1.9q.08,9.72.14,19.46Z"/><path class="cls-1" d="M786.88,224.35c12.49-1.1,14.63,8.05,16.14,17.06,2.72,16.16,4.51,32.42,1.5,48.82-3.35,18.31,1,36.7-.35,55-1,13.49-2.79,26.75-8.81,39.07l-5,.25c7.36,2.83,15.33-.27,22.52,3.13l-10.5.48H776.19c11.38-18.84,11.29-37.58,10.07-56.48-5.45-7.85-5.42-20.54.06-28.4Q786.59,263.84,786.88,224.35Z"/><path class="cls-1" d="M937.6,303.39l-14.24-14.73-3.18-2.82c-5.86-2.85-8.19-9-12.47-13.34l-7.11-6.4c-3-4.47-7.94-7.22-10.3-12.19l-1.66-1.63c-7-4.32-12.6-9.71-14.53-18.11,8.42-11.71,2.4-24.17,1.8-36.34-.19-3.74-2.95-8.47,4-9,7.8,7.49,13.42,17,22.14,23.67,9.44,11.89,21.5,21.44,30.29,33.93l6,6c3.77,3.87,8.43,7,10.66,12.2-6.22-.27-8.75,2.44-10,8.9C937,283.53,938.7,293.48,937.6,303.39Z"/><path class="cls-1" d="M949,264.62l-10.66-12.2,6.22,3.4,14.29,15.84c-.11.92-.23,1.85-.34,2.77Z"/><path class="cls-1" d="M879.89,188.85c-1.24,8.2,2.22,16,2.25,24.06a150.45,150.45,0,0,0,1,15.72c.62,5.71-2.07,7.17-7.08,6.2-6.58,1.55-8.6-3.88-11.68-7.68-.08-.42-.15-.84-.23-1.27-4-9.64-12.13-16.11-18.13-24.22,7.08-.32,8.11-3.58,7.92-10.68-.28-11.27-3.78-22.23-2.53-33.53Z"/><path class="cls-1" d="M1037.48,273.6c0,1.11,0,2.21,0,3.32-4.06,3.7-12.93-5.69-12.39,1.46.58,7.67-5.62,8.46-7.38,13.25-2.84,7.74,9,5.77,5.81,11.2-1.93,3.26-9.09,4.23-2.53,9.88,2.7,2.32,2.49,4.2-1.83,6-7.71,3.23-11.12,14.7-8,22.49a87.94,87.94,0,0,1,5.38,41.39c-6.17-.06-8.48-4-11-9.13-5.71-11.64-3.92-24.44-6.88-36.47-1.18-4.78,1-9.29,7.41-9,4.58-1,3.48-4.66,3.51-7.66.14-13.31.18-26.63.26-39.94,2.58-7.33,1.17-14.94,1.6-22.43.27-4.79-1.78-9.89,1.65-14.33,1.74-2.64,1.5-5.45,1-8.41-.54-3.14-1.2-6.39-.94-9.52,1.15-13.63,1.91-27.15-.39-40.81-1.16-6.94,1.87-13.75,3.81-20.46,6.12-.09,8.51,2.15,8.12,9-.51,8.83,1,17.78-2.81,26.26-.3,7.08,5.52,13.67,1.7,21.05-6.42,11.76-6.66,22.73,1.38,34.46C1029.07,261.28,1033.94,267,1037.48,273.6Z"/><path class="cls-1" d="M1006,328c-4.25,4.07-4.73,8.65-3.38,14.39a216.48,216.48,0,0,1,4.06,25.87c.74,6.75,3.84,11.43,9.81,14.36l-.12,2.21c-4.88-1.15-9.42-2.89-12.33-7.37-6.5-12-6.89-25.27-8.07-38.4-.5-5.53-1.09-11,1.22-16.27,1.7.79,3,2.88,5.34,1.61.73-1,1.28-.89,1.62.29l-.17.06C1004.66,325.82,1005.34,326.9,1006,328Z"/><path class="cls-1" d="M1013,243.62l0,28.07c0,3.29-.3,6.48-3.22,8.69q0-21.86,0-43.7C1012.16,238.37,1012.92,240.84,1013,243.62Z"/><path class="cls-1" d="M886.64,252.39q-11.4-13.27-22.82-26.53c6.19.1,7.54,6.84,12.25,9,3.39,6.39,10.34,10.21,12.57,17.45Z"/><path class="cls-1" d="M907.71,272.5c5.58,3.11,8.12,9.07,12.47,13.34C912.69,284.52,910.81,277.94,907.71,272.5Z"/><path class="cls-1" d="M890.3,253.91c4.19,3.42,9.29,6.08,10.3,12.2C896.11,262.93,891.32,260,890.3,253.91Z"/><path class="cls-1" d="M788.82,162.46V149.14l.67,0v13.33Z"/><path class="cls-1" d="M1004.16,324.67a8.87,8.87,0,0,1-1.62-.29l-16-19.21C995.6,308.8,999.62,317,1004.16,324.67Z"/><path class="cls-1" d="M1037.48,273.6c-12.75-7.28-23.6-30.52-20.71-44.15.86-4.08,3.53-6.57,6.74-8.73-.58,5.21-.76,10.5-1.83,15.61-2.12,10.19,5.82,16.61,8.76,24.88a2.53,2.53,0,0,0,3.57,1.52c1.88-1,1.71-2.93,1.72-4.63,0-9.9,0-19.8,1.75-29.73Z"/><path class="cls-2" d="M1110.17,199c2.39-11.88,11.15-21.81,22.36-22.45,23.38-1.34,36.64,14.34,35.24,45.75a.68.68,0,0,0,.49.67.85.85,0,0,0,.82-.06l23.59-16.29a.92.92,0,0,0,.35-1.08c-8.67-21.31-35.73-33.6-57.72-33.6-32,0-57.91,22.1-57.91,49.36,0,58.62,71.2,36.06,82.32,74.77,5,17.34-6,36.66-21.78,37.6-23.38,1.34-36.64-14.34-35.23-45.75a.73.73,0,0,0-.5-.67.86.86,0,0,0-.85.06l-23.55,16.29a.87.87,0,0,0-.35,1.08c8.67,21.31,35.73,33.6,57.71,33.6,32,0,57.92-22.1,57.92-49.37,0-61.77-93.89-35.23-82.91-89.91Z"/><path class="cls-2" d="M1324.15,318.93a.83.83,0,0,0-.81.67,18.81,18.81,0,0,1-18.51,14.77h-65a.85.85,0,0,1-.85-.84V257.92a.88.88,0,0,1,.85-.88h42.27a7,7,0,0,1,7,6.89c0,1.2,2,.85,3.38.85a.86.86,0,0,0,.85-.88l-.15-8.78.15-8.82c0-1.23-1.87-.88-3.36-.88a.88.88,0,0,0-.87.85,6.94,6.94,0,0,1-7,6.89h-42.27a.85.85,0,0,1-.85-.85V176.7a.85.85,0,0,1,.85-.84h65a18.81,18.81,0,0,1,18.51,14.77c.2.93,1.55.67,3,.67a.84.84,0,0,0,.81-1l-3.35-17.63a.85.85,0,0,0-.85-.7H1196.64a.85.85,0,0,0-.87.84c0,1-.24,2.34.26,2.83.32.33,3,.59,3.88.94a11.68,11.68,0,0,1,7.91,11.06v135a11.56,11.56,0,0,1-3.41,8.26c-2.69,2.51-4.56,2.92-8.09,3.56-.12,0-.2.09-.29.15-.5.52-.26,1.87-.26,2.83a.85.85,0,0,0,.87.85H1323a.82.82,0,0,0,.84-.68l3.36-17.66c.26-1.37-1.78-1-3-1Z"/><path class="cls-2" d="M1472,175.79c1.14,0,.81-1.6.81-3,0-1.22-1.72-.9-3.24-.9h-23.85c-1.19,0-.87,1.63-.87,3a.85.85,0,0,0,.82.88,11.78,11.78,0,0,1,11.21,11.77V330.13a.88.88,0,0,1-1.67.38L1381,172.41a.83.83,0,0,0-.78-.53H1337c-1.17,0-.87,1.63-.87,3,0,.67.58,1,1.43,1,2.74,0,7.35.17,7.35,8.09V322.54a11.8,11.8,0,0,1-11.21,11.77c-1.14.06-.84,1.6-.84,3,0,1.2,1.72.88,3.27.88H1360c1.19,0,.87-1.64.87-3a.89.89,0,0,0-.85-.87,11.8,11.8,0,0,1-11.21-11.77V180a.89.89,0,0,1,1.7-.38l74.21,158.1a1,1,0,0,0,.81.5h46.1c1.19,0,.87-1.64.87-3a.89.89,0,0,0-.84-.87,11,11,0,0,1-10.86-11.15V187.56A11.8,11.8,0,0,1,1472,175.79Z"/><path class="cls-2" d="M1569.94,264.43a.82.82,0,0,1-.7.35h-45.57a.88.88,0,0,1-.73-.38.8.8,0,0,1-.12-.78l25.4-75.32a.83.83,0,0,1,.87-.58.87.87,0,0,1,.82.64l20.17,75.32a.79.79,0,0,1-.14.75Zm59.64,69.86a11.51,11.51,0,0,1-10.63-8.64l-41-153.11a.86.86,0,0,0-.85-.65h-30.42a.89.89,0,0,0-.7.32.86.86,0,0,0-.15.79l1.49,5.52a1,1,0,0,1,0,.5l-49.19,145.9a13.59,13.59,0,0,1-12.34,9.37.87.87,0,0,0-.82.88v2.16a.86.86,0,0,0,.87.87h19.71a.87.87,0,0,0,.87-.87v-2.19a.88.88,0,0,0-.76-.88,5.23,5.23,0,0,1-4.26-6.89l19.59-58.09a.84.84,0,0,1,.82-.61h49a.87.87,0,0,1,.85.67l15.65,58.35a5.15,5.15,0,0,1-.91,4.56,5,5,0,0,1-3.59,2,.84.84,0,0,0-.79.88v2.16a.85.85,0,0,0,.88.87h46.68a.88.88,0,0,0,.9-.87v-2.16a.89.89,0,0,0-.84-.88Z"/><path class="cls-2" d="M1666.9,171.92h72.63a.88.88,0,0,1,.88.87l2.8,17.43a.86.86,0,0,1-.18.7.83.83,0,0,1-.67.3h-2.16a.86.86,0,0,1-.85-.65,18.76,18.76,0,0,0-14.3-14.36c-5.84-1.26-19.5-.38-26.13-.38a.88.88,0,0,0-.87.88V322.58a11.8,11.8,0,0,0,11.21,11.77.89.89,0,0,1,.84.87v2.16a.9.9,0,0,1-.87.88h-53.48a.88.88,0,0,1-.88-.88v-2.16a.86.86,0,0,1,.82-.87,11.8,11.8,0,0,0,11.21-11.77V176.71a.86.86,0,0,0-.88-.88c-6.51,0-20.9-.87-26.5.5a18.76,18.76,0,0,0-13.87,14.24.86.86,0,0,1-.85.65h-2.16a.83.83,0,0,1-.67-.3.79.79,0,0,1-.18-.7l2.75-17.42a.9.9,0,0,1,.87-.88h41.49Z"/><path class="cls-2" d="M1878.06,318.93a.84.84,0,0,0-.82.67,18.81,18.81,0,0,1-18.51,14.77h-65a.85.85,0,0,1-.85-.84V257.92a.88.88,0,0,1,.85-.88H1836a6.94,6.94,0,0,1,7,6.89c0,1.2,2,.85,3.39.85a.85.85,0,0,0,.84-.88l-.14-8.78.14-8.82c0-1.23-1.87-.88-3.36-.88a.89.89,0,0,0-.87.85,6.94,6.94,0,0,1-7,6.89h-42.27a.85.85,0,0,1-.85-.85V176.7a.85.85,0,0,1,.85-.84h65a18.81,18.81,0,0,1,18.51,14.77c.2.93,1.55.67,3,.67a.85.85,0,0,0,.82-1l-3.36-17.63a.85.85,0,0,0-.85-.7H1750.55a.85.85,0,0,0-.88.84c0,1-.23,2.34.26,2.83.32.33,3,.59,3.88.94a11.69,11.69,0,0,1,7.92,11.06v135a11.57,11.57,0,0,1-3.42,8.26c-2.69,2.51-4.55,2.92-8.09,3.56-.11,0-.2.09-.29.15-.49.52-.26,1.87-.26,2.83a.86.86,0,0,0,.88.85h126.31a.83.83,0,0,0,.85-.68l3.35-17.66c.27-1.37-1.78-1-3-1Z"/><path class="cls-2" d="M1097.55,122.76h-2.47a.36.36,0,0,1-.36-.36v-15a.36.36,0,0,1,.36-.37h2.47c8.94,0,9.11,15.69,0,15.69Zm21.35,24.33a3,3,0,0,1-2.83-3v-7.82c0-5.91-2.8-11-8.61-12.89a.37.37,0,0,1,0-.67,8.83,8.83,0,0,0-4.07-16.66h-18.68c-.4,0-.85-.09-.85.22s-.08.75.2.77a3,3,0,0,1,2.83,3v34.09a3,3,0,0,1-2.83,3,.22.22,0,0,0-.2.22c0,.36-.08.77.22.77h12.87c.4,0,.85.09.85-.22s.08-.75-.2-.77a3,3,0,0,1-2.83-3v-20a.37.37,0,0,1,.36-.37h4.15c5.66,0,8.67,5.29,9,10.84.15,3,.1,6.17,0,9.43a3,3,0,0,1-2.85,3.08.24.24,0,0,0-.21.22c0,.36-.08.77.22.77h12.87c.41,0,.86.09.86-.22s.08-.75-.21-.77Z"/><path class="cls-2" d="M1153.31,143.21a.21.21,0,0,0-.21.17,4.74,4.74,0,0,1-4.67,3.73H1132a.21.21,0,0,1-.21-.21V127.81a.21.21,0,0,1,.21-.22h10.67a1.75,1.75,0,0,1,1.77,1.74c0,.3.49.21.85.21a.21.21,0,0,0,.21-.22l0-2.22,0-2.23c0-.3-.47-.22-.84-.22a.22.22,0,0,0-.22.22,1.76,1.76,0,0,1-1.77,1.74H1132a.21.21,0,0,1-.21-.22V107.3a.21.21,0,0,1,.21-.21h16.42a4.74,4.74,0,0,1,4.67,3.73c.05.23.39.17.76.17a.22.22,0,0,0,.21-.26l-.85-4.45a.22.22,0,0,0-.22-.18h-31.89a.21.21,0,0,0-.22.21c0,.26-.06.59.06.72s.75.15,1,.24a2.94,2.94,0,0,1,2,2.79v34.08a2.93,2.93,0,0,1-.86,2.09,3.32,3.32,0,0,1-2,.9s0,0-.08,0-.06.48-.06.72a.21.21,0,0,0,.22.21H1153a.21.21,0,0,0,.22-.17l.85-4.46c.06-.34-.45-.25-.76-.25Z"/><path class="cls-2" d="M1198.5,109.38a3,3,0,0,1,2.83-2.3.22.22,0,0,0,.21-.22v-.55a.23.23,0,0,0-.22-.22h-10.66a.2.2,0,0,0-.2.15l-11,29.69a.22.22,0,0,1-.2.14.23.23,0,0,1-.21-.13l-12.32-29.71a.22.22,0,0,0-.21-.14h-10.75a.24.24,0,0,0-.23.22v.55a.23.23,0,0,0,.22.22,3,3,0,0,1,2.83,3v34.08a3,3,0,0,1-2.83,3,.22.22,0,0,0-.22.22v.54a.23.23,0,0,0,.23.22h6.62a.22.22,0,0,0,.22-.22v-.54a.21.21,0,0,0-.21-.22,3,3,0,0,1-2.83-3V109.78a.22.22,0,0,1,.43-.09l9.06,21.55,6.73,16.32a.2.2,0,0,0,.2.14.23.23,0,0,0,.21-.14l3.6-9.71,10.45-28.17a.22.22,0,0,1,.43.07v34.38a3,3,0,0,1-2.83,3,.21.21,0,0,0-.2.22v.54a.22.22,0,0,0,.22.22h13.5a.22.22,0,0,0,.22-.22v-.54a.21.21,0,0,0-.21-.22,3,3,0,0,1-2.83-3V109.38Z"/><path class="cls-2" d="M1238.51,107.07c.29,0,.21-.4.21-.76s-.44-.23-.82-.23h-6c-.3,0-.22.42-.22.77a.21.21,0,0,0,.2.22,3,3,0,0,1,2.83,3v36a.22.22,0,0,1-.42.1l-18.74-39.92a.23.23,0,0,0-.2-.14h-10.9c-.3,0-.22.42-.22.77,0,.17.14.24.36.24.69,0,1.86,0,1.86,2v35a3,3,0,0,1-2.83,3c-.29,0-.22.4-.22.76s.44.22.83.22h6c.3,0,.22-.41.22-.76a.22.22,0,0,0-.21-.22,3,3,0,0,1-2.83-3v-36a.22.22,0,0,1,.42-.09L1226.57,148a.26.26,0,0,0,.21.12h11.64c.3,0,.22-.41.22-.76a.22.22,0,0,0-.22-.22,2.78,2.78,0,0,1-2.74-2.82V110a3,3,0,0,1,2.83-3Z"/><path class="cls-2" d="M1263.24,129.45a.2.2,0,0,1-.17.09h-11.51a.22.22,0,0,1-.18-.1.18.18,0,0,1,0-.19l6.41-19a.21.21,0,0,1,.22-.15.23.23,0,0,1,.21.16l5.09,19A.19.19,0,0,1,1263.24,129.45Zm15.06,17.64a2.91,2.91,0,0,1-2.68-2.18l-10.36-38.66a.21.21,0,0,0-.22-.16h-7.68a.21.21,0,0,0-.17.08.2.2,0,0,0,0,.2l.38,1.39a.49.49,0,0,1,0,.12l-12.42,36.84a3.45,3.45,0,0,1-3.12,2.37.22.22,0,0,0-.21.22v.55a.22.22,0,0,0,.22.22h5a.22.22,0,0,0,.22-.22v-.56a.22.22,0,0,0-.19-.22,1.27,1.27,0,0,1-.9-.53,1.31,1.31,0,0,1-.18-1.21l4.95-14.66a.21.21,0,0,1,.21-.16h12.37a.21.21,0,0,1,.21.17l4,14.74a1.29,1.29,0,0,1-.23,1.15,1.3,1.3,0,0,1-.91.51.21.21,0,0,0-.2.22v.55a.22.22,0,0,0,.22.22h11.79a.23.23,0,0,0,.23-.22v-.55A.23.23,0,0,0,1278.3,147.09Z"/><path class="cls-2" d="M1316.69,107.07c.29,0,.21-.4.21-.76s-.44-.23-.82-.23h-6c-.31,0-.22.42-.22.77a.21.21,0,0,0,.2.22,3,3,0,0,1,2.83,3v36a.22.22,0,0,1-.42.1l-18.74-39.92a.23.23,0,0,0-.2-.14h-10.9c-.3,0-.22.42-.22.77,0,.17.14.24.36.24.69,0,1.85,0,1.85,2v35a3,3,0,0,1-2.83,3c-.28,0-.21.4-.21.76s.44.22.83.22h6c.3,0,.22-.41.22-.76a.22.22,0,0,0-.21-.22,3,3,0,0,1-2.83-3v-36a.22.22,0,0,1,.42-.09L1304.75,148a.24.24,0,0,0,.21.12h11.64c.3,0,.22-.41.22-.76a.22.22,0,0,0-.22-.22,2.78,2.78,0,0,1-2.74-2.82V110a3,3,0,0,1,2.83-3Z"/><path class="cls-2" d="M1329.85,106.09h18.34a.23.23,0,0,1,.22.22l.7,4.4a.2.2,0,0,1,0,.18.21.21,0,0,1-.17.08h-.54a.22.22,0,0,1-.22-.17,4.71,4.71,0,0,0-3.61-3.62,45,45,0,0,0-6.6-.1.22.22,0,0,0-.22.22v36.83a3,3,0,0,0,2.83,3,.22.22,0,0,1,.22.22v.54a.23.23,0,0,1-.23.22H1327a.22.22,0,0,1-.22-.22v-.54a.21.21,0,0,1,.21-.22,3,3,0,0,0,2.83-3V107.3a.22.22,0,0,0-.22-.22c-1.65,0-5.28-.22-6.7.13a4.73,4.73,0,0,0-3.5,3.59.21.21,0,0,1-.21.17h-.55a.25.25,0,0,1-.17-.08.2.2,0,0,1,0-.18l.69-4.4a.23.23,0,0,1,.22-.22h10.48Z"/><path class="cls-2" d="M1358.77,112.93c.61-3,2.82-5.51,5.65-5.67,5.9-.34,9.25,3.62,8.89,11.55a.19.19,0,0,0,.13.17.2.2,0,0,0,.21,0l5.95-4.11a.22.22,0,0,0,.09-.27c-2.19-5.38-9-8.49-14.57-8.49-8.08,0-14.63,5.58-14.63,12.47,0,14.8,18,9.1,20.79,18.87,1.26,4.38-1.51,9.26-5.5,9.5-5.9.34-9.25-3.62-8.9-11.55a.17.17,0,0,0-.12-.17.22.22,0,0,0-.21,0l-6,4.12a.22.22,0,0,0-.09.27c2.19,5.38,9,8.48,14.57,8.48,8.08,0,14.63-5.58,14.63-12.46,0-15.6-23.71-8.9-20.94-22.7Z"/></g></g></svg>