<svg xmlns="http://www.w3.org/2000/svg" viewBox="0 0 327 377.59"><defs><style>.cls-1{fill:#1e1e1e;stroke:#b8a473;stroke-miterlimit:10;stroke-width:19px;}.cls-2{fill:#b8a473;}</style></defs><g id="Layer_2" data-name="Layer 2"><g id="Layer_1-2" data-name="Layer 1"><polygon class="cls-1" points="317.5 277.7 317.5 99.88 163.5 10.97 9.5 99.88 9.5 277.7 163.5 366.62 317.5 277.7"/><path class="cls-2" d="M62.92,182.48c5.63-3.7,11.13-7.2,16.51-10.89a414.31,414.31,0,0,0,52.16-41.79,7.87,7.87,0,0,1,5.91-2.39c5.57.06,11.15,0,16.73,0h3.68c.07-1.4.17-2.52.17-3.65q0-26.68,0-53.39a21.26,21.26,0,0,1,.29-4.3,5.14,5.14,0,0,1,5.38-4.27,5,5,0,0,1,4.92,4.46,31.45,31.45,0,0,1,.26,5.75q0,26.27,0,52.52c0,.85.1,1.69.18,2.86,6.3,0,12.44.16,18.56-.05a14.27,14.27,0,0,1,10.92,4.06c20,18.59,41.13,35.61,64.64,49.57.4.24.76.55,1.66,1.21-1.9.5-3.33.82-4.73,1.26-15.76,4.94-31.46,4.19-47.16-.35-2.18-.64-3.41-1.58-3.73-4-.4-2.95-1.23-5.83-1.86-8.74-.89-4.14-3-5.36-7.27-4.56-8.87,1.65-17.73,3.44-26.66,4.7-13.44,1.91-26.63-.45-39.76-3.12-2.16-.44-4.3-1-6.46-1.44-3.61-.73-6.06.7-7,4.26s-1.44,7-2.39,10.39a4.07,4.07,0,0,1-2.17,2.5A81.87,81.87,0,0,1,63.63,183C63.46,183,63.33,182.81,62.92,182.48Z"/><path class="cls-2" d="M114.39,194.61c0,1.89-.28,3.21.07,4.34.42,1.37,1.06,3.26,2.14,3.74,2.62,1.15,2.42,2.73,2,5q-6.94,40.49-13.64,81c-.41,2.48-1.31,3-3.68,3-18.74-.1-37.48-.05-56.22-.06-6.15,0-8.55-3.2-6.82-9.1A707.42,707.42,0,0,0,57,203.26c.54-3.13,1-6.27,1.51-9.39,0-.17.21-.32.51-.75C77.12,198.87,95.52,200.8,114.39,194.61Z"/><path class="cls-2" d="M208.54,203.67c4.48-1.34,5.07-4.56,4-7.85,9.39.9,18.63,2.71,27.81,2.41s18.37-2.73,28-4.31a4.63,4.63,0,0,1,.41,1.27c4.46,29.62,11.62,58.63,20,87.36,1.63,5.6-.6,8.61-6.39,8.61-18.85,0-37.7,0-56.55,0-2.06,0-2.78-.61-3.12-2.66q-7-41.83-14.09-83.63C208.56,204.62,208.58,204.33,208.54,203.67Z"/><path class="cls-2" d="M211.64,291.54h-26.2V215.21H141.71V291.5H115.4c4.73-29.09,9.43-58.06,14.17-87.22h67.9C202.19,233.35,206.9,262.33,211.64,291.54Z"/><path class="cls-2" d="M180.11,110.61V69.38c3.54,1.15,6.82,2.12,10,3.29,11.62,4.25,23.07,9,34.86,12.74C236.51,89,248.27,89,259.73,84.33A5.65,5.65,0,0,1,267,86.7c1.22,2.5.37,5.29-2.36,7.25a77.9,77.9,0,0,1-40.9,14.84c-9.1.59-18.24.38-27.36.71C191,109.69,185.66,110.22,180.11,110.61Z"/><path class="cls-2" d="M200.69,193H126.38c1.08-5.07,2.11-9.9,3.06-14.38,11.52,1.2,22.82,3.28,34.13,3.29s22.47-2.07,34-3.27C198.52,182.94,199.56,187.77,200.69,193Z"/></g></g></svg>