<svg xmlns="http://www.w3.org/2000/svg" viewBox="0 0 327 377.59"><defs><style>.cls-1{fill:#1e1e1e;stroke:#b8a473;stroke-miterlimit:10;stroke-width:19px;}.cls-2{fill:#402c11;}.cls-3{fill:#40290b;}.cls-4{fill:#a9a18d;}.cls-5{fill:#66553c;}.cls-6{fill:#64523b;}.cls-7{fill:#67523d;}.cls-8{fill:#67563d;}.cls-9{fill:#625037;}.cls-10{fill:#4d3616;}.cls-11{fill:#4a351b;}.cls-12{fill:#f7cc73;}.cls-13{fill:#bc9752;}</style></defs><g id="Layer_2" data-name="Layer 2"><g id="Layer_1-2" data-name="Layer 1"><polygon class="cls-1" points="317.5 277.7 317.5 99.88 163.5 10.97 9.5 99.88 9.5 277.7 163.5 366.62 317.5 277.7"/><path class="cls-2" d="M72.7,83.44c12-18.15,43-18.19,52.18-.07-.33,4.1,5.1,4.92,5.05,8.86,1.68,4.39,5.28,8.8-.18,13.07-3.4,7.44,1.83,6.6,6.42,7,7.36.6,14.7.1,22.05.22,6.84.11,13.68.09,17.79,0-11.21-.23-25.15.31-39.1-.3-4.47-.19-9.67,1-7.49-6.57,3.39-4.48,8.36-4.31,13.18-4.41,10.35-.22,20.7.14,31.05-.2,7-.23,13.87-1,17.85-8-.18-4.84,7.34-6.06,5.52-11.68,1.6-7.71,6.58-10.79,14.14-10.19,9.11.72,18.47-1.92,27.34,2-4.19,4.54-9.58.7-13.72,2.13,2.43,2,9.66-4.29,9,4.8-2.57,3.35-6.28,3.82-10.12,4.31-12,1.54-13.73,3.26-16.08,15-.21,1-.4,2-.56,3.06-3.56,23-4,23.4-27.52,23.44-14.84,0-29.68.27-44.52-.13-11.68-.31-17.62-5.72-19.35-17.29-.67-4.43-.86-8.93-2.39-13.21-2.52-7-7.24-10.94-14.9-10-7.89.92-9.55,6.74-10,13.45-2.31,33-3.53,66.08-4.2,99.17-.07,3.45.55,7.06-.34,10.32-3.74,13.65,1.91,23.15,12.28,31.39,17.83,14.16,34.58,29.63,52.25,44,8.9,7.23,13.36,7.19,21.57-.8,17.31-16.86,34.27-34.06,51.3-51.21,6.62-6.66,8.24-14.72,8.22-23.69-.07-37.62-.18-75.25.08-112.87,0-6.09-1.42-13.43,7.45-15.55,3.84,3.16,3.12,7.2,3.12,11.63,0,44.23-.92,88.45,0,132.67,0,1.54-.42,3.42.72,4.91-18.11,18.45-35.9,37.23-54.47,55.2-7.35,7.1-10.77,14.53-10,24.62a183.38,183.38,0,0,1-.09,23.79c-.53,9.77-7.07,12.36-15.71,12.42-8.82.07-16.11-1.77-16.89-12.27-.46-6.18-.88-12.5-.08-18.6,1.69-13-4.56-21.16-14.06-28.86-17.93-14.53-35.1-30-52.71-44.9-6-5.09-8.48-11.2-8.12-19.09,1.62-34.75,5.6-69.41,4.23-104.28,2.34-.9,3.26.59,4,2.37a23.35,23.35,0,0,0-1.12-4.95c-.85-3.53-5.87-3.77-6-7.79-1.74-4.62.45-8.83,1.39-13.16C71,89.83,72.94,86.81,72.7,83.44Z"/><path class="cls-3" d="M240.77,228.67c-5.2-3.14-4.08-8.35-4.09-13-.07-40.69,0-81.38-.06-122.07,0-4.77.74-9.73-2.46-14l.1.09c-8.5-5.35-18.69,0-27.44-3.8l0-2.74H238.5C243,82.83,251.09,84,260.69,83.69c10.81-.35,13.25,3,13.34,14.88.11,12.73-2.24,15.55-13.37,16.08-17.78.84-17.79.84-17.8,19q0,40.42,0,80.84C242.83,219.31,243.47,224.25,240.77,228.67Z"/><path class="cls-3" d="M197,81.3c6.59,5,3.66,8.06-2.11,10.58-3,4-7.35,4.7-11.88,4.82q-22,.57-44.12,0c-4.51-.11-8.89-.77-11.89-4.77-3.55-1.3-7.73-2.44-7.21-7.23.3-2.74,3.13-1.66,5.07-1.32,9.2.12,18.76,2.38,19.88-12.37.59-7.78,9-8.15,15.86-8.13,6.66,0,12.43,1.33,15,8.44C180.57,84.92,182.29,85.73,197,81.3Z"/><path class="cls-3" d="M73.09,106.38c2.62-.82,5.1-.59,5.37,2.59.65,7.55,1.38,15.17-1.35,25.79-1.88-8-3.06-13-4.24-18.06A32,32,0,0,0,68,115c-12.7-2.33-18.69-14.19-12.78-25.81,3.84-7.57,11.16-5.24,17.45-5.74,5.5,1.9,6.64,4.64,1.67,8.58C70.43,96.49,66.27,101,73.09,106.38Z"/><path class="cls-4" d="M234.16,79.6q.3,69.9.65,139.81c0,4.26-2,7.1-4.8,9.85-21.26,21.22-42.59,42.37-63.7,63.74-5,5.1-8.64,5.83-14.63.58-22.53-19.74-45.62-38.84-68.58-58.09a14.56,14.56,0,0,1-5.5-12.67q2.72-67.24,5.17-134.51c.22-6,2.77-8.35,8.88-8.73,23.47-1.45,24.23-1,28.42,22.32,3.29,18.31,3.29,18.36,22.36,18.41,15.89,0,31.77-.25,47.65,0,6.81.09,10.11-2.43,10.56-9.46.48-7.55,2.05-15,2.67-22.58.49-6,3.19-8.7,9.2-8.56,7.25.17,14.5,0,21.75,0Z"/><path class="cls-5" d="M127,91.93l67.89-.05c-2.09,14.53-2.24,14.72-16.59,14.7-16.51,0-33-.15-49.54-.23l-.08,0Z"/><path class="cls-3" d="M128.78,106.35c13.49,4.19,27.33,1.2,41,2,6.52.37,13.08,0,19.61.23,2.69.08,6.13.19,6.21,3.88s-3.36,4-6.05,4c-12.74.17-25.47.2-38.21.18-6.53,0-13.08,0-19.59-.46a7.47,7.47,0,0,1-7.17-6.4c-.45-2.69,2.09-3.08,4.14-3.47Z"/><path class="cls-6" d="M167.86,319.63c0,4.14.29,6.91-.06,9.61-.94,7.34-7,8.42-11.39,5.78-8.52-5.07-4.12-14.19-3.91-21.54.2-6.66,6.81-6.91,11.05-6.08C171.65,309,166.45,316.45,167.86,319.63Z"/><path class="cls-7" d="M73.09,106.38c-5.87.44-11.31.18-10.78-7.94.56-8.5,6.79-6.64,12.06-6.43Q73.72,99.2,73.09,106.38Z"/><path class="cls-3" d="M112.82,75c-9.37,2.78-18.8,2.54-28.27.25C93.91,72.34,103.35,73,112.82,75Z"/><path class="cls-8" d="M254.18,106.65c-5.11-.26-10.93.57-11.11-7.24-.19-8.51,6-7.8,11.5-7.8,5.14,0,10.93-.64,11.11,7.16C265.87,107.24,259.68,106.45,254.18,106.65Z"/><path class="cls-9" d="M160.47,83.44c-4.87-.08-8.42-1-8.13-6.18.28-5,4-5.78,8-5.84,4.24-.06,7.51,1.21,7.33,6.26S163.67,83.29,160.47,83.44Z"/><path class="cls-10" d="M103.17,202c-5.39-11-.11-22.27-.61-33.41-.24-5.43,1.37-10.92,1.85-16.4.37-4.2,2-7.36,6.12-8.61,4.77-1.45,7.86,1.4,10.57,4.7,9.41,11.43,9.19,11.2,20.47,2,17.43-14.14,13.74-18.42,33.36,1.39,6.73,6.8,10.65,7,15.33-1.21,2.38-4.19,5.22-8.85,11.2-6.93,6.21,2,6.16,7.5,6,12.84-.24,10.68-.35,21.37-.58,32.05-.31,14.8-4.64,18.46-20,17.06-3.2-4.17-7.92-2.78-12-2.85C151,202.34,127.08,203.58,103.17,202Z"/><path class="cls-11" d="M103.17,202c6.84-3.21,14.15-2.37,21.33-2.4,18.92-.06,37.83-.13,56.74.14,2.92,0,9.93-2.09,5.65,5.78q-37.47.27-74.93.51C108.45,206.09,105.05,205.66,103.17,202Z"/><path class="cls-12" d="M129,172.46c6.44-5.65,13.36-10.83,19.18-17.06,7.12-7.62,13-7.45,19.34.54,2.77,3.47,6.52,6.16,9.33,9.6,5.49,6.72,9.86,5.91,14.08-1.24,1.52-2.58,3.2-5.27,7.11-6.72,2.62,12.08,0,23.91-.25,35.68-.1,4.06-3.85,4.29-7,4.27q-40.22-.22-80.45-.53c-2.78-5-.25-9.73.4-14.65a137.19,137.19,0,0,0,1.59-18.14c0-2.92-1.41-7.09,3.69-7.84l.06.08C119.29,162.66,124.56,167.23,129,172.46Z"/><path class="cls-13" d="M116,156.37q-2.83,20.31-5.68,40.64c-3.54-13.28-.12-26.34,1.36-39.44C111.91,155.48,113.75,153.91,116,156.37Z"/><path class="cls-13" d="M129,172.46c-6.35-3.69-11.61-8.27-13-16A62.58,62.58,0,0,1,129,172.46Z"/></g></g></svg>