<svg xmlns="http://www.w3.org/2000/svg" viewBox="0 0 44.03 44.03"><defs><style>.cls-1{fill:#fff;stroke:#000;stroke-miterlimit:10;}.cls-2{fill:#272727;}</style></defs><g id="Layer_2" data-name="Layer 2"><g id="Layer_1-2" data-name="Layer 1"><circle class="cls-1" cx="22.01" cy="22.01" r="21.51"/><path class="cls-2" d="M9.38,20.73c.71-.47,1.4-.91,2.08-1.37A52.49,52.49,0,0,0,18,14.11a1,1,0,0,1,.74-.3h2.56c0-.18,0-.32,0-.46,0-2.23,0-4.47,0-6.7a3.2,3.2,0,0,1,0-.54.65.65,0,0,1,.68-.54.64.64,0,0,1,.62.56,4.29,4.29,0,0,1,0,.72v6.6c0,.1,0,.21,0,.36.8,0,1.57,0,2.33,0a1.8,1.8,0,0,1,1.38.51,47.57,47.57,0,0,0,8.11,6.22l.21.16-.59.15a10,10,0,0,1-5.92,0,.54.54,0,0,1-.47-.5c-.05-.37-.16-.73-.24-1.1s-.37-.67-.91-.57c-1.11.21-2.23.43-3.35.59a14.47,14.47,0,0,1-5-.39l-.81-.18a.68.68,0,0,0-.88.53c-.11.44-.18.88-.3,1.31a.49.49,0,0,1-.27.31,10.34,10.34,0,0,1-6.55,0Z"/><path class="cls-2" d="M15.85,22.25a1.93,1.93,0,0,0,0,.55c.05.17.13.41.26.47.33.14.31.34.26.63Q15.51,29,14.67,34.07c-.05.31-.17.38-.47.38H7.14c-.77,0-1.07-.4-.85-1.14a89.46,89.46,0,0,0,2.35-10c.07-.4.12-.79.19-1.18,0,0,0,0,.06-.1A11,11,0,0,0,15.85,22.25Z"/><path class="cls-2" d="M27.67,23.39a.69.69,0,0,0,.5-1,27.91,27.91,0,0,0,3.49.31,30.07,30.07,0,0,0,3.52-.54.49.49,0,0,1,.06.15,83.75,83.75,0,0,0,2.5,11c.21.71-.07,1.08-.8,1.09-2.37,0-4.73,0-7.1,0-.26,0-.35-.08-.39-.34-.58-3.5-1.18-7-1.77-10.5A.53.53,0,0,1,27.67,23.39Z"/><path class="cls-2" d="M28.06,34.42H24.77V24.84H19.28v9.58H16l1.78-11h8.53Z"/><path class="cls-2" d="M24.1,11.7V6.53c.44.14.86.26,1.26.41,1.46.53,2.89,1.13,4.38,1.6A6.3,6.3,0,0,0,34.1,8.4a.68.68,0,0,1,.61,1.21,9.77,9.77,0,0,1-5.14,1.86c-1.14.08-2.29,0-3.43.09C25.47,11.59,24.8,11.65,24.1,11.7Z"/><path class="cls-2" d="M26.68,22.05H17.35l.39-1.81c1.44.15,2.86.41,4.28.42a42.24,42.24,0,0,0,4.27-.42Z"/></g></g></svg>