<svg xmlns="http://www.w3.org/2000/svg" viewBox="0 0 353.47 377.59"><defs><style>.cls-1{fill:#1e1e1e;stroke:#b8a473;stroke-miterlimit:10;stroke-width:19px;}.cls-2{fill:#3e2a12;}.cls-3{fill:#3f290f;}.cls-4{fill:#3f2b12;}.cls-5{fill:#432c11;}.cls-6{fill:#402d16;}.cls-7{fill:#402a10;}.cls-8{fill:#3f290e;}.cls-9{fill:#3f2a0f;}.cls-10{fill:#3f3220;}.cls-11{fill:#3e2507;}.cls-12{fill:#3e2608;}.cls-13{fill:#65615c;}.cls-14{fill:#574c3e;}.cls-15{fill:#594f43;}.cls-16{fill:#493822;}.cls-17{fill:#3e2609;}.cls-18{fill:#3d2508;}.cls-19{fill:#463117;}.cls-20{fill:#4d4a47;}.cls-21{fill:#605e5b;}.cls-22{fill:#46321b;}.cls-23{fill:#4e4944;}.cls-24{fill:#594f45;}.cls-25{fill:#42290c;}.cls-26{fill:#5a3e1c;}.cls-27{fill:#593d1b;}.cls-28{fill:#5d554b;}.cls-29{fill:#422a0e;}.cls-30{fill:#4f402e;}.cls-31{fill:#48351e;}.cls-32{fill:#46331b;}.cls-33{fill:#40290d;}.cls-34{fill:#583c1a;}.cls-35{fill:#47321b;}.cls-36{fill:#584f42;}.cls-37{fill:#2d2524;}.cls-38{fill:#48361f;}.cls-39{fill:#4a3924;}.cls-40{fill:#37312d;}.cls-41{fill:#402a11;}.cls-42{fill:#422a10;}.cls-43{fill:#332723;}.cls-44{fill:#3a291f;}.cls-45{fill:#696765;}.cls-46{fill:#6a6968;}.cls-47{fill:#64605b;}.cls-48{fill:#46433f;}.cls-49{fill:#403c38;}.cls-50{fill:#504d49;}.cls-51{fill:#484643;}.cls-52{fill:#555350;}.cls-53{fill:#5d401d;}.cls-54{fill:#5c544a;}.cls-55{fill:#504230;}.cls-56{fill:#544838;}.cls-57{fill:#594f42;}.cls-58{fill:#463127;}.cls-59{fill:#402e25;}.cls-60{fill:#413d3a;}.cls-61{fill:#9b7352;}.cls-62{fill:#615b54;}.cls-63{fill:#442f24;}.cls-64{fill:#4e3e2b;}.cls-65{fill:#5e574f;}.cls-66{fill:#4d371e;}.cls-67{fill:#5e564d;}.cls-68{fill:#625e58;}.cls-69{fill:#452e13;}.cls-70{fill:#7c5237;}.cls-71{fill:#676562;}.cls-72{fill:#41290c;}.cls-73{fill:#432b0f;}.cls-74{fill:#442c0f;}.cls-75{fill:#503415;}.cls-76{fill:#4e3214;}.cls-77{fill:#8f6947;}.cls-78{fill:#896443;}.cls-79{fill:#7a5737;}.cls-80{fill:#442b0e;}.cls-81{fill:#614222;}.cls-82{fill:#4f3314;}.cls-83{fill:#604121;}.cls-84{fill:#866140;}.cls-85{fill:#452e12;}.cls-86{fill:#5c3e1f;}.cls-87{fill:#513416;}.cls-88{fill:#41290b;}.cls-89{fill:#946e4c;}.cls-90{fill:#876442;}.cls-91{fill:#696766;}.cls-92{fill:#635e59;}.cls-93{fill:#644426;}.cls-94{fill:#9f7654;}.cls-95{fill:#916b4a;}.cls-96{fill:#8b6645;}</style></defs><g id="Layer_2" data-name="Layer 2"><g id="Layer_1-2" data-name="Layer 1"><polygon class="cls-1" points="331 277.7 331 99.88 177 10.97 23 99.88 23 277.7 177 366.62 331 277.7"/><path class="cls-2" d="M2,149.42C1.37,145.77.41,142.15.1,138.47c-.77-9.06,2.93-13.73,12.7-14.14,28.51-1.21,56.58,1.86,84.59,6.79,16.51,2.9,33.66,8.07,49.71,6,17.52-2.29,34.05.8,51,1.11,6.18.11,11.43,1.45,15.84,6.61,5.39,6.3,13.53,5.41,20.92,5.63,4.45.13,9.22-1.56,13.34-.48,23.48,6.15,45,.78,65.92-9.8a3.49,3.49,0,0,1,1.75,3.52c-19.07,17.78-42.52,16.91-66,15.08-3.57-.27-6.67-1.24-10.43,0-10.07,3.4-19.2-2.85-28.92-3.64-.72-.06-1.89-.51-1.93-1-1.3-15.56-13.48-9.17-21.5-10.31-7.35-1-15,.56-22.35-.67-6.35-1.07-9.86,8.18-16.66,3.87-16.89-2.32-33.62-5.94-50.35-8.83-13.25-2.29-26.92-2.74-40.26-6.5-15.11-4.26-31.59-2.14-47.47-.13a5.38,5.38,0,0,0-4.71,6.45c.63,3.44-.28,6.5-.44,9.69A3.6,3.6,0,0,1,2,149.42Z"/><path class="cls-3" d="M314.15,142.54c0-.79,0-1.58,0-2.37,10.36-3.83,17.16,1.11,21.76,9.63,3.67,6.8,8.58,10.77,16.42,10.77,3.63,6.13-2.44,10.9-2.28,16.64.5,17.49-5.78,34.29-5.59,51.77,0,2.9.53,6.11-3.4,7.17-4-1.06-3.86-4.93-5.28-7.73-.2-10.46,3-20.76,1.58-31.27-.67-4.09-3.6-7.37-4.3-11.3-3.21.79-6.36.17-9.5.4a23.94,23.94,0,0,1-3.27-.3c-5.77-4.15-.24-9-.8-13.45,0-1.06,0-2.13,0-3.18,0-5.5.38-11-1.14-16.44a25.81,25.81,0,0,0-1.5-4C315.86,146.81,314.19,145,314.15,142.54Z"/><path class="cls-4" d="M341.12,234.52c2.19-14,5.26-27.89,6.29-42,.8-10.88,2-21.53,4.9-32,2.68,15.36-3.26,30-3.72,45.17-.27,8.86-2.69,17.63-3.57,26.49-.95,9.56-5.83,13.18-15.34,13.73-15.62.9-30.1-4.27-45-6.9-6.61-1.16-13.12-2.6-19.87-2.42-10.78-3.32-18.08-.57-21.13,11.19-.89,3.41-3.74,6.31-5.69,9.44-7-4.92.51-10-.18-15,4-16.36,7.19-18.38,23-13.25a40.26,40.26,0,0,0,13.69,1.81c13.7-.32,26.32,4.61,39.37,7.77C322.86,240.78,333.18,243.47,341.12,234.52Z"/><path class="cls-5" d="M51.6,176.18C40,164,23.82,161.46,9.05,156l-7-6.53.37-.33c2.64-3.58,6-1.82,9.06-1.05,15.37,3.83,29.16,12.6,45.24,14.36,1.63.18,3.74,2.23,4.23,4.65-1.21,3.76-1.55,8.06-5.58,10.35A4,4,0,0,1,51.6,176.18Z"/><path class="cls-6" d="M237.83,259.18c-12.62,26.74-47.41,43.75-77,35.89-14.65-3.9-28.84-6.1-43.9-4.44a56.48,56.48,0,0,1-29.54-4.46,3.44,3.44,0,0,1-.93-3.52c4.67-4.33,9.36.27,14.06.05,5.48.66,11.21,2.54,16.44.85,17.87-5.78,34.24,0,50.75,5.47,8.65,6,15.89-3,24-2.29,15.21-2.67,27.42-10.05,36.42-22.75C230.4,260.83,232.17,255.84,237.83,259.18Z"/><path class="cls-7" d="M237.83,259.18c-9.94,10-18.5,21.74-32.25,27.21-4.14,1.64-8.48,2.78-12.73,4.15-1.4-1-3.13-1.51-4.18-3,0-5.1,5.41-7.27,6.44-11.81,15.59-5.89,26.59-16.51,33.23-31.78,2.16-5,6.17-7.25,11.66-6.61,2.16,2.31.19,5.76,2.23,8.11q-2.14,5.89-4.28,11.81C237.93,257.91,237.89,258.55,237.83,259.18Z"/><path class="cls-8" d="M100.88,286.11,87.34,284c-10.7,0-16.23-9.35-24.59-13.58a16.56,16.56,0,0,1-.1-1.86c-1.28-4-5.85-5.87-6.47-10.25a7,7,0,0,1,3.09-4,7.31,7.31,0,0,1,3.28-.31C69,258.6,73,266.33,81.39,268.3a24.12,24.12,0,0,1,7.32,2.89c4.87,2.08,9.39,5.07,14.86,5.58,1.15.18,2.29.35,3.44.51,6.12,1,12.36.52,18.5,1.45a3.86,3.86,0,0,1,1.91,3.36C119.54,289.84,109.69,284.54,100.88,286.11Z"/><path class="cls-9" d="M58.27,259.17l4.38,9.37c-21.85-19.82-27.7-48-16.31-78.84,1.68-4.53,3.5-9,5.26-13.52h2.2a3.56,3.56,0,0,1,2.84,2.08c-.81,10.51-4.32,20.31-8.61,29.8-2.7,6-2.42,11.3-.08,17.56C52.05,236.56,57.49,247.19,58.27,259.17Z"/><path class="cls-10" d="M62.75,270.4,87.34,284c0,.73,0,1.46.06,2.19C77.43,283.65,69.41,278.09,62.75,270.4Z"/><path class="cls-11" d="M242.23,245.46q-1.06-3.24-2.15-6.47c-6.09-3.75-7.36-10.07-7-16.16.6-10.39-3.72-19-7.65-28-3.06-3.35-2.26-8-4-11.77-2.26-4.79-6-8.14-10.47-10.84-7.43-4.18-14.62-8.94-23.58-9.22a143,143,0,0,1-38.8,3.1,24,24,0,0,1-5.42-.43,5,5,0,0,1-2.4-2.26c-.54-5.63.5-11.4-1.35-17,1.28-7.94,6.43-5,10.93-3.89,11.95-4.1,24.26-2.07,36.46-2.24,10.29-.15,19.82.31,27.43,9.24a17.87,17.87,0,0,0,16.53,5.51c10.27-2.26,20.05,0,30,.91,19.44,1.79,37-3.7,53.46-13.42,8.05.36,8.05.36,8.73,4.67-7.28,8.2-5.83,16.34.18,24.44,3.88,4.64-.52,7.69-2.16,11.27,5.79,5.5,3.62,12.37,2.42,18.57-.6,3.1-1.54,6-1.6,9.33-.32,18-.37,18.07,17.15,17l2.25,6.69c-1.61,6.58-6.38,8.62-12.53,8.8-6.72.2-13.34,0-19.88-2-17.49-5.41-35.79-6.59-53.7-9.77C244.48,229.67,242.8,237.41,242.23,245.46Z"/><path class="cls-12" d="M143.57,160.51v2.16a6.23,6.23,0,0,1-1.24,5.6,10.84,10.84,0,0,1-2,2.16,44.25,44.25,0,0,0-7.62,7c-4.46,4.94-9.51,9.42-11.9,15.91-11,13-7.23,28.25-6.7,43a34.18,34.18,0,0,0,3.52,10.1c.38.92.75,1.84,1.13,2.74,2.33,5.44,6,9.91,10,14.24,4.4,4.64,9.53,8.39,14.73,12.06,2.14,1.37,4.43,2.45,6.61,3.74,4.82,3.52,10.65,4.69,16,6.92,2.1,1.8,5.1,3.29,2.17,6.7-18.18-5-36.3-9.73-55.47-4.86-3.58.91-7.91-1.16-11.9-1.85l24.81-4.2c-.47-5.32-5-6.78-8.64-9.14a46.3,46.3,0,0,1-5.74-4.92c-1.66-2.67-4.35-4.48-6.07-7.12.55-3.88-1.16-7.09-3-10.27a13.75,13.75,0,0,0-.11-3.27c2.2-8.48-3.23-16.27-2.32-24.6,0-1,0-2,0-3.05,0-2.73.93-5.49,0-8.22a6.93,6.93,0,0,0-3.22-3.55,7.79,7.79,0,0,0-5-.21c-2.95.82-5.25,3.28-8.5,3.32-7-.26-14.1-.38-10.33-10.82,4.59-7,7.87-14.21,4.34-22.71-2.13-3.87-5.39-4.67-9.41-3.43-1,.36-1.93.7-2.89,1.07-10.12,5.51-6.25-4.73-8.79-7.77C37.18,164,20.32,155,2.4,149.09c0-1.87-.17-3.74-.15-5.61.11-14.25,2.09-16.13,16.08-16.65a272,272,0,0,1,57.92,4.39c24.57,4.35,49.34,7.6,74,11.32-3,.29-5.91.79-6.71,4.44.05,1.65-.87,3.55-2.28,3-8.73-3.38-17.26,1.51-25.89.31-4.26-.6-8.9.31-11.64-4.62-1.33-2.39-4.78-3.54-6.86-2.34-5.9,3.4-12.11,2.13-18.25,2.39-4.94.21-6,2.26-2.72,6.13.88.53,1.7,1.1,2.58,1.62a150,150,0,0,1,24.3,7.3c13,5.2,22.73.48,33.73-2.57C139.26,157.44,142.53,155.83,143.57,160.51Z"/><path class="cls-4" d="M338.87,227.83c-2.89,6.68-7.79,10-15.13,8.27-7.9-1.87-6.87-8.54-7.29-14.44-.93-13.2,5.5-25.54,4.45-38.74l2.49.07c8.62,8.13,9.71,17.58,4.61,27.89a4.38,4.38,0,0,0,.24,4.82c.09-.24.54.25.57.07,1.78-5.36,1.93-10.78,2.46-16.15.61-6.17,3.53-8.73,9.67-5.84C341,205.17,341.79,216.61,338.87,227.83Z"/><path class="cls-13" d="M323.16,151.44c7.34,6,5.18,11.91-.16,17.8-6.05,3.28-11.05,1.23-13.55-4.38-1.82-4.09-2.84-9.71,1.69-13.08C314.6,149.21,319,145.1,323.16,151.44Z"/><path class="cls-14" d="M340.94,193.78c-3.5,13.46-1.33,28.15-8.8,40.77-2.9-2.88-5.65-5.27-4.31-10.47,3.11-12.05,2.33-24.75,5.42-36.89.72-2.81,2.25-6.67-2.3-8.41a7.2,7.2,0,0,1-1.4-3c3-2.66,5.65-6.92,10.34-4.25,4.47,2.54,2.68,7.19,2.29,11.15C341.82,186.4,341.36,190.09,340.94,193.78Z"/><path class="cls-15" d="M320.93,234.45c-3.72-6-2.16-12.29-.85-18.36a148.1,148.1,0,0,0,3.31-33.1l6.16-7.18.92,1.14c2.43,2.11,3.5,4,2.75,7.89-2.36,12.2-3,24.69-4.85,37C327.61,227,324.84,231.09,320.93,234.45Z"/><path class="cls-16" d="M323.16,151.44c-6.63-1.39-12.38.14-12.82,7.6-.49,8.12,6.07,9.68,12.66,10.2l.06,2.42c-8.16-.13-15.21-2.13-15.27-12s7.06-11.92,15.09-12.43C323,148.62,323.07,150,323.16,151.44Z"/><path class="cls-17" d="M56,167.22c2.36,3.36,5.25,4.57,9,2.24,1.53.5,3.08,1.69,2.64,3.08-2.94,9.16-1.9,19.14-5.93,28.08-8.21-1.49-7.64-1.49-7.68-8.85,0-4.41,3.8-9-.23-13.34,0-.75,0-1.49,0-2.24Z"/><path class="cls-18" d="M168.25,292.82l-4.47-4.36c8.94-6,17.92-5.15,26.91-.12l2.16,2.2C184.67,291.57,176.83,296.13,168.25,292.82Z"/><path class="cls-19" d="M231.22,189.45c11.54,15,8.69,32.53,8.86,49.54-7.1,13.82-13.77,28-27.43,36.94-4,2.66-8.19,5-13,6l-1.79-1.14a6.28,6.28,0,0,1-.37-4.08c11-7.22,22.31-15,28.31-26.68,8.52-16.53,10.64-34.28.94-51.82-1.43-2.57-3.4-6.32.45-9.16A4.93,4.93,0,0,1,231.22,189.45Z"/><path class="cls-6" d="M190.69,288.34l-26.91.11c-6.05-.45-11.57-2.2-16.08-6.46a3.36,3.36,0,0,1,2-3.2c7.26-2.17,14.27-3.67,21.73.25,2.11,1.1,6,.25,9.29-1.08,6.54-2.65,13.31-2.31,18.73,3.36l.21.6Z"/><path class="cls-12" d="M53.81,178.43c7.92,4.83,2.52,14.12,6.78,20.17,2.56-.85,5-1.16,6.89,1.36a7.3,7.3,0,0,1,.64,3.54c-17.24,11.61-18.48,16.44-11.22,37.7,1.71,5,6,9.72,3.57,15.77l-2.2,2.2c-15.2-21.12-19.2-43.68-8.94-68.16C51.05,186.91,52.33,182.63,53.81,178.43Z"/><path class="cls-9" d="M60.47,257c-8.87-10.87-11.9-23.38-11.28-37.23C49.83,205.47,50.87,204,65,203.1c3.21-.11,5.4.88,5,4.64a5.24,5.24,0,0,1-4.24,3.38c-1.09.39-2.2.79-3.28,1.21-9,3.13-4.93,10.81-5.12,16.48-.17,4.91,2,9.92,3.95,14.64.63,2,2.24,3.58,2.64,5.7.22,2.49,2,4.91.27,7.48l-1.51.41Z"/><path class="cls-20" d="M101.75,279.77c-5.36,0-9.87-2.59-14.58-4.61,0-.55,0-1.11.08-1.67,2-2.88,5.18-4.18,8-6a10.66,10.66,0,0,1,3.47-.27c6.91,1.92,14.5.71,21,4.68a3.91,3.91,0,0,1,1.55,3.28C115.77,281.14,107.9,276.75,101.75,279.77Z"/><path class="cls-21" d="M101.75,279.77c4.78-5.28,11.32-4.35,17.44-4.93,4-.79,6,.57,4.9,4.88-6.73,1.54-13.52.66-20.3.48A17.6,17.6,0,0,1,101.75,279.77Z"/><path class="cls-9" d="M80.61,272.65c-8.89-1.86-14.29-7.72-17.92-15.61l.36-.4c2.56-2.75,5.23-.93,7.83-.16a54.37,54.37,0,0,0,4.72,4.64C77.58,264.8,85,266.23,80.61,272.65Z"/><path class="cls-22" d="M123,279.15l-3.78-4.31a10.73,10.73,0,0,0-.25-2.19,1.67,1.67,0,0,1-1-2l1.24-.36c4.36,2.67,10.93,4.1,6.49,11.66l-2.76-.6Q120.74,280.2,123,279.15Z"/><path class="cls-23" d="M80.61,272.65l-9.72-8.95c1.6-3.77,4-3.56,7-1.61,4,2.63,8.32,4.87,11.15,9a3.71,3.71,0,0,1-1.21,3.48l-.68.63Z"/><path class="cls-24" d="M123,279.15q0,1.08,0,2.16l-19.14-1.1Z"/><path class="cls-25" d="M143.57,160.51c-23.21,17-46.36,8-69.51-.14,4.56-8.83,12-5.4,18.64-4.07,23.09,4.63,26.94,4.6,41-1.73-14.92-4.73-30.93-3.54-46.14-7.51C76,144,77.46,154.85,74,160.43c-15.12,1.21-10.67-9-10.15-17.12.66-10.24,6.72-8.05,13.51-6.94,22,3.59,44.44,5,66.17,10.61,3.69,1.18,9.72.24,9.73,5.36C153.32,157.21,146.85,157.69,143.57,160.51Z"/><path class="cls-26" d="M300,210.12c5.36.2,10.48,1.35,10.27,8.37-.16,5.6-.83,11.66-8.49,11.84-6.51.14-11.76-2.13-12-9.82C289.46,213.72,293,210.34,300,210.12Z"/><path class="cls-27" d="M303.07,200c-5.16-.88-11.63-2.13-11.43-9.16.23-7.75,7.57-8.29,13.39-9,6.22-.78,8.84,3,8.65,8.85C313.46,197,310,200.16,303.07,200Z"/><path class="cls-28" d="M247,218.57c-.07-.67-.16-1.35-.26-2-2.19-10.11-5.15-20.12-3.27-30.69,1.46-8.2,3-8.77,10.32-3.39a13.66,13.66,0,0,0,1.78.57c4,3.23,8.76,2.22,13.33,2.26,14.78,2.26,15.89,3.88,12.84,19.27A164,164,0,0,0,278.88,223a5,5,0,0,1-2.73,2c-6.15-3.43-4.75-9.84-5.78-15.19s-1.74-10.85-8.45-10.95-7,5.56-7.23,10.32c-.19,3.42-2,6.21-2.63,9.41a3.58,3.58,0,0,1-2.51,1.83A4.9,4.9,0,0,1,247,218.57Z"/><path class="cls-29" d="M280.45,176.17c-.59.44-1.15.94-1.78,1.33-5.82,3.61-11.87,4.13-18,.89a5.27,5.27,0,0,1-2.69-6.68c2.49-6.48,8.51-7.64,14.38-9s11.5-3.15,17.36-3.87c6.27-.78,11.27,1.77,11.63,8.84.33,6.46-4.68,7.76-9.77,8.18-3.7.3-7.43.19-11.14.26-.43-.61-.84-1.23-1.27-1.84-2-2.74.5-3.67,2-5C274.2,170.85,279.79,173.79,280.45,176.17Z"/><path class="cls-30" d="M118.83,189.58c1.93-6.53,7-10.78,11.27-15.65,3.23-1.94,5.73-4.87,9.09-6.63l-.07.06c2.4-2.75,6-3.07,9.07-4.56,13.61-6,28-4.43,42.26-4.38,2.56,1.55,7.76.71,5.78,6.38-5.38,6.66-11.25,1.33-17,1s-10.91-.85-16.66,1.26c-14.82,5.46-29.16,11-36.94,26.32-1.14,2.25-4.3,5.67-8,2C116.55,193.19,117.24,191.29,118.83,189.58Z"/><path class="cls-31" d="M253.75,182.47c-8.67-1.2-9.05,5-8.92,10.71.16,7.8,1.21,15.58,1.87,23.37-8.09-13.53-4.62-28.24-4.34-42.63,2-4.3.23-9.87,4.45-13.45l2.4.14c1.37,1.54,3.55,2.67,2.78,5.34l-.17,1.29C250.15,172.61,252,177.53,253.75,182.47Z"/><path class="cls-32" d="M276.32,223.75c3-6.13,2.71-12.88,3.37-19.4,1.51-14.91-.14-16.55-15.14-16.31-.16-6.42,3.82-3.72,6.86-3.11,11.15-.16,14.24,6.08,12.67,16-.52,3.31-1.09,6.61-1.75,9.9-3.44,17.25-7.11,19.34-24.76,14.11-1.38-5.8,3.25-4.77,6.11-4.95C268.24,219.69,272.13,222.37,276.32,223.75Z"/><path class="cls-33" d="M190.7,142.54a46.69,46.69,0,0,1,6.51,1.52c2.95,1.14,5.3,3.22,4.85,6.7-.48,3.68-3.59,4.48-6.66,4.81a23.39,23.39,0,0,1-16-3.93c.57-5.72,7.49-3.1,9.36-7.1C189.41,143.86,190.05,143.2,190.7,142.54Z"/><path class="cls-34" d="M228.93,176q-1.25-2.16-2.47-4.32c-3.41-3.38-11.1-6.3-8.7-10.6,2.74-4.88,9.61.26,14.69.61,6,4.91,6.14,10.39,1.72,16.36A7.18,7.18,0,0,1,228.93,176Z"/><path class="cls-35" d="M190.72,144.69c2.23,1,5.69,1.37,5.57,4.32-.15,3.61-3.7,2.54-6,2.64-3.61.16-7.24,0-10.86,0l-13.36-.16c-1.86-2.41-3-4.81,0-7.19,3.66-.47,6.81,2.49,10.51,1.61,3.45.25,6.81-.06,9.81-2.08C187.94,143.69,189.51,143.32,190.72,144.69Z"/><path class="cls-5" d="M231.16,162.76l-8.82-.84c-1.68,5,2.91,6.64,4.12,9.8-4.14-2.54-12.43-4.75-9.2-9.8,4.44-6.94,12.28-3.4,18.34.79C234.14,164.22,232.65,164,231.16,162.76Z"/><path class="cls-28" d="M276.32,223.75l-18.74,1.17-1.12-.06c-2.92-1.4-7.63-.37-7.68-5.66l.77-.87c9.23-7.18,18.6-5.65,25.91,4.23C275.75,223,276,223.35,276.32,223.75Z"/><path class="cls-2" d="M167.88,144.65l-1.82,6.83c-4.35-6.19-.05-8,4.83-8.47,6.56-.61,13.2-.36,19.81-.47,0,.71,0,1.43,0,2.15l-4.72.2c-2.59,2.61-5.93,2.06-9.12,2.13C173.68,146.94,170.37,147.34,167.88,144.65Z"/><path class="cls-5" d="M195.13,162.78l-4.68-4.36a45.82,45.82,0,0,1,22.92,10.83c-.12.65-.25,1.3-.37,1.95-1.4,1.53-3.29,2.37-5,3.42C201.69,172.87,194.91,171.65,195.13,162.78Z"/><path class="cls-29" d="M271.41,184.93,264.56,188c-4.92,1.77-6.76-2-9-5C260.91,182.92,266.27,183,271.41,184.93Z"/><path class="cls-19" d="M231.16,162.76l4.44,0c2.22,5,2.27,10.35,2.2,15.7-2.82,2-4.67,2.08-4.38-2.17C235.64,171.25,234.57,166.8,231.16,162.76Z"/><path class="cls-5" d="M213.37,169.25a20.45,20.45,0,0,1,11.21,11.28c-.4.66-.8,1.31-1.19,2-11.28,1.81-14.09-1.43-10.77-12.43Z"/><path class="cls-29" d="M251.29,160.18c1.88-.11,3.91-.05,4.24,2.25.38,2.62-1.9,3.64-3.71,4.81l-.85-.49C250.48,164.53,251.62,162.39,251.29,160.18Z"/><path class="cls-5" d="M233.42,176.24l4.38,2.17c-4.27,4.13-6.46.46-8.87-2.37Z"/><path class="cls-19" d="M246.81,160.47q-2.24,6.72-4.45,13.45C242.4,169,243.2,164.25,246.81,160.47Z"/><path class="cls-31" d="M248.78,219.2l7.68,5.66c-4.57,0-7.91-1.81-9.5-6.29C247.57,218.76,248.18,219,248.78,219.2Z"/><path class="cls-5" d="M231.22,189.45l-2.59.26c-1.8,1.24-3.62,1.62-5.51.2-1.62-3.09-2.72-6.14.7-8.84l.76-.54Q227.9,185,231.22,189.45Z"/><path class="cls-25" d="M148.19,162.8l-9.07,4.56,4.45-4.69Z"/><path class="cls-36" d="M251.29,160.18c1.15,2.25.59,4.42-.32,6.57q-.89-3.08-1.76-6.14C249.9,160.49,250.6,160.34,251.29,160.18Z"/><path class="cls-37" d="M110,259.16l4.39,6.74c1.48,4.37-1.84,3.87-4.16,3.8-12.15-.35-23-4.72-33-11.3-3-1.21-4.53-3.85-6.32-6.25-3.12-6-7.59-11.59-7-19q0-7.77,0-15.56c0-3.72-.57-7.77,4.38-8.92,5.56-1.3,5.14,4,6.84,6.75.39.64.07,2,1.78,3.09,2.21-7.25,10.22-9.32,13.69-15.7a5.78,5.78,0,0,1,3.27-.19c5.74,3.87,3.57,10.6,5.73,15.77.28,1.76,1,3.43,1.28,5.19.15,3.74,2.09,7,2.94,10.53.25,2.91-1.26,4.63-3.8,5.64a26.31,26.31,0,0,1-5.09.23c-2.4.22-3.46-1.28-4-3.08.1.21.06,0,.1.2,1.08,2.58.67,5.24,1.22,7.75.72,2.26,2.87,2.83,4.74,3.78,3.23.56,6,2.19,8.92,3.53a5.16,5.16,0,0,1,3.2,4.31A12.67,12.67,0,0,1,110,259.16Z"/><path class="cls-5" d="M58.06,143.89c.29,13.38-8.85,20.05-20.65,15.53-7-2.66-13.79-5.71-20.61-8.74-5.38-2.4-8.2-6.57-7-12.53,1.12-5.49,5.73-6.53,10.37-6.62,8.57-.16,17.17-.18,25.74.14C54,132,58.17,136.39,58.06,143.89Z"/><path class="cls-38" d="M65,200.88l-4.41-2.28c-.74-10-.06-19.88,4.42-29.14h0c6.78-1.64,13.6-3.47,18,4.52,0,9.24.54,18.57-4.53,27C73.94,202.35,69.46,206.15,65,200.88Z"/><path class="cls-39" d="M118.83,189.58l.12,4.7a8.59,8.59,0,0,1,2.82,2.05,13.77,13.77,0,0,1-.7,9.19c-4.19,10.38-3.87,21-2.08,31.71.78,4.63,2.59,9.44-1,13.79a3.14,3.14,0,0,1-3.55-.94c0-.72-.09-1.43-.15-2.14-2.38-2.57-2.92-6-4.33-9.06.2-11.69-1.29-23.47,1.17-35C112.28,198.52,114.44,193.35,118.83,189.58Z"/><path class="cls-25" d="M112.22,187.45c-3.24,10.11-11,9.71-18.87,7.51-5.28-1.47-7.82-5.87-6.37-11.23,1.85-6.85,5.17-12.56,14-9.9,0,.51,0,1,0,1.51-3.16,4.9-1.88,8.13,3.83,9.06,2.4.4,5-.36,7,1.57C112,186.46,112.11,187,112.22,187.45Z"/><path class="cls-40" d="M78.52,254.66c11.38,5.53,22.21,12.84,35.83,11.24l4.85,4.35-1,.45c-14.67.86-29.26,1.36-40.79-10.27a3.93,3.93,0,0,1-1.19-3.2A4.83,4.83,0,0,1,78.52,254.66Z"/><path class="cls-17" d="M101,232.29l-2.19-8.92c-.09-1.56,0-3,1.75-3.75A3.86,3.86,0,0,1,103.1,221c1.19,9.09,5.54,17.66,4.5,27.13a4,4,0,0,1-3.31,1.4C97.11,245,102.77,237.9,101,232.29Z"/><path class="cls-17" d="M65,200.88l13.42.05c-2.58,7.13,3.24,5.7,6.75,6.61l.81,1.57c-2.46,2.78-5.83,3.63-9.25,4.41-1.89.58-3.26-.49-4.66-1.47-1.27-1.9-3.47-2.84-4.81-4.67q-1.14-2.13-2.26-4.28Z"/><path class="cls-25" d="M101,173.83c2.21.1,4.44,0,6.63.32,10.43,1.45,11.46,4.48,4.57,13.3l-.26-.16c-3.43-2.06-6.8-4.22-10.31-6.13-3.77-2-2.8-4.46-.79-7.07Z"/><path class="cls-22" d="M141.41,279.68a65.28,65.28,0,0,1-16-13.76,3.82,3.82,0,0,1,.17-4.06c10.3-2.3,18.29,4,18.73,14.76A4.74,4.74,0,0,1,141.41,279.68Z"/><path class="cls-41" d="M125.78,263.28l-.42,2.64a33.92,33.92,0,0,1-10.91-15.84L117,250C126.17,250.31,125.76,256.94,125.78,263.28Z"/><path class="cls-42" d="M98.65,203.07a11.85,11.85,0,0,1,9,6.74c-1.71,1.85-.76,5.4-4,6.28-3.63.49-3.81-2.7-5.07-4.74-.45-.91-.87-1.83-1.23-2.78-.74-2.14-3.89-3.77-1.39-6.59A3.73,3.73,0,0,1,98.65,203.07Z"/><path class="cls-17" d="M83,174c-5.4-3.82-11.47-5-18-4.52C72,166.93,78.54,166.22,83,174Z"/><path class="cls-41" d="M110,259.16l-2.24,0c-.82-3-3.68-5.92-.09-8.94C110.69,252.59,111.35,255.61,110,259.16Z"/><path class="cls-42" d="M85.17,207.54a17.23,17.23,0,0,1,4.49-8.91c1.44,1.39,4.14,1.54,4.2,4.28a5.29,5.29,0,0,1-1.9,2.47h0c-2.21.71-3.51,4.18-6.61,2.18Z"/><path class="cls-25" d="M139.19,167.3a20.14,20.14,0,0,1-9.09,6.63A18.31,18.31,0,0,1,139.19,167.3Z"/><path class="cls-43" d="M101,207.61l2.22,6.78c1.74,1.47,1.07,2.93,0,4.38,0,.72-.08,1.45-.11,2.18l-1.89.11C96.1,216.65,95.87,212.17,101,207.61Z"/><path class="cls-17" d="M91.94,203.14l-2.28-4.51a17,17,0,0,1,9,4.44l-2.2.11C94.94,205,93.43,204.31,91.94,203.14Z"/><path class="cls-41" d="M110,238.88q2.18,4.53,4.33,9.06A16.35,16.35,0,0,1,110,238.88Z"/><path class="cls-44" d="M107.63,250.2l.09,8.94c-.8-1.46-1.59-2.93-2.39-4.4-2.1-2.3-3.48-4.58.12-6.78l2.15.11Q107.6,249.14,107.63,250.2Z"/><path class="cls-17" d="M103.21,218.77l0-4.38,4.4-4.58A17,17,0,0,1,103.21,218.77Z"/><path class="cls-6" d="M141.41,279.68l-.09-2.39c5.56-4.87,7.56-2.89,7.15,3.72l-.77,1Z"/><path class="cls-45" d="M320.93,234.45c4.21-19,2.76-38.93,9.54-57.5,8.83-4.39,8.46,1.92,7.87,7.22-1.86,16.81-4.1,33.59-6.2,50.38Z"/><path class="cls-46" d="M118.88,196.39c0-.7.05-1.41.07-2.11,14.59-21.17,33.77-34.09,60.43-33.55,9.85,2.68,20.2,3.88,28.94,9.83,7.72,3.85,12.7,10.66,18.2,16.92.7.74,1.4,1.49,2.11,2.23,8.36,18.23,12.24,36.69,3.9,56.17-6.62,15.45-17.12,26.89-32.63,33.6-6,1.77-12.11,3.07-18.13,4.74-11.66,3.23-23.16-1.27-33.11-6-26.73-12.67-43.21-45.37-31.34-73.27C118.48,202.23,116.71,199,118.88,196.39Z"/><path class="cls-47" d="M118.88,196.39c-1,14.68-5.28,28.72-.83,44.19,7.28,25.32,41.1,48.73,68.56,40.37,4.19-1.28,8.85-1,13.29-1.47-.14.62-.3,1.23-.47,1.84-17,6.19-34,5.14-51-.31l-7.15-3.72-15.54-14L117,250C112.26,231.94,108.64,213.93,118.88,196.39Z"/><path class="cls-43" d="M85.32,207.56l6.61-2.18c-4.37,5-8.63,10-9.68,17.08-.51,3.41-.58,8.46-5.34,8.51-5,.06-5.89-4.81-6.91-8.77-.45-1.76-.64-3.59-2.82-5.45v15.61c-11.51-3.86-13.28-13.68-4.45-24.64l4.53-.33,4.5,2.58c1.5,1.44,3,2.57,4.55.06Z"/><path class="cls-20" d="M87.3,272.63c-5.18-3.5-10.21-7.27-16.4-8.92q-.74-2-1.44-4c-3.47-2.7-5.67-6.59-8.93-9.49L58.05,246c-1.52-2.89-.55-6.31-2-9.22,1.8-7.74,4.72-5.72,7.8-.83,1.9,3,2.85,6.57,5.43,9.19.53,1,1.06,2.07,1.65,3.06,2.43,3,4.39,6.35,7.55,8.7h0c4,5.35,8.83,9.31,15.74,10.15,1.83.23,3.71.7,2.22,3.29l-.09.07C93.84,273.31,90.48,272.62,87.3,272.63Z"/><path class="cls-48" d="M58.25,236.74c-.06,3.1-.13,6.19-.2,9.29-6.34-9.38-7.37-19.88-6.39-30.76.48-5.25,1.75-9.85,8.82-7.61,1.55,1.33,1.14,3,.85,4.67C53.77,219.64,58.52,228.51,58.25,236.74Z"/><path class="cls-49" d="M60.39,212.1l.09-4.44,2.25.06c.07,8.47-.11,17,4.45,24.64L74,250.22c-1.52,1.45-3,1.3-4.42-.13,0-.71,0-1.41-.08-2.12-5.6-10-15.39-18.34-11.69-32A7.18,7.18,0,0,1,60.39,212.1Z"/><path class="cls-50" d="M60.53,250.2c4.4,1.83,7.07,5.27,8.93,9.49l-6.41-3.05Z"/><path class="cls-51" d="M96.43,270.38c-6.79-3.4-14.63-5.42-18-13.44,11.89,8.49,24.93,13.65,39.72,13.76.27.64.52,1.29.74,1.95C111.36,272.63,103.75,273,96.43,270.38Z"/><path class="cls-52" d="M87.3,272.63l9-2.18a11,11,0,0,1-8.5,4.08C87.65,273.9,87.47,273.27,87.3,272.63Z"/><path class="cls-53" d="M74,160.43c-6.73-2.65-8.62-7.56-6.9-14.34,1.81-7.15,7.41-6.6,12.53-5.86,21,3,41.87,6.31,62.78,9.61,1.31.2,2.48,1.24,5.36,2.76-11.72,7.21-20.88,15.2-35.16,13.18-12.85-1.82-25.42-5.93-38.59-5.41Z"/><path class="cls-46" d="M275.46,222.56l-25.92-4.23c-.19-6.73-.51-13.46-.52-20.18,0-2.56-.15-6.55,1.28-7.44,7.07-4.37,13.9,2.21,21.31,1.3,4.81-.59,5.38,4.17,5.16,8.16C276.35,207.64,275.9,215.1,275.46,222.56Z"/><path class="cls-34" d="M280.45,176.17c-4.46.39-8.91,1-13.39,1.12-2.27.08-4.63-.82-5.26-3.33-.71-2.79,1.52-4.22,3.61-4.91,7.79-2.58,15.63-5.06,23.55-7.2,3.47-.94,7.07-.2,7.87,4.09.76,4.08-2.13,6.11-5.56,7.22s-7.19,2-10.79,3Z"/><path class="cls-54" d="M208.64,171.75l-29.26-11,15.75,2.05,13.51,6.76C210.12,170.28,210.12,171,208.64,171.75Z"/><path class="cls-55" d="M177.2,144.87l8.8,0a11.56,11.56,0,0,1-8.84,4.19C175.53,147.66,175.67,146.26,177.2,144.87Z"/><path class="cls-56" d="M177.2,144.87c0,1.41,0,2.81,0,4.21-3.76-.08-7.06-1.12-9.28-4.43Z"/><path class="cls-57" d="M208.64,171.75v-2.21l4,.52,11.2,11,2.7,6.41Z"/><path class="cls-43" d="M105.45,248l-.12,6.78c-4.47.54-8.93,1.55-13.39-.07,1.76-2.31,1.26-4.91.72-7.39-1.17-5.45,0-9.39,6.1-10.57l2.19-4.42Z"/><path class="cls-58" d="M85.28,247.92q0-11.14,0-22.29,3.33-6.23,6.66,0l4.64,8.77a2.59,2.59,0,0,1,.76,1.8c0,.68-.07,1-.2,1-6,1.72-3.66,9.77-9.1,11.91A4.27,4.27,0,0,1,85.28,247.92Z"/><path class="cls-59" d="M96.24,237.09l.3-2.7,2.22,2.32c-.37,6.71.86,14-6.82,18l-6.66-6.75,2.61-.12C93.67,246.56,90,238,96.24,237.09Z"/><path class="cls-60" d="M101,207.61q.09,6.72.19,13.46l-2.46,2.3c-.79-.8-1.59-1.61-2.4-2.41-.21-5.05-5.12-11.67,4.5-13.45Z"/><path class="cls-43" d="M100.85,207.51c-3.71,3.75-4.48,8.47-4.49,13.45q-2.2-7.78-4.4-15.58c0-.75,0-1.49,0-2.24l4.52,0Z"/><path class="cls-51" d="M69.54,250.09l4.42.13,4.56,4.44c0,.76,0,1.52,0,2.27Z"/><path class="cls-43" d="M91.9,225.62H85.24Q88.56,218.79,91.9,225.62Z"/><path class="cls-61" d="M31.41,134.56c4.85,0,9.73-.37,14.54.08,7.58.71,10.42,6,9.12,12.66-1.36,7-6.07,11.6-13.79,9.06a247.26,247.26,0,0,1-23.77-9.77c-3.36-1.52-7.08-3.55-5.7-8.33,1.21-4.22,5.17-3.65,8.4-3.84,3.72-.21,7.47,0,11.2,0Z"/><path class="cls-62" d="M78.9,175.71c2.17,4.79,1.12,9.54-.36,14.19-1.28,4-3.05,8.13-8.46,6.87s-7-5.26-6.06-10.3c.65-3.65,1.76-7.22,2.66-10.83a5,5,0,0,1,2.87.57c1.88,5.07,4.28,3.34,6.78.51A7.79,7.79,0,0,1,78.9,175.71Z"/><path class="cls-62" d="M66.68,175.64c4.11-4.62,8.16-2.09,12.22.08l-.82.8c-3.55,3.85-7.08,4.42-10.57-.08Z"/><path class="cls-26" d="M100.86,174.09c6.75,1.84,13.14,4,11.1,13.21l-2.5,2.19c-4.24,3.72-8.88,5.34-14.21,2.44a7.57,7.57,0,0,1-4-7.4C91.52,178.4,95.11,175.23,100.86,174.09Z"/><path class="cls-63" d="M76.31,210c1,4,2.81,8.16-1.06,12.08-4.91-3.43-2.89-8.14-3.49-12.14Z"/><path class="cls-64" d="M125.6,205.35a9.84,9.84,0,0,0,.28-1.78c1-2.68,2.35-4.8,5.63-4.44,2.24,1.67,2.34,3,1.42,6.18-2.79,9.67-3.44,20.4-1,29.7,2.59,9.72,9.54,18.37,17.8,25,3.08,2.49,7.77,2.93,9.39,7.32A3.48,3.48,0,0,1,157,270.5c-16.41-4.64-25.43-16.65-31.57-31.54C120.06,227.73,121.28,216.53,125.6,205.35Z"/><path class="cls-64" d="M217.53,252.4c-6.54,8.27-13.93,15.37-24.6,18a5.29,5.29,0,0,1-2.49-2.62c8.16-8.59,16.23-17.28,25.44-24.81a4.85,4.85,0,0,1,3.23,2C219.38,247.61,219.18,250.16,217.53,252.4Z"/><path class="cls-65" d="M191.15,173.49c16.54,3.72,26.48,14.74,32.89,29.68a14.75,14.75,0,0,1-2.38,2.16c-2.7.73-4.26-.89-5.33-2.89-4.13-7.74-11.65-11.78-18.06-17.06a6.52,6.52,0,0,0-2.43-2c-2.36-1.53-5-2.67-7.14-4.49a5.06,5.06,0,0,1-.43-3.44l1.19-1.33Z"/><path class="cls-66" d="M192.69,267.91l.24,2.5c-12,4.86-23.93,5.19-35.92.09,0-.77,0-1.54,0-2.31.14-.34.26-1,.41-1C169.21,266.56,181,263.19,192.69,267.91Z"/><path class="cls-67" d="M159.32,174c10.49-6.94,21.13-5.71,31.83-.53l-1,1C179.82,178.71,169.52,179.72,159.32,174Z"/><path class="cls-68" d="M130,200.72l-4.13,2.85c3.93-11.57,9.5-21.64,22.61-24.88,1.91,2.81.47,5.13-1,7.46-.58.93-1.27,1.77-1.8,2.69-2.63,1.44-2.59,5.21-5,6.91C137.37,197.86,135.37,203.15,130,200.72Z"/><path class="cls-47" d="M125.6,205.35c-2.11,11.19-2.83,22.39-.16,33.61C118.57,227.72,119.59,216.52,125.6,205.35Z"/><path class="cls-69" d="M159.32,174l30.86.48c.27.49.52,1,.75,1.49-.31,3-2.83,3.65-4.85,3.55-9.12-.45-18.26,1.24-27.33-.36a3.93,3.93,0,0,1-2.05-3.41Z"/><path class="cls-54" d="M221.84,203.17H224c.85,3,1.71,6,2.57,9a39.1,39.1,0,0,1,0,20.09c-.48.21-1,.4-1.47.58a5.24,5.24,0,0,1-3.73-1.5c-2.48-6.26-1.36-13.1-2.6-19.63C218.81,208.5,218.26,205.12,221.84,203.17Z"/><path class="cls-54" d="M217.53,252.4c.12-2.13.23-4.26.35-6.38l-.24-1.7a48.58,48.58,0,0,1,1.68-11.87,3.26,3.26,0,0,1,4.61-.48l1.21.88C224.47,240.09,223,247,217.53,252.4Z"/><path class="cls-69" d="M143.26,184.94l5.21-6.25,8.23-2.92.58.81c3.24,3.13,2.56,6-1.34,7.36S148,191.64,143.26,184.94Z"/><path class="cls-65" d="M226.61,232.27V212.18A26,26,0,0,1,226.61,232.27Z"/><path class="cls-51" d="M60.39,212.1c-1.52,13.1,3.68,24.51,9.08,35.87-4.82-2.67-5.71-9.25-11.22-11.23C51.7,223.62,52.24,217.4,60.39,212.1Z"/><path class="cls-70" d="M96.24,237.09c-1,5,1.87,12.93-8.35,10.71-.17-2.23-.38-4.45-.48-6.67C87,232.55,90.4,232.12,96.24,237.09Z"/><path class="cls-71" d="M67.51,176.44l10.58.08a5.32,5.32,0,0,1-.19,1.07c-1.86,4.71-.09,13.64-6.65,12.92S68.15,181.49,67.51,176.44Z"/><path class="cls-72" d="M143.26,184.94c5.42-1.54,10.27-4,14-8.37l33.65-.58h-.21c2.38,2.8,6,3.11,9.06,4.61l-.08,0c6.75,6.64,16.22,11.07,17.79,21.91a4.19,4.19,0,0,1-3.14,3.57c-3.24.34-4.75-2.32-6.85-3.94a37.71,37.71,0,0,0-5-3.64,22.39,22.39,0,0,0-9.81-3.1c-2.95.24-4.72-1.23-5.66-3.9-1.67-3.23-4.59-4.34-8-4.62s-6.17,1.72-9.39,1.88l-2.87.57c-4.14.7-8.05,2.38-12.23,2.88-2.3,3.46-5.71,6.6-3.11,11.38,1.68,2,4,3.3,5.74,5.27,1.89,6.58.57,13.27.84,19.86a8.13,8.13,0,0,1-.89,3.16c-1.6,1.88-3.68,3.41-4.56,5.87-2,5.63-2.06,10.9,2.61,15.37,3.43,2.8,7.75,3.87,11.55,5.93l2.71.91a20.93,20.93,0,0,0,8.18,1.25c3.4-.19,5.93-2.09,8.36-4.21a29.62,29.62,0,0,0,2.26-3.85c1.29-2.19,3.61-1.79,5.59-2.25a22.14,22.14,0,0,0,8.85-3.57c4.76-2.06,6-8.95,12.26-8.94a4.19,4.19,0,0,1,2.7,2.48c.26,2.15-.91,3.69-2.16,5.21a58.35,58.35,0,0,1-22.83,21.88c-11.87,3.07-23.76,2.64-35.67.28-27.12-14.53-34.16-32.11-27-67.47,1.75-3.24,3.19-6.7,6.4-8.89a38.5,38.5,0,0,1,7.11-6.92Z"/><path class="cls-73" d="M213.37,203l2-2.16c7.27.78,3.92,8,6.89,11.36,2.36,6.44,1.91,13.1,1.64,19.75l-1.83,2.56c-1.79,3.54-.92,8.19-4.53,11l.31.5-2.35,0c-.05-1.62-.1-3.24-.16-4.86-5-3.83-3.13-9.37-3.32-14.28-.28-7-.48-13.92-1-20.87A3.36,3.36,0,0,1,213.37,203Z"/><path class="cls-69" d="M222.29,212.22l-6.89-11.36c-3.06-8.45-11.08-13.07-15.7-20.31,11,4,15.86,14,22.14,22.62Z"/><path class="cls-69" d="M199.78,180.6a15.19,15.19,0,0,1-9.06-4.61C194.29,176.45,197.11,178.38,199.78,180.6Z"/><path class="cls-69" d="M143.51,184.91l-7.11,6.92A11.43,11.43,0,0,1,143.51,184.91Z"/><path class="cls-74" d="M217.57,245.51l4.53-11C222.07,238.8,220.87,242.59,217.57,245.51Z"/><path class="cls-75" d="M206.31,193.92l2.95,4.67c0,.57,0,1.13,0,1.7-2.58,11.42-2.19,22.89-.81,34.44,1.19.66,2.59.91,3.86,1.53a8.15,8.15,0,0,1,1.67,2.37,2.93,2.93,0,0,1-.41,2.76c-2.05,4.65-4.8,8.71-9.43,11.18-6.54,1.87-9.56-.92-10.16-7.38-.48-5.09-1.23-10.16-1.55-15.23.09-6.66.05-13.36.44-20.08C195.3,193.27,195.3,193.27,206.31,193.92Z"/><path class="cls-74" d="M154.78,230c-.11-6.75.39-13.57-1.93-20.11a3.35,3.35,0,0,1-3-2.23,24.53,24.53,0,0,1-.2-4.2c1.5-6.91,7.07-3.35,10.87-4.19,4.95-.66,10,0,15,.11,11.89.2,17.44,5.52,17.59,22.12.12,12.8-4.45,19-17.39,18.65-5.32-.14-10.91,1-16-1.62C156.58,236.53,154.51,233.92,154.78,230Z"/><path class="cls-76" d="M132.44,214.46c1.89-3,2.79-8.07,7.47-6.92,3.76.93,3.2,5.49,3.38,8.74a84.28,84.28,0,0,1-.07,12.31c-.31,3.52.29,8.6-4.69,8.84-4.19.2-5.85-4.16-7.07-7.71-1.78-5.18-1.16-10.32,1-15.3,2.88,2.21,3.23,5.3,3,8.6C135.67,219.73,135.33,216.64,132.44,214.46Z"/><path class="cls-77" d="M192.79,259.24c-.69.7-1.38,1.4-2.06,2.11a9,9,0,0,1-5.83,2c-8.21-5.56-8.92-10.73-3.19-23.53a15.88,15.88,0,0,1,5.52-3.63C196.51,240,197.66,244.76,192.79,259.24Z"/><path class="cls-78" d="M146.06,204.83c.17-5.92.57-11.78,4.3-16.78,4-4.26,7.27,0,8.94,1.94,2.25,2.64,2.08,7-.36,10.16-2,2.6-4.79,4.59-6.65,7.37l0-.17c-.88,1.43-1.21,4-3.58,3.12S147.24,206.61,146.06,204.83Z"/><path class="cls-79" d="M150.34,257.14c-6.09-6.58-3.91-14.8-4.45-22.48.31-1.28.94-1.39,1.83-.5,1.87,1.76,1.33,4.46,2.36,6.21-.75-2.43-1.22-5.31-3.08-7.64,1.19-7.66,4.31-1.92,6.74-1,2.93,2.45,5.91,4.87,6.64,9,3.82,13.56,3.47,14.55-6.33,18.25A7.44,7.44,0,0,1,150.34,257.14Z"/><path class="cls-80" d="M150.34,257.14a13.71,13.71,0,0,1,2.22.24c4.7,1.73,5.32-.86,5.7-4.75.43-4.36-2.26-9.31,2.08-13.12,3.08.78,6.71.44,8.76,3.77,4.74,7.61,5.2,14.63-3,20.35C160.79,261.6,154.55,261.83,150.34,257.14Z"/><path class="cls-81" d="M183.88,241.18c-1,7-4.15,14.24,2.33,20.38,1.4,3.64-1.48,3.27-3.25,3a7.26,7.26,0,0,0-5.92,1.23l-9.21-1.49a3.5,3.5,0,0,1-.26-3.36c6.35-4,5.09-10.84,6.37-16.78a7.88,7.88,0,0,1,1.43-3.18C178.18,240.35,181.13,237.81,183.88,241.18Z"/><path class="cls-82" d="M152.29,207.52c1.75-6.73,11.21-14.22-1.92-19.48,4.79-3.47,10.53-1.75,15.75-2.85,2.91.58,4.58,2.18,4.39,5.3-.39,1.17-.8,2.36-1.18,3.54-1.35,5.32-7.12,5.64-10.21,9Z"/><path class="cls-83" d="M165.73,194.38l.66-2.86c6.06-2.51,3.23-5.28.24-8.05,3.79-3.05,8.28-2.61,12.69-2.59,2.15,1.81,5.11,2.83,5.69,6.07,2.36,4.54,2,8.49-2.35,11.75C176.81,198.3,169.4,203.52,165.73,194.38Z"/><path class="cls-84" d="M166.63,183.47c4.34.39,10.32-.06,9.21,6.34-1.05,6.05-5.72,4-9.45,1.71l-.27-6.33A13,13,0,0,0,166.63,183.47Z"/><path class="cls-74" d="M197.42,230c.72,8-2.34,17,6.67,22.54l-8.68,2.19c-2.45-6.74-.47-14.55-5.07-20.79C191.39,230.33,192.82,227.32,197.42,230Z"/><path class="cls-85" d="M206.31,193.92c-8.54,2.18-8.74,9-8.89,15.89-5.44,3.89-8-.14-10.6-3.89,3.1-4.56-1.43-13.75,8.57-14.13Z"/><path class="cls-75" d="M193,234.48c2.42,6.56,2.27,13.44,2.44,20.28q-1.29,2.24-2.61,4.48c-1.69-6.92,3.84-16.17-6.58-20.25C185.17,232.57,187.38,231,193,234.48Z"/><path class="cls-85" d="M213.52,241.39l-.53-2.73c-9.27-9.54-5.94-20.36-3.16-31.11a5.07,5.07,0,0,1,3.57-2.46c3.46,11.88,1.43,24,2,36.08Z"/><path class="cls-75" d="M195.39,191.79c-.35,5.54-1.12,10.87-6.91,13.66-3.55,1.64-3.06-1.88-4.21-3.3.45-5.86,3.55-10.76,5.93-15.91a7.14,7.14,0,0,1,2.83-1.32Z"/><path class="cls-86" d="M177.33,244.14c-.15.82-.3,1.64-.44,2.46-5.88,3.09-2.33,11.69-8.54,14.59-.17,1-.34,2.09-.52,3.14-.57-.24-1.15-.48-1.73-.7q.18-9.92.35-19.83C170.23,238.9,173.89,238,177.33,244.14Z"/><path class="cls-76" d="M146.06,204.83c1.6,2.06,3.43,3.54,6.26,2.52.18.85.35,1.71.53,2.56-1,1.48-2,3.65-4.13,2.66C145.48,211,146.23,207.67,146.06,204.83Z"/><path class="cls-87" d="M193,184.92c-.08.93-.15,1.86-.22,2.8-4.32,3-7.75,1.77-10.59-2.22l-2.9-4.62A32.28,32.28,0,0,1,193,184.92Z"/><path class="cls-76" d="M152.34,232.69c-1.86-.37-3.65-.6-4.26,1.86h0a20,20,0,0,0-2.19.12c.85-3.68.53-9.07,6.89-4.7Q154.2,231.6,152.34,232.69Z"/><path class="cls-80" d="M152.34,232.69c.14-.91.29-1.82.44-2.73l2,.06,4.49,4.48c1,1.48,2.1,2.95.92,4.84A2.22,2.22,0,0,1,157,239Z"/><path class="cls-74" d="M177,265.82c2.41-2.83,6.14-2.8,9.17-4.26l4.52-.21C186.89,265,182.09,265.82,177,265.82Z"/><path class="cls-85" d="M213.37,203c0,.69,0,1.39,0,2.08l-.59.47c-6.62,1.11-8.48-.91-4.49-6.8l.94-.18Z"/><path class="cls-88" d="M159.05,239.39c.08-1.63.15-3.26.22-4.89,3.62.7,7.2,1.81,10.85,2,12.32.73,17.88-4.07,18.19-15.3.33-12.16-4.85-17.67-17-18-4-.11-8.11-.11-12.17-.16.93-3.87,2.8-7,6.61-8.66,5.17,2.5,10.71,1.84,16.17,1.85,4.06-.82,6.51-.19,4.28,4.7.77,1.5,1.53,3,2.3,4.52l8.94,4.36V230q-2.23,2.22-4.46,4.45a11.65,11.65,0,0,0-6.75,4.51l-2.33,2.19-6.55,2.95-10.88-.33-7-2.59c-.78-.26-1.09-.61-.95-1.07S158.83,239.39,159.05,239.39Z"/><path class="cls-89" d="M210.85,238.81l-4.34,7.12c-1.7.41-3.24-.22-3.27-1.88-.27-14.38-.34-28.77,1.24-43.26C216.38,211.84,211.45,225.7,210.85,238.81Z"/><path class="cls-90" d="M210.85,238.81c-.92-10.94,2.48-22.46-4.82-32.65-1.59,13.31-3.61,26.55.48,39.77-4.17-2.37-4.44-2.37-4.46-4.59-.1-12.09-.18-24.19,0-36.28,0-3.71.54-7.82,6.26-6.29l4.49,6.8q.09,16.55.19,33.09A15.4,15.4,0,0,1,210.85,238.81Z"/><path class="cls-91" d="M186.3,216.58c0,2.22.06,4.45.08,6.67-4.15,5.12-7.39,11.62-15.81,10.12-5.92-1.06-10.76-3.78-12.24-9.87-1.74-7.14,2.38-12.12,8-15.44,5.31-3.14,10.63-2.49,15,2.48A59.51,59.51,0,0,1,186.3,216.58Z"/><path class="cls-92" d="M186.3,216.58c-4.37-2.65-7.61-7.48-13.28-7.61-5.43-.12-8.86,3.34-11.3,7.76-2,3.68-1.35,7.26,1.51,10.23,3.63,3.78,8.15,5.59,13.08,3.18,3.62-1.77,6.73-4.55,10.07-6.89-1.91,8-7,12-15.18,11.69-6.63-.26-11.2-4-13.23-10.12-2.2-6.67-.23-12.49,5.44-16.73C171.56,202,180.54,205.39,186.3,216.58Z"/><path class="cls-93" d="M132.44,214.46a20.21,20.21,0,0,1,2.75,1.78c2.71,2.42,3.83,5.37,2,8.77a2.89,2.89,0,0,1-2.67.78c-2.69-2.08-1.87-5.25-2.09-8.09-.09-1.08,0-2.18,0-3.28Z"/><path class="cls-94" d="M148.08,234.55c3.27,4.39,7.95,8.25,5.9,14.69-.18.58-2.23,1.29-2.58,1-5-4.34-2.2-10.43-3.32-15.68Z"/><path class="cls-86" d="M159.05,239.39c.12.61.25,1.21.39,1.82-1.61,5.68,4.2,14.51-6.88,16.17,6.27-5,4.48-11.9,4.47-18.39Z"/><path class="cls-95" d="M168.35,261.19c-.3-6.7-3.61-15.16,8.54-14.59C177,253.17,178.81,260.78,168.35,261.19Z"/><path class="cls-96" d="M186.18,200.93l-4.28-4.69c.11-3.58.21-7.16.32-10.74a12,12,0,0,1,10.59,2.22C191.58,192.61,195.8,200.24,186.18,200.93Z"/></g></g></svg>