<svg xmlns="http://www.w3.org/2000/svg" viewBox="0 0 327 377.59"><defs><style>.cls-1{fill:#1e1e1e;stroke:#b8a473;stroke-miterlimit:10;stroke-width:19px;}.cls-2{fill:#b8a473;}</style></defs><g id="Layer_2" data-name="Layer 2"><g id="Layer_1-2" data-name="Layer 1"><polygon class="cls-1" points="317.5 277.7 317.5 99.88 163.5 10.97 9.5 99.88 9.5 277.7 163.5 366.62 317.5 277.7"/><path class="cls-2" d="M163,207.09l-14.09-12.32c6.94-9.25,3.6-19.91,4.23-29.94,1-15.09,1.05-30.24,1.15-45.36,0-5.65,1.62-9.46,7.42-11,2.53-.69,4.87-2.05,7.64-3.26,1,3.43,2,6.6,3,10.19.73-.84,1.32-1.2,1.41-1.65,2-11,9.34-16.6,19.34-20.23,7.31-2.65,14.16-6.54,21.48-10l2.82,6.69c1.34-10.87,9.23-12.4,15.81-15.52Q260,62,286.69,49.29c1.18-.55,2.39-1,4.57-1.95-.73,2.74-1.16,4.67-1.75,6.55C285.35,67,280.9,80.1,277.08,93.34c-2.08,7.22-4.69,13.57-12.38,16.81l6.44,1.27c-3.85,12-7.38,23.64-11.5,35.11-.74,2.05-3.79,3.4-6,4.76-3,1.9-6.26,3.49-9.39,6.4L255.94,159c-3.4,10.53-6.5,20.69-10.09,30.68-.47,1.3-3.37,2.14-5.27,2.45-21.16,3.49-42.37,6.71-63.52,10.3C172.81,203.19,168.77,205.16,163,207.09Zm36.36-82-.21-.85,65.56-47.92c-1.16-.76-1.75-.74-2.24-.5C232.24,90.13,202,104.44,171.8,119c-1.82.89-3.56,3.94-3.66,6.06-.64,13.2-.79,26.41-1.11,39.62l-.22,8.56L206,142.74l2.09,1.89-24.69,42.5,37.33-20.37-.43-1.16L207,165.48c3.94-7.33,7.53-13.86,10.94-20.49,1.21-2.35,3.19-5.2,2.71-7.35-1.77-7.84,2.53-12.63,7.32-17.46,1.4-1.41,2.63-3,3.94-4.48l-.85-1.2Z"/><path class="cls-2" d="M85.47,283c3.16,2.78,6.53,5.36,9.45,8.36,4,4.13,2.91,10.61-2.56,12.06-8.76,2.31-13.27,8.46-17,15.8-2.6,5.11-5.35,10.15-7.9,15.28s-6.83,7.08-12.32,6c-11.05-2.11-18.54-8.74-22.59-19.06-2.43-6.21-.71-10.53,4.75-14.38,5-3.52,9.92-7.17,15-10.6,6.28-4.26,10.53-9.58,11.79-17.44,1-6.06,6.89-8,11.86-4.31C79.29,277.21,82.3,280.19,85.47,283Z"/><path class="cls-2" d="M134.7,210.13c-1.06-1.83-2.38-3-2.27-4.11.28-3,.27-6.78,2.06-8.52,1.53-1.49,6.35-1.82,8.07-.5a203.2,203.2,0,0,1,20.66,18.13c1.4,1.4,1.52,5.94.29,7.64-1.42,2-5.69,4-7.46,3.22-4.54-2-6.47,0-9,3-9.59,11.18-19.35,22.21-29.05,33.29l-4.66,5.33L97,253.27Z"/><path class="cls-2" d="M101.52,264.68c3.16,2.76,6.9,5.11,9.26,8.44a10.84,10.84,0,0,1,1.27,8.63c-1.22,3.51-4.77,4.38-8.67,3.24-1.66-.49-4.25.88-5.35,0A202.88,202.88,0,0,1,81.5,270.84c-1.1-1.07-.87-3.91-.66-5.87.33-3,.27-7,2.08-8.46s6.26-1.46,8.55-.23c3.77,2,6.73,5.53,10,8.42Z"/></g></g></svg>