<svg xmlns="http://www.w3.org/2000/svg" viewBox="0 0 327 377.59"><defs><style>.cls-1{fill:#1e1e1e;}.cls-1,.cls-2{stroke:#b8a473;stroke-miterlimit:10;stroke-width:19px;}.cls-2{fill:#b8a473;}</style></defs><g id="Layer_2" data-name="Layer 2"><g id="Layer_1-2" data-name="Layer 1"><polygon class="cls-1" points="317.5 277.7 317.5 99.88 163.5 10.97 9.5 99.88 9.5 277.7 163.5 366.62 317.5 277.7"/><path class="cls-1" d="M293.81,58.27a64.74,64.74,0,0,1-18.2,36.39Q196.15,175.2,116.48,255.49l-2.09,2.09-20-20c4.55-4.55,8.83-8.87,13.15-13.15Q181.75,151,256,77.57A67.76,67.76,0,0,1,290,58.82C291.06,58.6,292.12,58.51,293.81,58.27ZM276.16,77.06l-1.3-1.33c-2.49,1.91-5.22,3.56-7.41,5.75Q190.2,158.59,113.06,235.8l-3.79,3.79c1.9,3.93,3.56,2.67,5.58.64Q193,162,271.09,83.86C273.07,81.88,274.49,79.34,276.16,77.06Z"/><path class="cls-2" d="M83,254.28l14.77,14.78c-4.94,4.38-9.77,8.72-14.66,13-7.94,6.94-16,13.76-23.82,20.85A7.8,7.8,0,0,0,57,308.17c.08,8.78-6,15.83-14.22,16a14.5,14.5,0,0,1-15.06-15,14.34,14.34,0,0,1,16-13.94c3.11.28,4.43-1.3,6-3.12q15.2-17.49,30.4-35C80.92,256.23,81.82,255.43,83,254.28Z"/><path class="cls-1" d="M144.81,281c-1.44,3.3-2.7,6.21-4.25,9.77C104,274.29,77.78,248.08,61.17,211.43l9.76-4.33C86.21,241,110.7,265.48,144.81,281Z"/></g></g></svg>