<svg xmlns="http://www.w3.org/2000/svg" viewBox="0 0 327 377.59"><defs><style>.cls-1{fill:#1e1e1e;stroke:#b8a473;stroke-miterlimit:10;stroke-width:19px;}.cls-2{fill:#f20606;}.cls-3{fill:#b8a473;}</style></defs><g id="Layer_2" data-name="Layer 2"><g id="Layer_1-2" data-name="Layer 1"><polygon class="cls-1" points="317.5 277.7 317.5 99.88 163.5 10.97 9.5 99.88 9.5 277.7 163.5 366.62 317.5 277.7"/><path class="cls-2" d="M215.11,108.38c-2.89,1.91-5.42,3.73-8.1,5.31-7.71,4.56-12,3.65-17.19-3.59-1.35-1.89-2.59-3.86-4-5.91-10.65,11.32-12.63,24.9-11.05,40.21-5.82-6.07-11.64-10.77-11.42-19.8.36-14.75,2.37-28.88,10.6-41.52,5.08-7.81,13.7-13,21.59-12.92-1.41,2-2.9,3.76-4.06,5.73-3.77,6.39-1.11,11.3,6.29,11.84,7.22.52,13.94-1.61,20.58-4a146.17,146.17,0,0,0,21.86-10.35c-.33,2.54-1.62,4.4-2.33,6.45a38.5,38.5,0,0,0-2.29,9.8c-.36,5.43,2.55,8.27,8,7.71a33.24,33.24,0,0,0,11.82-4c11.08-5.76,20.94-13.06,28.68-23a19.76,19.76,0,0,0,3-5.35c1.1.2,1,1,1,1.49,2.15,21.92-.25,43.22-8.85,63.62-2.64,6.27-6.41,11.82-13.22,15.71,12,2,21-3.93,31.1-8.9-5.52,10.45-11.37,19.65-19.34,27.35a56.7,56.7,0,0,1-28.69,14.91c2.51,3.32,3.59,3.72,18.24,6.84-5.15,8.69-13.59,11.18-22.52,12.21-14.33,1.66-26.8-1.54-34.49-15.41,7.52,3.54,15.17,2.9,23.06.27-1.08-1.87-2.51-3.42-3.12-5.48-1.41-4.78-.54-7.74,3.49-10.69,4.55-3.33,9.87-4.77,15.22-6.15l2.33-.6c-1.6-2-3.06-3.73-4.47-5.51-3.58-4.5-4-9.26-1.8-14.61,3.27-7.94,8.62-14.27,14.57-20.23,1.65-1.64,3.12-3.46,4.67-5.21-4.31.67-8.49,2.44-12.77,3.81-6.8,2.17-13.54,4.57-20.63,5.66-.61.09-1.21.21-1.82.27-10.51,1.13-14.86-3.06-14.15-13.61C215,110.09,215.05,109.41,215.11,108.38Z"/><path class="cls-3" d="M157.91,230.91c-.2.94-.92,1.19-1.49,1.6q-24.3,17-48.59,34.1-32.06,22.5-64.07,45.06c-1.62,1.15-2.61,1.35-4-.3-2.9-3.43-5.93-6.75-9-10-1.18-1.22-1.16-1.93-.07-3.21q22.77-26.64,45.43-53.36,22-25.87,44-51.77c1.3-1.53,1.9-1.77,3.36-.14,11,12.21,22.09,24.32,33.15,36.47C157.06,229.9,157.5,230.44,157.91,230.91Z"/><path class="cls-3" d="M157.38,139.85c.69.9,1.25,1.76,1.92,2.5q17.2,18.93,34.43,37.83c5.71,6.26,11.39,12.56,17.17,18.75,1.29,1.38,1.4,2-.31,3.16q-19.58,12.89-39,26c-1.25.84-2,.82-3-.33q-21.09-23.25-42.3-46.41c-1.16-1.27-1-2.07,0-3.3Q141,160,155.6,141.9C156.05,141.35,156.53,140.82,157.38,139.85Z"/></g></g></svg>