<svg xmlns="http://www.w3.org/2000/svg" viewBox="0 0 53.62 39.55"><defs><style>.cls-1{fill:#fff;stroke:#161616;}.cls-1,.cls-2,.cls-3{stroke-miterlimit:10;}.cls-2{fill:#f20606;}.cls-2,.cls-3{stroke:#fff;}</style></defs><g id="Layer_2" data-name="Layer 2"><g id="Layer_1-2" data-name="Layer 1"><polygon class="cls-1" points="39.91 0.5 13.71 0.5 0.6 19.78 13.71 39.05 39.91 39.05 53.01 19.78 39.91 0.5"/><path class="cls-2" d="M33.45,9.43c-.37.24-.7.48-1,.68a1.38,1.38,0,0,1-2.21-.46c-.18-.24-.34-.5-.51-.76a6.08,6.08,0,0,0-1.42,5.17c-.75-.78-1.5-1.38-1.47-2.55a9.81,9.81,0,0,1,1.36-5.34,3.47,3.47,0,0,1,2.78-1.66c-.18.25-.37.48-.52.73-.49.83-.15,1.46.8,1.53a6.49,6.49,0,0,0,2.65-.51,19.55,19.55,0,0,0,2.82-1.34,4.23,4.23,0,0,1-.3.83A5,5,0,0,0,36.09,7a.84.84,0,0,0,1,1,4.36,4.36,0,0,0,1.52-.52,10.84,10.84,0,0,0,3.69-3,2.44,2.44,0,0,0,.39-.68c.15,0,.13.12.13.19a16.51,16.51,0,0,1-1.14,8.19,3.94,3.94,0,0,1-1.7,2c1.55.25,2.71-.51,4-1.15a13.29,13.29,0,0,1-2.49,3.52,7.2,7.2,0,0,1-3.69,1.92c.33.43.46.48,2.35.88A3.49,3.49,0,0,1,37.28,21c-1.84.22-3.45-.2-4.44-2a3.82,3.82,0,0,0,3,0,3.5,3.5,0,0,1-.4-.7A1.09,1.09,0,0,1,35.86,17a5.5,5.5,0,0,1,2-.79l.3-.07-.58-.71a1.74,1.74,0,0,1-.23-1.88,8,8,0,0,1,1.88-2.61c.21-.21.4-.44.6-.67a11.1,11.1,0,0,0-1.65.49,17.32,17.32,0,0,1-2.65.73l-.24,0c-1.35.15-1.91-.39-1.82-1.75C33.44,9.65,33.44,9.56,33.45,9.43Z"/><path class="cls-3" d="M26.09,25.2c0,.12-.12.15-.19.2l-6.26,4.39q-4.12,2.9-8.24,5.8c-.21.15-.34.17-.52,0-.37-.44-.76-.87-1.16-1.28-.15-.16-.15-.25,0-.42L15.56,27q2.83-3.33,5.66-6.67c.17-.19.24-.22.43,0,1.42,1.57,2.85,3.13,4.27,4.69Z"/><path class="cls-3" d="M26,13.48c.09.11.16.22.25.32l4.43,4.87,2.21,2.41c.17.18.18.26,0,.41-1.68,1.1-3.35,2.22-5,3.34-.16.11-.26.11-.39,0-1.81-2-3.63-4-5.44-6-.15-.16-.13-.26,0-.42l3.77-4.65Z"/></g></g></svg>